{
.appVersion = "3260";
.formatVersion = 3;
DisplayStrings = (
"019tdD(",
" !#$%&()*0123456789@ABCDEFGHIJKLMNOPQRSTUVWXYZ^abcdefghijklmnopqrstuvwxyz",
")"
);
customParameters = (
{
name = "meta Table";
value = (
{
data = <7b2265787456657273696f6e223a22332e352e39222c227363616c696e67466163746f72223a31362e3132393539303031393237333030332c2273706163696e67223a7b22757070657263617365223a7b226d6f6465223a2264656661756c74222c2262656172696e67223a35307d2c226c6f77657263617365223a7b226d6f6465223a2264656661756c74222c2262656172696e67223a35307d2c22646967697473223a7b226d6f6465223a2264656661756c74222c2262656172696e67223a35307d2c2270756e6374756174696f6e223a7b226d6f6465223a2264656661756c74222c2262656172696e67223a35307d2c226f7468657273223a7b226d6f6465223a2264656661756c74222c2262656172696e67223a35307d2c22657863657074696f6e73223a7b7d7d2c226170706c69636174696f6e223a22494c4c5553545241544f52222c226275696c6452616e646f6d223a226536323432222c226b65726e696e6747726f757073223a7b226c656674223a7b7d2c227269676874223a7b7d7d2c226d697373696e6743617365537562737469747574696f6e223a307d>;
tag = fslf;
}
);
},
{
name = vendorID;
value = XXXX;
},
{
name = panose;
value = (
0,
0,
0,
0,
0,
0,
0,
0,
0,
0
);
},
{
name = unicodeRanges;
value = (
0,
1,
2
);
},
{
name = fsType;
value = (
);
},
{
name = glyphOrder;
value = (
.notdef,
.null,
LF,
controlCR,
space,
exclam,
numbersign,
dollar,
percent,
ampersand,
parenleft,
parenright,
asterisk,
zero,
one,
two,
three,
four,
five,
six,
seven,
eight,
nine,
at,
A,
B,
C,
D,
E,
F,
G,
H,
I,
J,
K,
L,
M,
N,
O,
P,
Q,
R,
S,
T,
U,
V,
W,
X,
Y,
Z,
asciicircum,
a,
b,
c,
d,
e,
f,
g,
h,
i,
j,
k,
l,
m,
n,
o,
p,
q,
r,
s,
t,
u,
v,
w,
x,
y,
z,
nonbreakingspace,
softhyphen
);
},
{
name = "Disable Subroutines";
value = 1;
}
);
date = "2024-09-22 22:57:59 +0000";
familyName = Halloweenies;
fontMaster = (
{
customParameters = (
{
name = typoAscender;
value = 700;
},
{
name = typoDescender;
value = -200;
},
{
name = typoLineGap;
value = 0;
},
{
name = winAscent;
value = 558;
},
{
name = winDescent;

glyphs = (
{
glyphname = exclam;
lastChange = "2024-09-22 23:05:32 +0000";
layers = (
{
layerId = m01;
shapes = (
{
closed = 1;
nodes = (
(211.19,-19.66,o),
(228.48,-13.15,o),
(237.89,5.35,cs),
(238.55,6.62,o),
(238.49,8.59,o),
(240.91,8.85,c),
(243.12,7.4,o),
(245.46,5.72,o),
(247.91,4.25,cs),
(265.78,-6.4,o),
(286.85,-2.06,o),
(299.07,14.81,cs),
(303.84,21.39,o),
(306.62,28.86,o),
(308.18,36.83,cs),
(308.76,39.8,o),
(308.34,43.15,o),
(310.84,45.57,c),
(325.32,35.44,o),
(333.37,32.84,o),
(345.63,34.76,cs),
(356.97,36.53,o),
(367.03,41.26,o),
(375.74,48.78,cs),
(384.56,56.41,o),
(391.48,65.55,o),
(396.95,75.88,cs),
(398.35,78.54,o),
(399.03,81.75,o),
(402.06,83.91,c),
(403.17,82.47,o),
(404.09,81.2,o),
(405.11,80.01,cs),
(412.53,71.43,o),
(422.05,69.93,o),
(431.69,75.83,cs),
(436.42,78.73,o),
(440.06,82.73,o),
(443.34,87.15,cs),
(444.76,89.04,o),
(445.31,91.83,o),
(448.05,92.54,c),
(461.08,77.94,o),
(473.08,78.39,o),
(485.29,93.86,cs),
(492.16,102.59,o),
(496.21,112.63,o),
(498.53,123.43,cs),
(499.32,127.16,o),
(499.24,131.08,o),
(501.18,135.03,cs),
(501.21,135.03,ls),
(514.66,137.35,o),
(526.4,143.59,o),
(536,153.55,cs),
(553.89,172.07,o),
(562.15,194.39,o),
(560.95,219.97,cs),
(560.39,231.79,o),
(558.61,243.57,o),
(557.43,255.36,cs),
(556.49,264.65,o),
(559.4,272.36,o),
(566.91,278.22,cs),
(570.18,280.78,o),
(573.38,283.49,o),
(576.41,286.35,cs),
(601.35,309.75,o),
(601.09,351.22,o),
(576.25,374.82,cs),
(570.7,380.09,o),
(564.98,381.5,o),
(557.86,379.82,cs),
(551.96,378.45,o),
(546.6,375.55,o),
(540.99,373.43,c),
(539.8,376.17,o),
(540.93,378.32,o),
(541.22,380.48,cs),
(543.32,396.35,o),
(538.17,405.48,o),
(523.33,411.4,cs),
(505.36,418.56,o),
(488.73,415.84,o),
(473.67,403.88,cs),
(469.2,400.33,o),
(465.2,396.2,o),
(459.88,391.33,c),
(457.43,401.6,o),
(457.17,411.8,o),
(449.38,419.19,cs),
(441.46,426.69,o),
(431.44,428.56,o),
(420.96,430.85,c),
(420.48,439.14,o),
(415.36,444.96,o),
(410.78,450.87,c),
(411.89,452.66,o),
(412.8,453.98,o),
(413.57,455.39,cs),
(419.43,466.21,o),
(423.25,477.75,o),
(424.8,489.92,cs),
(427.2,509,o),
(414.43,520.81,o),
(395.51,517.13,cs),
(388.09,515.69,o),
(381.82,511.97,o),
(376.17,506.98,cs),
(374.12,505.17,o),
(372.91,502.3,o),
(369.99,501.53,c),
(359.28,514.11,o),
(349.47,517.05,o),
(336.2,511.84,cs),
(327.12,508.28,o),
(320.67,501.81,o),
(315.99,493.47,cs),
(310.7,484.05,o),
(308.36,473.79,o),
(308.15,463.07,cs),
(307.97,455.42,o),
(308.1,447.78,o),
(308.1,439,c),
(301.08,442.42,o),
(294.66,441.98,o),
(288.29,438.68,cs),
(282.32,435.58,o),
(277.77,430.62,o),
(272.24,426.32,c),
(269.9,429.26,o),
(268,431.8,o),
(265.95,434.22,cs),
(250.64,452.3,o),
(228.01,451.91,o),
(213.21,433.32,cs),
(210.19,429.55,o),
(207.84,425.38,o),
(205.71,421.05,cs),
(204.76,419.11,o),
(204.65,416.61,o),
(201.68,415.15,c),
(185.57,424.86,o),
(174.68,414.44,o),
(164.39,403.68,c),
(150.97,412.52,o),
(141.73,411.16,o),
(132.05,399.44,cs),
(131.44,398.7,o),
(130.76,397.97,o),
(130.32,397.13,cs),
(123.56,384.32,o),
(112.29,376.73,o),
(99.85,370.24,cs),
(87.62,363.85,o),
(76.01,356.42,o),
(65.59,347.27,cs),
(60.23,342.58,o),
(55.51,337.4,o),
(52.56,330.8,cs),
(43.22,309.86,o),
(60.83,285.59,o),
(81.21,288.02,cs),
(83.39,288.29,o),
(85.66,288.91,o),
(88.21,287.62,c),
(86.66,280.28,o),
(83.94,273.06,o),
(83.55,265.39,cs),
(83.16,257.5,o),
(84.94,250.12,o),
(89.2,243.41,cs),
(93.41,236.78,o),
(98.96,231.46,o),
(105.96,227.93,cs),
(128.48,216.57,o),
(144.48,227.59,o),
(158.57,243.96,c),
(172.39,231.62,o),
(176.36,231.96,o),
(202.7,247.7,c),
(204.44,239.12,o),
(203.35,230.39,o),
(206.17,222.15,cs),
(209.17,213.41,o),
(215.15,207.12,o),
(223.17,200.75,c),
(214.09,199.25,o),
(206.49,198.38,o),
(199.23,195.99,cs),
(186.37,191.75,o),
(175.87,184.13,o),
(172,170.99,cs),
(169.76,163.3,o),
(165.44,160.44,o),
(158.82,157.94,cs),
(139.74,150.73,o),
(122.25,140.83,o),
(108.08,125.79,cs),
(99.03,116.19,o),
(92.81,105.1,o),
(91.64,91.8,cs),
(90.4,77.62,o),
(93.79,64.65,o),
(105.93,56.07,cs),
(117.8,47.65,o),
(130.25,50.44,o),
(142.33,56.55,cs),
(144.83,57.82,o),
(146.8,60.2,o),
(149.99,60.24,c),
(151.54,56.27,o),
(151.7,52.09,o),
(152.34,48,cs),
(154.84,32.58,o),
(159.89,18.21,o),
(169.45,5.66,cs),
(175.4,-2.13,o),
(182.68,-8.24,o),
(191.87,-11.92,cs)
);
}
);
width = 645;
}
);
note = exclam;
unicode = 33;
},
{
glyphname = numbersign;
lastChange = "2024-09-22 23:05:32 +0000";
layers = (
{
layerId = m01;
shapes = (
{
closed = 1;
nodes = (
(165.74,-5.84,o),
(177.5,7.72,o),
(173.36,23.03,cs),
(171.33,30.51,o),
(167.59,36.27,o),
(161.07,40.66,cs),
(151.39,47.21,o),
(143.6,55.73,o),
(137.62,65.76,cs),
(135.23,69.78,o),
(133.49,73.99,o),
(139.65,76.97,c),
(142.65,71.97,o),
(142.55,66.26,o),
(144.68,61.31,cs),
(146.15,57.89,o),
(148.18,54.91,o),
(152.31,55.04,cs),
(156.39,55.19,o),
(158.36,58.19,o),
(159.52,61.77,cs),
(159.83,62.69,o),
(160.04,63.62,o),
(160.31,64.54,cs),
(166.65,86.44,o),
(176.92,106.12,o),
(193.02,122.54,cs),
(197.96,127.57,o),
(202.54,132.96,o),
(207.15,138.3,cs),
(213.46,145.59,o),
(219.2,153.28,o),
(223.57,161.95,cs),
(227.26,169.32,o),
(228.7,176.81,o),
(227.2,185.16,cs),
(225.89,192.39,o),
(222.64,198.98,o),
(221.07,206.1,c),
(243.46,211.16,o),
(291.06,210.41,o),
(303.04,204.73,c),
(300.04,199.5,o),
(295.01,196.54,o),
(290.49,193.1,cs),
(277.73,183.39,o),
(264.62,174.18,o),
(252.89,163.16,cs),
(247.47,158.06,o),
(247.37,157.76,o),
(250.73,150.93,cs),
(251.28,149.83,o),
(252.33,148.91,o),
(251.94,147.48,cs),
(251.21,145.35,o),
(249.12,145,o),
(247.47,144.16,cs),
(238.36,139.45,o),
(229.24,134.66,o),
(221.11,128.37,cs),
(212.17,121.45,o),
(213.11,113.29,o),
(223.22,108.19,cs),
(229.58,105,o),
(236.46,103.37,o),
(243.33,101.85,cs),
(248.12,100.8,o),
(252.59,99.25,o),
(256.43,96.22,cs),
(268.03,87.07,o),
(280.46,79.19,o),
(292.58,70.78,cs),
(306.34,61.25,o),
(320.84,59.62,o),
(336.52,62.68,cs),
(339.55,63.28,o),
(342.6,64.39,o),
(343.88,67.62,c),
(339.49,74.46,o),
(331.15,70.57,o),
(325.41,75.07,c),
(335.85,80.07,o),
(346.72,82.8,o),
(355.72,89.83,c),
(354.01,91.44,o),
(353.27,92.06,o),
(352.62,92.75,cs),
(343.02,102.78,o),
(338.93,103.69,o),
(326.39,99.07,cs),
(320.78,97.01,o),
(315.49,93.92,o),
(309.5,92.97,c),
(303.11,102.66,o),
(296.94,111.99,o),
(290.55,121.66,c),
(294.24,124.22,o),
(295.82,127.68,o),
(295.78,132.26,cs),
(295.73,138.37,o),
(299.15,143.15,o),
(303.1,147.5,cs),
(307.21,152.03,o),
(312.2,155.56,o),
(316.96,159.37,cs),
(321.25,162.77,o),
(325.54,166.11,o),
(325.51,172.48,cs),
(325.51,175.64,o),
(328.41,177.34,o),
(330.43,179.32,cs),
(338.72,187.45,o),
(348.3,193.87,o),
(358.17,199.9,cs),
(362.27,202.42,o),
(366.35,204.95,o),
(369.48,208.74,cs),
(377.3,218.22,o),
(376.98,222.35,o),
(367.74,229.79,c),
(373.4,237.32,o),
(372.79,239.27,o),
(363.92,242.16,cs),
(362.71,242.56,o),
(361.47,242.87,o),
(360.23,243.22,cs),
(341.21,248.8,o),
(321.74,249.61,o),
(302.1,249.2,cs),
(286.08,248.86,o),
(270.1,249.51,o),
(254.15,251.23,c),
(255.2,267.57,o),
(252.07,272.34,o),
(236.67,277.36,cs),
(226.56,280.65,o),
(216.78,284.55,o),
(207.88,290.42,cs),
(205.14,292.23,o),
(201.85,293.65,o),
(199.83,297.6,c),
(205.15,298.91,o),
(210.49,299.55,o),
(209.28,306.47,c),
(233.64,312.18,o),
(256.93,319.84,o),
(281.15,322.52,c),
(281.92,320.41,o),
(280.94,319.87,o),
(280.44,319.12,cs),
(275.99,312.33,o),
(277.07,308.97,o),
(284.5,306.3,cs),
(288.19,304.96,o),
(292.03,304.88,o),
(295.87,304.64,cs),
(298.37,304.49,o),
(301.06,305.03,o),
(303.23,303.16,cs),
(308.47,298.6,o),
(313.71,294.03,o),
(318.97,289.43,c),
(316.78,286.4,o),
(315.41,283.43,o),
(312.26,282.22,c),
(309.86,283.37,o),
(307.61,284.69,o),
(305.2,285.48,cs),
(302.7,286.32,o),
(300.89,285.13,o),
(300.05,282.58,cs),
(298.15,276.87,o),
(302.6,267.92,o),
(309.32,264.03,cs),
(315.64,260.35,o),
(320,261.11,o),
(325.37,267.08,cs),
(331.53,273.95,o),
(336.63,281.6,o),
(340.84,289.23,c),
(340.39,295.36,o),
(334.5,298.29,o),
(333.21,303.99,c),
(338.58,305.17,o),
(343.55,306.23,o),
(348.48,307.34,cs),
(350.17,307.71,o),
(351.61,307.5,o),
(352.67,305.97,cs),
(353.78,304.36,o),
(353.09,302.99,o),
(352.19,301.6,cs),
(350.11,298.37,o),
(347.71,295.29,o),
(346.08,291.86,cs),
(343.77,286.99,o),
(345.77,283.15,o),
(350.9,281.57,cs),
(358.71,279.17,o),
(365.4,280.86,o),
(370.98,286.92,cs),
(372.4,288.45,o),
(372.85,290.53,o),
(375.66,291.19,cs),
(384.69,293.3,o),
(385.1,294.14,o),
(384.18,303.42,cs),
(383.5,310.42,o),
(382.05,317.32,o),
(382.18,324.44,cs),
(382.37,335.44,o),
(380.71,337.05,o),
(369.99,335.62,cs),
(359.51,334.22,o),
(349.01,332.7,o),
(338.41,333.15,cs),
(328.49,333.57,o),
(318.65,334.46,o),
(310.62,341.6,cs),
(307.25,344.58,o),
(302.83,345.94,o),
(298.51,347.28,cs),
(296.54,347.89,o),
(294.06,347.8,o),
(293.25,350.15,c),
(295.57,357.38,o),
(301.36,351,o),
(305.27,353.78,c),
(307.45,359.1,o),
(305.72,364.68,o),
(304.5,370.22,cs),
(303.92,372.83,o),
(303.31,375.19,o),
(305.4,377.38,cs),
(309.27,381.48,o),
(313.11,385.61,o),
(317.14,389.94,c),
(319.99,384.89,o),
(321.25,378.84,o),
(320.9,371.79,cs),
(320.66,366.69,o),
(320,361.52,o),
(323.24,356.92,cs),
(327.11,351.4,o),
(331.93,351.23,o),
(335.39,356.92,cs),
(339.1,363.05,o),
(340.68,369.99,o),
(341.18,377.08,cs),
(341.47,380.84,o),
(340.18,384.35,o),
(336.03,385.23,cs),
(332.27,386,o),
(331.8,388.86,o),
(331.24,391.59,cs),
(329.74,398.8,o),
(333.21,403.74,o),
(342.21,407.22,c),
(349.02,401.51,o),
(355.98,395.64,o),
(363.28,389.53,c),
(356.55,384.29,o),
(354.36,391.19,o),
(350.36,392.85,c),
(347.1,390.32,o),
(345.02,387.12,o),
(344.73,383.14,cs),
(344.23,375.99,o),
(351.18,373.4,o),
(354.34,368.56,c),
(352.03,361.08,o),
(346.1,354.46,o),
(349.57,346.19,c),
(354.59,344.48,o),
(358.25,345.69,o),
(361.49,348.92,cs),
(366.52,353.94,o),
(372.28,357.86,o),
(378.85,360.69,cs),
(381.75,361.93,o),
(384.22,364.16,o),
(386.95,365.85,cs),
(391.63,368.75,o),
(393.13,372.5,o),
(391.68,378.08,cs),
(391.74,378.02,ls),
(388.77,389.47,o),
(386.53,401.13,o),
(383.69,412.63,cs),
(382.64,416.89,o),
(382.37,421.57,o),
(378.54,425.68,c),
(371.14,425.86,o),
(363.15,426.1,o),
(355.89,430.1,cs),
(354.63,430.79,o),
(352.74,430.55,o),
(351.15,430.44,cs),
(341.88,429.79,o),
(332.62,428.97,o),
(323.33,428.41,cs),
(319.01,428.15,o),
(316.59,426.2,o),
(314.6,422.26,cs),
(305.08,403.44,o),
(292.05,387.16,o),
(276.47,373.15,cs),
(259.07,357.49,o),
(239.74,345.12,o),
(215.37,343.21,cs),
(209.97,342.79,o),
(204.64,341.36,o),
(199.29,340.34,cs),
(189.14,338.44,o),
(179.03,336.26,o),
(168.95,334.05,c),
(169.03,337.16,l),
(166.43,347.06,o),
(156.47,348.16,o),
(149.82,353.5,c),
(151.58,357.29,o),
(153.27,360.94,o),
(154.85,364.37,c),
(164.8,364.4,o),
(172.8,361.79,o),
(177.53,352.69,cs),
(178.53,350.74,o),
(180.24,349.13,o),
(181.76,347.46,cs),
(186.41,342.35,o),
(188.92,341.65,o),
(195.29,344.23,cs),
(202.53,347.17,o),
(208.39,352.2,o),
(214.11,357.38,cs),
(217.34,360.3,o),
(220.48,363.32,o),
(223.67,366.3,c),
(225.4,364.38,o),
(224.48,362.01,o),
(224.93,359.91,cs),
(225.75,356.22,o),
(227.96,354.18,o),
(231.62,354.33,cs),
(235.83,354.49,o),
(237.85,357.27,o),
(238.17,361.27,cs),
(238.57,366.17,o),
(236.25,369.92,o),
(232.81,373.08,cs),
(227.89,377.61,o),
(221.78,380.71,o),
(217.7,386.35,cs),
(216.02,388.69,o),
(212.65,389,o),
(209.73,387.8,cs),
(206.76,386.59,o),
(206.54,384.06,o),
(207.05,381.36,cs),
(207.57,378.68,o),
(206.39,377.39,o),
(203.44,376.26,c),
(202.44,383.74,o),
(203.44,390.13,o),
(206.67,396.97,c),
(213.3,392.12,o),
(215.38,397.08,o),
(217.09,403.2,c),
(218.14,401.12,o),
(218.61,400.35,o),
(218.94,399.52,cs),
(220.25,396.39,o),
(222.54,394.76,o),
(225.73,396.31,cs),
(228.65,397.73,o),
(229.1,400.1,o),
(228.13,403.54,cs),
(224.84,415.23,o),
(226.97,418.52,o),
(238.99,421.94,cs),
(244.68,423.55,o),
(248.3,429.18,o),
(247.43,434.99,cs),
(246.74,439.57,o),
(244.14,441.1,o),
(237.32,441.38,cs),
(232.64,441.57,o),
(227.82,440.22,o),
(222.67,442.49,c),
(222.22,454.33,o),
(221.09,466.02,o),
(227.88,478.18,c),
(216.78,480.92,o),
(205.88,477.6,o),
(195.57,480.74,c),
(199.02,485.74,o),
(203.49,485.56,o),
(208.05,484,c),
(209,485.61,o),
(209.79,486.65,o),
(210.26,487.81,cs),
(211.31,490.52,o),
(212.42,493.37,o),
(209.34,495.58,cs),
(206.79,497.43,o),
(204.44,495.97,o),
(202.19,494.77,cs),
(198.48,492.8,o),
(195.85,489.51,o),
(193.22,487.04,c),
(178.56,491.12,o),
(170.24,480.18,o),
(158.3,472.64,c),
(162.36,479.48,o),
(166.7,483.17,o),
(170.49,487.33,cs),
(174.18,491.36,o),
(179.6,493.88,o),
(182.78,500.99,c),
(169.38,495.04,o),
(158,489.04,o),
(150.59,478.39,cs),
(144.96,470.33,o),
(136.69,465.92,o),
(129.3,457.99,c),
(130.38,464.1,o),
(132.24,468.67,o),
(129.77,474.02,c),
(121.19,468.39,o),
(118.69,459.6,o),
(115.03,451.66,cs),
(113.16,447.63,o),
(113.37,443.56,o),
(116.03,439.8,cs),
(118.32,436.56,o),
(119.69,433.09,o),
(118.66,429.11,c),
(113.76,425.79,o),
(106.64,427.55,o),
(102.03,421.72,c),
(108.39,418.77,o),
(113.92,423.43,o),
(120.01,421.51,c),
(120.77,412.27,o),
(121.72,402.49,o),
(117.35,394.35,cs),
(110.48,381.58,o),
(105.04,368.32,o),
(100.06,354.78,cs),
(99.08,352.15,o),
(98.87,348.65,o),
(95.91,347.57,cs),
(91.86,346.09,o),
(91.1,342.68,o),
(89.96,339.44,cs),
(87.54,332.57,o),
(85.25,325.63,o),
(82.98,318.91,c),
(74.21,317.44,o),
(66.38,319.65,o),
(58.45,320.41,cs),
(52.42,320.99,o),
(52,320.94,o),
(51,314.89,cs),
(48.94,302.37,o),
(50.24,289.95,o),
(52.77,277.65,cs),
(54.56,268.83,o),
(59.46,263.62,o),
(68.64,260.73,cs),
(91.91,253.39,o),
(113.79,242.66,o),
(134.92,230.41,cs),
(140.44,227.22,o),
(143.15,223.1,o),
(144.15,216.89,cs),
(145.65,207.74,o),
(147.89,198.71,o),
(150.01,189.66,cs),
(150.72,186.66,o),
(150.72,183.21,o),
(154.2,181.03,c),
(162.54,181.47,o),
(164.83,191.14,o),
(171.97,193.89,c),
(176.23,184.53,o),
(174,176.53,o),
(168.73,169.03,cs),
(164.62,163.19,o),
(159.21,158.64,o),
(153.5,154.48,cs),
(144.14,147.67,o),
(134.02,142.14,o),
(124.08,136.27,cs),
(117.61,132.43,o),
(110.89,129.95,o),
(103.31,129.56,cs),
(99.28,129.35,o),
(95.08,129,o),
(92.54,126.82,c),
(90.62,123.22,o),
(94.73,122.63,o),
(93.88,119.79,c),
(87.9,116.63,o),
(81.65,113.39,o),
(75.44,110.06,cs),
(65.13,104.56,o),
(63.89,98.88,o),
(71.02,89.3,cs),
(73.89,85.45,o),
(77.05,81.8,o),
(79.97,77.98,cs),
(82.86,74.21,o),
(86.1,70.66,o),
(88.68,63.79,cs),
(88.68,63.76,ls),
(82.5,67.26,o),
(78.41,69.68,o),
(74.21,71.91,cs),
(70.53,73.86,o),
(66.81,75.8,o),
(62.53,76.14,cs),
(55.92,76.66,o),
(53.05,73.4,o),
(54.16,66.82,cs),
(55.27,60.35,o),
(58.51,55.53,o),
(64.74,53.03,cs),
(68.59,51.47,o),
(72.48,50,o),
(76.37,48.48,cs),
(87.24,44.24,o),
(95.76,37.33,o),
(101.02,26.75,cs),
(102.87,23.04,o),
(104.84,19.33,o),
(106.29,15.46,cs),
(107.9,11.17,o),
(110.95,8.31,o),
(115,7.09,cs),
(126.65,3.61,o),
(138.32,0.01,o),
(150.21,-2.52,cs)
);
}
);
width = 442;
}
);
note = numbersign;
unicode = 35;
},
{
glyphname = dollar;
lastChange = "2024-09-22 23:14:15 +0000";
layers = (
{
layerId = m01;
shapes = (
{
closed = 1;
nodes = (
(107,35,o),
(122,35,o),
(136,45,cs),
(149,54,o),
(162,63,o),
(174,73,cs),
(198,93,o),
(222,113,o),
(247,133,cs),
(251,136,o),
(255,138,o),
(260,139,cs),
(277,140,o),
(293,146,o),
(306,157,cs),
(320,168,o),
(335,178,o),
(350,188,cs),
(356,193,o),
(363,199,o),
(369,205,cs),
(379,215,o),
(384,227,o),
(380,242,cs),
(379,248,o),
(381,251,o),
(385,254,cs),
(397,261,o),
(408,268,o),
(418,277,cs),
(419,278,o),
(420,278,o),
(419,280,c),
(417,282,o),
(416,284,o),
(413,285,c),
(401,277,o),
(390,268,o),
(377,261,c),
(375,265,o),
(374,269,o),
(373,273,c),
(375,275,o),
(377,277,o),
(379,278,cs),
(400,296,o),
(422,314,o),
(444,333,cs),
(451,338,o),
(457,344,o),
(464,351,cs),
(465,352,o),
(467,353,o),
(466,355,c),
(465,355,o),
(464,356,o),
(464,355,cs),
(464,355,ls),
(461,354,o),
(458,352,o),
(455,351,cs),
(424,330,o),
(395,307,o),
(366,283,c),
(363,288,l),
(363,288,o),
(363,288,o),
(363,288,c),
(362,294,o),
(364,296,o),
(368,299,cs),
(383,307,o),
(395,319,o),
(407,330,cs),
(409,332,o),
(412,333,o),
(410,337,c),
(405,336,o),
(405,337,o),
(403,335,cs),
(390,325,o),
(377,314,o),
(366,303,cs),
(364,301,o),
(363,299,o),
(360,299,c),
(357,304,o),
(352,308,o),
(348,312,c),
(350,315,o),
(352,317,o),
(355,320,cs),
(363,328,o),
(372,336,o),
(380,345,cs),
(382,347,o),
(385,349,o),
(382,353,cs),
(379,356,o),
(376,354,o),
(373,353,cs),
(368,349,o),
(363,345,o),
(358,340,cs),
(351,333,o),
(344,326,o),
(337,318,c),
(312,332,l),
(321,341,o),
(328,350,o),
(329,355,c),
(319,350,o),
(313,342,o),
(305,336,c),
(299,337,o),
(293,339,o),
(286,341,c),
(294,351,o),
(302,361,o),
(309,371,c),
(308,374,o),
(307,378,o),
(304,380,c),
(294,367,o),
(284,355,o),
(275,343,c),
(250,352,o),
(235,348,o),
(219,328,cs),
(217,326,o),
(215,323,o),
(213,320,cs),
(200,302,o),
(188,284,o),
(175,265,cs),
(172,261,o),
(169,257,o),
(171,252,cs),
(173,245,o),
(169,241,o),
(165,237,cs),
(162,235,o),
(160,233,o),
(157,231,c),
(156,231,o),
(155,232,o),
(154,233,cs),
(142,243,o),
(130,239,o),
(119,231,cs),
(115,229,o),
(112,225,o),
(109,222,cs),
(100,212,o),
(92,200,o),
(85,189,cs),
(75,173,o),
(75,171,o),
(90,159,c),
(81,149,o),
(72,139,o),
(64,128,cs),
(63,128,o),
(62,127,o),
(62,126,cs),
(54,122,o),
(51,115,o),
(51,107,cs),
(48,86,o),
(55,68,o),
(73,54,cs),
(79,50,o),
(85,45,o),
(91,42,cs)
);
},
{
closed = 1;
nodes = (
(330,398,o),
(338,408,o),
(346,418,cs),
(346,418,ls),
(344,421,o),
(343,423,o),
(340,424,c),
(334,418,o),
(329,411,o),
(323,405,cs),
(318,400,o),
(317,395,o),
(322,387,c)
);
},
{
closed = 1;
nodes = (
(444,298,o),
(452,305,o),
(461,311,c),
(453,315,o),
(453,316,o),
(448,312,cs),
(442,307,o),
(436,302,o),
(429,297,c),
(431,294,o),
(432,291,o),
(436,291,c)
);
},
{
closed = 1;
nodes = (
(356,433,ls),
(363,440,o),
(367,448,o),
(371,457,c),
(364,452,o),
(358,447,o),
(353,440,cs),
(351,437,o),
(354,435,o),
(356,433,cs)
);
},
{
closed = 1;
nodes = (
(364,385,o),
(367,387,o),
(370,390,cs),
(388,407,o),
(405,425,o),
(422,443,cs),
(427,448,o),
(431,454,o),
(434,460,c),
(427,459,o),
(423,455,o),
(419,451,cs),
(398,433,o),
(378,414,o),
(358,394,cs),
(357,393,o),
(356,392,o),
(355,390,cs),
(354,389,o),
(353,387,o),
(355,385,cs),
(356,383,o),
(358,383,o),
(361,383,cs)
);
},
{
closed = 1;
nodes = (
(493,337,o),
(500,342,o),
(507,348,cs),
(509,350,o),
(511,351,o),
(513,356,c),
(499,349,o),
(488,341,o),
(477,332,c),
(480,329,o),
(483,328,o),
(486,331,cs)
);
},
{
closed = 1;
nodes = (
(441,402,o),
(452,414,o),
(464,426,c),
(458,427,o),
(458,427,o),
(456,425,cs),
(445,415,o),
(434,406,o),
(427,393,c)
);
},
{
closed = 1;
nodes = (
(478,384,o),
(493,396,o),
(508,410,c),
(496,409,o),
(470,388,o),
(462,374,c)
);
}
);
width = 563;
}
);
note = dollar;
unicode = 36;
},
{
glyphname = percent;
lastChange = "2024-09-22 23:10:28 +0000";
layers = (
{
layerId = m01;
shapes = (
{
closed = 1;
nodes = (
(483,10,o),
(499,30,o),
(503,41,c),
(524,46,o),
(533,44,o),
(548,37,c),
(548,43,o),
(546,48,o),
(542,51,cs),
(532,59,o),
(521,57,o),
(508,55,c),
(510,69,o),
(512,82,o),
(513,94,cs),
(515,139,o),
(495,173,o),
(453,190,cs),
(405,211,o),
(359,204,o),
(317,173,cs),
(314,171,o),
(311,168,o),
(308,167,c),
(308,167,o),
(266,208,o),
(270,250,cs),
(277,316,o),
(336,347,o),
(336,348,c),
(331,352,o),
(283,347,o),
(264,339,cs),
(230,326,o),
(207,303,o),
(196,269,cs),
(192,256,o),
(189,244,o),
(188,231,cs),
(185,201,o),
(195,168,o),
(211,141,c),
(190,135,l),
(178,179,o),
(140,193,o),
(124,193,cs),
(108,192,o),
(88,185,o),
(74,167,c),
(87,175,o),
(118,187,o),
(137,170,cs),
(156,153,o),
(152,129,o),
(150,120,c),
(133,108,o),
(118,89,o),
(119,74,c),
(147,97,o),
(178,110,o),
(215,107,cs),
(253,103,o),
(280,83,o),
(300,51,c),
(305,61,o),
(305,70,o),
(305,79,cs),
(305,89,o),
(301,97,o),
(298,106,c),
(302,110,o),
(306,115,o),
(310,118,cs),
(340,144,o),
(374,159,o),
(415,151,cs),
(426,149,o),
(436,145,o),
(444,138,cs),
(456,128,o),
(464,116,o),
(470,102,cs),
(479,79,o),
(482,55,o),
(479,31,cs),
(474,0,l)
);
},
{
closed = 1;
nodes = (
(57,296,o),
(60,299,o),
(60,302,cs),
(60,305,o),
(58,307,o),
(55,307,cs),
(52,307,o),
(50,304,o),
(50,301,cs),
(50,299,o),
(51,297,o),
(54,296,c)
);
},
{
closed = 1;
nodes = (
(144,239,o),
(146,241,o),
(146,244,c),
(145,247,o),
(144,250,o),
(141,249,c),
(138,249,o),
(136,247,o),
(136,244,cs),
(136,241,o),
(138,239,o),
(141,239,cs)
);
},
{
closed = 1;
nodes = (
(138,277,o),
(139,279,o),
(139,281,cs),
(138,292,l),
(135,315,ls),
(134,325,o),
(138,332,o),
(147,337,cs),
(152,339,o),
(158,341,o),
(163,343,cs),
(166,344,o),
(170,345,o),
(169,349,cs),
(168,354,o),
(164,352,o),
(161,351,cs),
(157,350,l),
(134,346,ls),
(127,345,o),
(123,347,o),
(121,353,c),
(118,358,o),
(108,384,o),
(103,386,c),
(102,379,o),
(104,374,o),
(106,368,c),
(106,365,o),
(109,361,o),
(108,357,cs),
(105,343,o),
(104,327,o),
(89,319,c),
(87,317,o),
(86,315,o),
(87,312,c),
(89,309,o),
(92,310,o),
(94,311,cs),
(98,312,o),
(100,315,o),
(103,317,cs),
(113,324,o),
(120,321,o),
(124,310,c),
(125,304,o),
(126,299,o),
(127,294,cs),
(130,280,l),
(131,278,o),
(132,277,o),
(135,277,cs)
);
},
{
closed = 1;
nodes = (
(102,399,o),
(104,402,o),
(104,405,cs),
(104,408,o),
(102,410,o),
(99,410,cs),
(95,410,o),
(93,408,o),
(93,405,cs),
(93,402,o),
(95,399,o),
(99,399,cs)
);
},
{
closed = 1;
nodes = (
(195,347,o),
(198,349,o),
(198,352,cs),
(199,358,o),
(195,358,o),
(190,359,c),
(189,355,o),
(187,351,o),
(192,348,c)
);
},
{
closed = 1;
nodes = (
(422,272,o),
(425,275,o),
(425,278,c),
(424,281,o),
(423,283,o),
(420,282,c),
(415,282,o),
(410,278,o),
(411,275,cs),
(412,272,o),
(414,271,o),
(417,272,c)
);
},
{
closed = 1;
nodes = (
(450,198,o),
(451,203,o),
(453,206,cs),
(455,210,ls),
(465,227,o),
(477,242,o),
(499,242,cs),
(501,242,o),
(504,243,o),
(504,245,c),
(505,248,o),
(504,250,o),
(502,251,c),
(492,259,o),
(491,271,o),
(492,283,cs),
(493,292,o),
(495,302,o),
(499,311,cs),
(500,314,o),
(502,317,o),
(497,322,c),
(489,313,o),
(484,302,o),
(476,293,cs),
(468,284,o),
(459,277,o),
(448,272,c),
(446,272,o),
(445,275,o),
(442,274,c),
(444,268,o),
(448,263,o),
(449,257,cs),
(452,241,o),
(451,225,o),
(444,211,cs),
(442,207,o),
(441,203,o),
(445,200,c)
);
},
{
closed = 1;
nodes = (
(535,232,o),
(538,236,o),
(537,239,c),
(537,242,o),
(536,244,o),
(533,244,cs),
(529,244,o),
(529,241,o),
(528,238,c),
(528,235,o),
(530,233,o),
(533,233,c)
);
},
{
closed = 1;
nodes = (
(512,333,o),
(517,334,o),
(518,341,cs),
(518,343,o),
(517,346,o),
(515,347,cs),
(512,348,o),
(510,347,o),
(509,345,c),
(507,343,o),
(504,341,o),
(505,337,c)
);
}
);
width = 598;
}
);
note = percent;
unicode = 37;
},
{
glyphname = ampersand;
lastChange = "2024-09-22 23:11:59 +0000";
layers = (
{
layerId = m01;
shapes = (
{
closed = 1;
nodes = (
(402,34,o),
(404,39,o),
(405,45,cs),
(407,54,o),
(407,63,o),
(404,72,cs),
(400,90,o),
(396,107,o),
(393,125,cs),
(387,158,o),
(378,192,o),
(384,225,cs),
(397,291,o),
(483,357,o),
(487,358,c),
(480,339,o),
(480,321,o),
(488,304,cs),
(497,284,o),
(494,266,o),
(485,248,cs),
(480,240,o),
(475,232,o),
(470,225,cs),
(466,217,o),
(470,210,o),
(478,210,cs),
(483,210,o),
(487,211,o),
(491,213,cs),
(558,239,o),
(589,295,o),
(586,361,cs),
(585,375,o),
(566,394,o),
(551,397,cs),
(537,400,o),
(521,399,o),
(506,387,c),
(505,389,o),
(505,398,o),
(505,401,cs),
(505,405,o),
(501,416,o),
(489,419,cs),
(477,421,o),
(466,418,o),
(455,413,cs),
(442,406,o),
(431,397,o),
(420,387,cs),
(413,380,l),
(412,381,l),
(422,398,ls),
(434,416,o),
(447,435,o),
(455,456,cs),
(462,472,o),
(464,487,o),
(450,501,cs),
(442,508,o),
(434,510,o),
(425,508,cs),
(418,507,o),
(412,503,o),
(406,499,cs),
(389,487,o),
(374,474,o),
(359,459,cs),
(357,457,o),
(355,454,o),
(351,453,c),
(338,465,o),
(322,466,o),
(305,464,cs),
(294,462,o),
(283,459,o),
(274,454,cs),
(249,442,o),
(228,424,o),
(211,402,c),
(210,400,o),
(209,397,o),
(206,396,c),
(205,398,o),
(206,400,o),
(207,401,c),
(211,413,o),
(215,424,o),
(218,436,cs),
(221,447,o),
(222,458,o),
(221,469,cs),
(219,485,o),
(201,506,o),
(182,506,cs),
(171,505,o),
(160,505,o),
(149,502,cs),
(113,491,o),
(86,467,o),
(69,434,cs),
(58,414,o),
(52,391,o),
(51,368,cs),
(47,325,o),
(58,286,o),
(85,251,cs),
(94,239,o),
(105,230,o),
(119,224,cs),
(122,223,o),
(124,221,o),
(126,219,cs),
(137,211,o),
(148,205,o),
(161,203,cs),
(170,201,o),
(177,203,o),
(183,210,c),
(185,211,o),
(186,215,o),
(189,215,c),
(190,212,o),
(190,210,o),
(190,208,cs),
(193,188,o),
(199,169,o),
(211,153,c),
(214,147,o),
(219,143,o),
(225,141,cs),
(232,138,o),
(236,139,o),
(241,145,cs),
(245,150,o),
(247,156,o),
(249,163,cs),
(250,165,o),
(251,168,o),
(254,170,c),
(254,157,ls),
(254,144,o),
(256,133,o),
(259,121,cs),
(263,106,o),
(272,95,o),
(284,86,cs),
(295,77,o),
(307,81,o),
(312,94,cs),
(314,99,o),
(315,104,o),
(315,109,cs),
(317,129,l),
(320,125,o),
(320,122,o),
(321,119,cs),
(332,87,o),
(347,58,o),
(371,34,cs),
(379,26,o),
(388,24,o),
(396,30,cs)
);
},
{
closed = 1;
nodes = (
(453,-13,o),
(459,-11,o),
(463,-5,cs),
(465,-1,o),
(467,3,o),
(467,8,c),
(469,19,l),
(480,15,o),
(490,10,o),
(501,8,c),
(501,7,o),
(501,7,o),
(501,6,c),
(498,2,o),
(496,-1,o),
(500,-5,cs),
(504,-9,o),
(508,-9,o),
(513,-7,cs),
(520,-4,o),
(524,2,o),
(525,9,cs),
(525,18,o),
(529,25,o),
(534,31,cs),
(546,47,ls),
(551,53,o),
(555,60,o),
(557,68,cs),
(558,73,o),
(559,78,o),
(558,84,cs),
(556,92,o),
(550,98,o),
(543,98,c),
(544,95,o),
(547,92,o),
(548,89,c),
(551,84,o),
(552,80,o),
(550,74,cs),
(547,61,o),
(539,51,o),
(530,41,c),
(518,63,o),
(501,77,o),
(477,82,c),
(478,88,o),
(481,92,o),
(484,97,cs),
(496,113,ls),
(499,118,o),
(498,124,o),
(495,127,cs),
(491,130,o),
(487,128,o),
(484,125,cs),
(477,119,o),
(469,120,o),
(462,120,c),
(459,122,o),
(460,125,o),
(459,127,cs),
(456,134,o),
(452,137,o),
(447,136,cs),
(442,136,o),
(439,131,o),
(439,124,cs),
(439,122,o),
(441,119,o),
(439,117,cs),
(436,115,o),
(432,113,o),
(428,112,c),
(425,117,o),
(425,124,o),
(420,128,c),
(419,122,o),
(424,117,o),
(422,111,c),
(417,115,o),
(416,122,o),
(409,127,c),
(411,117,o),
(419,112,o),
(422,103,c),
(416,104,o),
(414,108,o),
(410,109,c),
(412,104,o),
(418,103,o),
(421,98,c),
(419,90,o),
(429,87,o),
(433,75,cs),
(437,62,o),
(433,43,o),
(431,31,c),
(426,30,l),
(423,28,o),
(421,26,o),
(421,23,cs),
(421,18,o),
(424,17,o),
(428,15,cs),
(435,13,o),
(441,16,o),
(444,23,cs),
(446,27,o),
(446,32,o),
(449,37,c),
(451,23,l),
(451,16,o),
(451,9,o),
(444,5,cs),
(440,3,o),
(439,0,o),
(440,-4,cs),
(441,-8,o),
(444,-10,o),
(448,-12,c)
);
},
{
closed = 1;
nodes = (
(465,172,o),
(473,188,o),
(471,198,cs),
(470,207,o),
(465,212,o),
(462,215,cs),
(455,221,o),
(439,220,o),
(432,213,cs),
(421,204,o),
(418,193,o),
(421,180,cs),
(424,164,o),
(440,156,o),
(454,165,cs)
);
}
);
width = 636;
}
);
note = ampersand;
unicode = 38;
},
{
glyphname = parenleft;
lastChange = "2024-09-22 23:36:10 +0000";
layers = (
{
layerId = m01;
shapes = (
{
closed = 1;
nodes = (
(154,-29,o),
(161,-23,o),
(162,-12,cs),
(164,4,o),
(169,19,o),
(173,34,cs),
(177,46,o),
(183,56,o),
(192,66,c),
(196,64,o),
(200,63,o),
(204,66,cs),
(210,71,o),
(214,76,o),
(215,83,cs),
(216,93,o),
(217,103,o),
(216,112,cs),
(216,129,o),
(223,142,o),
(234,153,cs),
(243,161,o),
(254,159,o),
(261,149,cs),
(267,140,o),
(272,130,o),
(275,120,c),
(275,119,o),
(275,118,o),
(275,117,c),
(272,115,ls),
(270,114,o),
(269,113,o),
(269,111,c),
(267,104,l),
(268,92,o),
(271,81,o),
(275,69,c),
(277,66,o),
(279,64,o),
(282,63,cs),
(288,61,o),
(288,57,o),
(289,52,cs),
(289,47,o),
(287,42,o),
(284,38,cs),
(276,26,ls),
(271,19,o),
(272,12,o),
(277,5,cs),
(283,-3,o),
(290,-9,o),
(298,-14,cs),
(302,-16,o),
(307,-17,o),
(311,-15,cs),
(331,-6,l),
(334,-4,o),
(336,-1,o),
(335,3,cs),
(330,23,o),
(325,43,o),
(318,63,c),
(331,73,o),
(331,86,o),
(330,101,cs),
(329,109,o),
(327,117,o),
(318,120,c),
(316,135,o),
(313,150,o),
(309,164,cs),
(308,168,o),
(309,170,o),
(312,173,cs),
(324,184,l),
(329,191,o),
(329,193,o),
(324,200,cs),
(304,227,ls),
(299,235,o),
(295,243,o),
(295,252,cs),
(293,271,o),
(293,290,o),
(291,309,c),
(291,309,o),
(292,310,o),
(292,311,c),
(307,318,o),
(323,323,o),
(341,325,c),
(341,318,o),
(347,318,o),
(352,318,c),
(350,298,l),
(339,295,o),
(339,295,o),
(337,284,cs),
(336,277,o),
(336,270,o),
(336,264,c),
(328,259,ls),
(319,254,o),
(318,249,o),
(325,241,cs),
(331,233,o),
(335,225,o),
(339,215,cs),
(341,209,l),
(345,203,o),
(347,202,o),
(354,203,cs),
(359,204,o),
(364,206,o),
(369,207,cs),
(373,208,o),
(377,210,o),
(379,215,c),
(383,205,o),
(387,198,o),
(388,189,cs),
(391,160,o),
(389,131,o),
(382,102,cs),
(379,88,o),
(374,74,o),
(369,60,c),
(390,41,o),
(405,18,o),
(411,-9,c),
(414,-8,o),
(415,-6,o),
(416,-4,cs),
(425,14,o),
(431,32,o),
(434,52,cs),
(436,75,o),
(434,97,o),
(432,119,cs),
(428,150,o),
(422,181,o),
(410,211,cs),
(409,214,o),
(407,218,o),
(408,222,c),
(411,223,o),
(413,223,o),
(415,220,c),
(416,217,l),
(420,210,o),
(425,209,o),
(430,217,cs),
(433,221,o),
(434,225,o),
(435,230,c),
(435,237,o),
(432,241,o),
(425,243,cs),
(420,244,o),
(415,245,o),
(409,244,cs),
(406,244,o),
(403,242,o),
(400,244,c),
(398,248,o),
(399,252,o),
(402,255,cs),
(404,258,o),
(407,261,o),
(407,265,cs),
(408,274,o),
(404,282,o),
(400,289,c),
(398,295,o),
(393,295,o),
(388,297,c),
(388,309,ls),
(388,324,o),
(384,338,o),
(378,351,cs),
(376,356,o),
(373,358,o),
(368,359,cs),
(348,364,o),
(328,363,o),
(307,360,c),
(298,380,l),
(304,387,o),
(311,393,o),
(310,403,c),
(314,404,o),
(318,404,o),
(323,403,cs),
(334,402,o),
(341,408,o),
(346,417,cs),
(353,429,o),
(356,442,o),
(358,455,cs),
(358,459,o),
(358,462,o),
(355,465,c),
(347,459,o),
(340,451,o),
(329,448,c),
(324,453,o),
(318,456,o),
(311,459,c),
(310,468,l),
(321,477,o),
(323,484,o),
(315,493,cs),
(303,508,o),
(287,517,o),
(271,527,cs),
(270,528,o),
(268,529,o),
(266,527,c),
(264,526,o),
(264,524,o),
(265,521,cs),
(266,517,o),
(267,513,o),
(268,509,cs),
(269,501,o),
(264,496,o),
(256,495,cs),
(243,495,o),
(235,503,o),
(237,516,cs),
(238,519,o),
(240,523,o),
(238,527,c),
(218,519,o),
(201,508,o),
(185,493,cs),
(178,485,ls),
(176,482,o),
(174,479,o),
(176,475,cs),
(177,473,o),
(179,472,o),
(181,471,c),
(174,465,l),
(171,467,o),
(168,470,o),
(167,475,cs),
(167,481,o),
(168,487,o),
(168,494,cs),
(168,496,o),
(169,499,o),
(166,501,c),
(165,500,o),
(164,500,o),
(164,500,c),
(152,484,o),
(141,467,o),
(132,448,c),
(124,454,o),
(116,456,o),
(107,453,c),
(101,461,ls),
(97,466,o),
(93,469,o),
(87,471,cs),
(79,474,o),
(70,471,o),
(67,463,cs),
(66,459,o),
(67,456,o),
(70,453,cs),
(72,451,o),
(74,450,o),
(77,451,cs),
(79,452,o),
(79,454,o),
(80,457,c),
(80,460,o),
(78,463,o),
(80,466,c),
(88,465,o),
(93,462,o),
(98,454,cs),
(102,449,o),
(100,445,o),
(98,440,cs),
(96,436,o),
(95,431,o),
(95,427,cs),
(94,420,o),
(95,413,o),
(95,406,c),
(88,405,o),
(83,399,o),
(80,392,cs),
(78,386,o),
(83,379,o),
(90,375,c),
(89,382,o),
(94,387,o),
(99,391,cs),
(105,395,o),
(110,393,o),
(117,391,c),
(111,382,o),
(106,374,o),
(102,365,cs),
(99,360,o),
(97,354,o),
(97,347,cs),
(97,340,o),
(100,336,o),
(107,334,cs),
(111,332,o),
(115,332,o),
(119,332,cs),
(124,332,o),
(129,334,o),
(134,333,c),
(132,329,o),
(129,326,o),
(129,321,cs),
(130,316,o),
(135,314,o),
(137,311,c),
(134,306,o),
(129,305,o),
(127,300,c),
(130,293,o),
(137,289,o),
(141,283,c),
(134,276,o),
(126,272,o),
(118,267,cs),
(112,263,o),
(106,259,o),
(101,254,cs),
(93,247,o),
(94,243,o),
(101,237,cs),
(109,231,o),
(117,226,o),
(126,222,cs),
(147,213,l),
(143,205,o),
(144,199,o),
(151,195,c),
(150,191,o),
(150,188,o),
(148,185,c),
(139,185,o),
(137,184,o),
(136,179,cs),
(134,174,o),
(136,170,o),
(141,166,c),
(145,164,ls),
(151,162,o),
(157,159,o),
(163,156,c),
(168,152,o),
(171,153,o),
(175,159,cs),
(177,162,o),
(179,165,o),
(183,167,c),
(185,159,o),
(181,153,o),
(179,146,c),
(171,147,o),
(164,147,o),
(157,146,cs),
(151,145,o),
(147,142,o),
(145,136,cs),
(140,122,ls),
(139,118,o),
(136,114,o),
(137,109,cs),
(138,102,ls),
(139,97,o),
(141,94,o),
(143,91,cs),
(145,89,o),
(146,87,o),
(145,85,cs),
(141,73,o),
(135,63,o),
(127,52,c),
(123,63,ls),
(121,69,o),
(119,75,o),
(115,80,cs),
(107,91,o),
(93,93,o),
(81,85,cs),
(70,79,l),
(68,79,o),
(65,78,o),
(63,75,c),
(49,62,o),
(46,39,o),
(56,21,cs),
(62,11,o),
(70,3,o),
(81,-2,cs),
(92,-8,o),
(102,-14,o),
(113,-21,cs),
(122,-28,o),
(132,-31,o),
(143,-30,cs)
);
},
{
closed = 1;
nodes = (
(184,238,ls),
(180,242,o),
(176,244,o),
(171,241,c),
(168,242,o),
(152,247,o),
(153,254,cs),
(154,260,o),
(173,269,o),
(179,275,c),
(197,228,l),
(195,227,l)
);
}
);
width = 485;
}
);
note = parenleft;
unicode = 40;
},
{
glyphname = parenright;
lastChange = "2024-09-22 23:29:01 +0000";
layers = (
{
layerId = m01;
shapes = (
{
closed = 1;
nodes = (
(92,239,o),
(89,244,o),
(89,253,c),
(97,257,o),
(105,253,o),
(113,253,c),
(114,248,o),
(110,245,o),
(108,241,cs),
(101,229,l)
);
},
{
closed = 1;
nodes = (
(75,336,o),
(79,337,o),
(82,340,c),
(86,346,o),
(82,364,o),
(75,368,cs),
(73,369,o),
(71,369,o),
(69,368,c),
(67,366,o),
(67,364,o),
(68,363,c),
(68,361,o),
(69,360,o),
(70,359,c),
(73,359,o),
(70,363,o),
(74,364,c),
(81,358,o),
(80,351,o),
(78,343,c),
(74,342,o),
(71,344,o),
(69,346,cs),
(62,354,o),
(58,363,o),
(61,373,cs),
(64,386,o),
(73,394,o),
(85,397,cs),
(96,401,o),
(103,397,o),
(108,386,cs),
(109,383,o),
(109,379,o),
(112,377,c),
(114,395,o),
(101,406,o),
(84,402,cs),
(68,398,o),
(57,387,o),
(55,371,cs),
(53,359,o),
(59,345,o),
(69,340,cs)
);
},
{
closed = 1;
nodes = (
(74,402,o),
(77,404,o),
(77,408,cs),
(77,412,o),
(74,413,o),
(71,413,cs),
(67,413,o),
(66,411,o),
(66,408,cs),
(65,404,o),
(68,401,o),
(71,402,c)
);
},
{
closed = 1;
nodes = (
(89,482,o),
(90,484,o),
(90,486,cs),
(90,488,o),
(89,490,o),
(87,490,cs),
(85,490,o),
(84,488,o),
(83,486,c),
(83,484,o),
(84,483,o),
(86,482,c)
);
},
{
closed = 1;
nodes = (
(164,413,o),
(166,415,o),
(166,418,cs),
(166,420,o),
(165,421,o),
(163,422,c),
(160,422,o),
(158,421,o),
(158,417,cs),
(158,415,o),
(159,414,o),
(161,413,c)
);
},
{
closed = 1;
nodes = (
(141,406,o),
(141,407,o),
(141,408,cs),
(139,422,o),
(136,435,o),
(130,447,cs),
(123,463,o),
(120,479,o),
(121,496,cs),
(121,501,o),
(122,506,o),
(125,510,cs),
(129,515,o),
(135,515,o),
(138,511,cs),
(142,507,o),
(141,500,o),
(137,495,c),
(136,498,o),
(140,502,o),
(137,506,c),
(134,502,o),
(133,498,o),
(133,494,cs),
(133,491,o),
(133,489,o),
(136,488,cs),
(138,487,o),
(141,489,o),
(142,491,cs),
(145,496,o),
(146,501,o),
(145,507,cs),
(143,513,o),
(140,518,o),
(134,519,cs),
(129,519,o),
(123,516,o),
(120,510,cs),
(117,505,o),
(116,499,o),
(116,493,cs),
(115,478,o),
(118,463,o),
(124,450,cs),
(129,437,o),
(134,425,o),
(136,412,cs),
(137,409,o),
(137,406,o),
(140,405,c)
);
},
{
closed = 1;
nodes = (
(370,251,l),
(381,252,o),
(390,251,o),
(398,249,c),
(398,240,o),
(395,236,o),
(382,226,c)
);
},
{
closed = 1;
nodes = (
(167,458,o),
(164,467,o),
(171,474,c),
(164,480,o),
(159,487,o),
(153,494,c),
(152,487,o),
(151,481,o),
(147,476,cs),
(144,473,o),
(145,470,o),
(148,468,cs),
(153,465,o),
(155,460,o),
(158,456,cs),
(160,454,o),
(161,451,o),
(165,450,c)
);
},
{
closed = 1;
nodes = (
(256,423,o),
(258,425,o),
(259,427,c),
(259,428,o),
(261,429,o),
(260,431,c),
(258,433,o),
(256,433,o),
(254,431,cs),
(253,430,o),
(251,427,o),
(254,425,cs)
);
},
{
closed = 1;
nodes = (
(208,488,o),
(210,491,o),
(206,494,cs),
(204,495,o),
(201,494,o),
(201,491,c),
(199,487,o),
(202,485,o),
(206,484,c)
);
},
{
closed = 1;
nodes = (
(280,414,o),
(287,426,o),
(288,435,cs),
(289,439,o),
(288,442,o),
(286,445,cs),
(283,450,o),
(277,453,o),
(273,452,cs),
(268,450,o),
(266,444,o),
(268,438,cs),
(269,434,o),
(271,431,o),
(275,430,c),
(280,430,o),
(281,434,o),
(282,437,cs),
(283,441,l),
(280,439,o),
(278,437,o),
(276,435,c),
(275,435,o),
(274,436,o),
(273,437,c),
(271,442,o),
(271,447,o),
(274,448,cs),
(278,449,o),
(281,446,o),
(283,440,c),
(285,438,o),
(284,436,o),
(284,434,c),
(282,428,o),
(279,422,o),
(276,417,cs),
(274,414,o),
(272,412,o),
(271,408,c)
);
},
{
closed = 1;
nodes = (
(251,450,o),
(252,451,o),
(253,452,c),
(261,465,o),
(256,508,o),
(247,518,cs),
(244,522,o),
(241,524,o),
(236,524,cs),
(228,523,o),
(223,517,o),
(220,510,cs),
(217,503,o),
(217,495,o),
(222,489,cs),
(227,483,o),
(235,485,o),
(238,491,cs),
(239,494,o),
(239,496,o),
(239,499,cs),
(239,502,o),
(239,504,o),
(236,505,c),
(233,507,o),
(230,505,o),
(229,503,cs),
(228,502,o),
(227,501,o),
(228,501,c),
(230,499,o),
(232,502,o),
(235,500,c),
(235,496,l),
(234,493,o),
(233,490,o),
(229,490,cs),
(225,490,o),
(224,493,o),
(222,496,c),
(221,500,o),
(222,505,o),
(224,509,cs),
(226,514,o),
(230,519,o),
(237,518,cs),
(243,518,o),
(245,512,o),
(246,508,cs),
(250,493,o),
(252,479,o),
(252,464,cs),
(252,459,o),
(249,455,o),
(250,450,c)
);
},
{
closed = 1;
nodes = (
(328,388,o),
(335,400,o),
(344,410,c),
(340,415,o),
(339,421,o),
(339,427,cs),
(339,445,ls),
(339,447,o),
(339,450,o),
(335,451,c),
(326,441,o),
(320,428,o),
(305,420,c),
(310,405,o),
(316,391,o),
(320,373,c)
);
},
{
closed = 1;
nodes = (
(410,332,o),
(419,351,o),
(412,366,c),
(408,372,o),
(402,375,o),
(395,373,cs),
(386,370,o),
(380,365,o),
(377,355,c),
(381,356,o),
(382,360,o),
(384,361,cs),
(392,367,l),
(400,370,o),
(405,367,o),
(407,359,cs),
(409,350,o),
(406,342,o),
(399,336,c),
(395,334,o),
(391,330,o),
(388,334,cs),
(384,338,o),
(388,342,o),
(392,344,c),
(393,344,ls),
(395,344,o),
(394,340,o),
(397,341,c),
(398,344,o),
(398,347,o),
(395,349,cs),
(392,351,o),
(389,349,o),
(387,347,c),
(386,345,o),
(384,344,o),
(384,342,c),
(381,338,o),
(380,335,o),
(383,330,cs),
(385,327,o),
(390,326,o),
(395,327,cs)
);
},
{
closed = 1;
nodes = (
(304,464,l),
(306,471,o),
(310,477,o),
(315,483,c),
(309,493,o),
(303,502,o),
(302,514,cs),
(302,516,o),
(300,517,o),
(298,517,c),
(296,516,o),
(295,515,o),
(295,513,cs),
(294,505,o),
(291,499,o),
(287,493,cs),
(277,481,l),
(279,474,o),
(283,468,o),
(286,462,cs),
(289,456,o),
(288,447,o),
(295,443,c)
);
},
{
closed = 1;
nodes = (
(291,464,o),
(289,473,o),
(282,481,c),
(288,487,o),
(293,493,o),
(297,502,c),
(307,482,l),
(301,475,o),
(299,465,o),
(295,453,c)
);
},
{
closed = 1;
nodes = (
(299,407,o),
(300,410,o),
(300,413,cs),
(301,424,o),
(304,434,o),
(310,443,c),
(328,477,ls),
(333,487,o),
(337,498,o),
(337,509,c),
(338,513,o),
(338,517,o),
(336,521,cs),
(333,528,o),
(324,529,o),
(320,523,cs),
(316,518,o),
(315,508,o),
(318,502,cs),
(321,498,o),
(324,498,o),
(329,503,c),
(327,507,o),
(324,502,o),
(321,507,c),
(320,510,o),
(320,515,o),
(322,519,cs),
(323,521,o),
(324,523,o),
(326,523,cs),
(328,523,o),
(330,521,o),
(331,520,c),
(332,516,o),
(332,512,o),
(332,508,cs),
(331,497,o),
(327,487,o),
(323,477,c),
(305,445,l),
(302,441,o),
(299,436,o),
(298,431,cs),
(295,423,o),
(293,414,o),
(297,403,c)
);
},
{
closed = 1;
nodes = (
(381,397,o),
(384,398,o),
(386,401,c),
(392,407,o),
(395,424,o),
(391,432,cs),
(389,437,o),
(385,439,o),
(381,437,cs),
(375,435,o),
(370,428,o),
(370,420,c),
(374,425,o),
(376,431,o),
(383,432,c),
(389,424,o),
(387,415,o),
(384,407,cs),
(383,403,o),
(380,400,o),
(376,402,c),
(376,411,o),
(376,411,o),
(383,413,c),
(379,418,o),
(378,418,o),
(376,416,cs),
(373,413,o),
(371,409,o),
(370,404,cs),
(370,400,o),
(374,397,o),
(378,397,cs)
);
},
{
closed = 1;
nodes = (
(356,481,o),
(356,482,o),
(351,486,cs),
(349,487,o),
(348,490,o),
(344,489,c),
(343,484,o),
(345,480,o),
(349,477,c)
);
},
{
closed = 1;
nodes = (
(212,354,o),
(209,352,o),
(208,350,c),
(191,345,l),
(186,346,l),
(178,346,o),
(175,348,o),
(177,357,cs),
(180,367,l),
(186,379,o),
(183,391,o),
(182,403,cs),
(182,404,o),
(181,405,o),
(180,406,c),
(175,400,o),
(176,394,o),
(176,387,c),
(177,383,o),
(177,378,o),
(174,374,c),
(170,378,o),
(169,383,o),
(166,387,cs),
(163,390,o),
(164,397,o),
(156,398,c),
(157,388,o),
(156,379,o),
(150,371,c),
(157,365,o),
(159,356,o),
(165,349,c),
(167,360,o),
(161,367,o),
(156,374,c),
(157,376,o),
(157,378,o),
(160,380,c),
(163,375,o),
(167,370,o),
(171,366,c),
(168,356,o),
(167,347,o),
(175,340,c),
(171,332,l),
(170,329,l),
(165,332,o),
(159,331,o),
(153,330,cs),
(151,330,l),
(148,344,l),
(148,349,o),
(145,354,o),
(141,357,cs),
(135,361,o),
(133,367,o),
(133,373,cs),
(133,379,o),
(131,384,o),
(128,388,cs),
(125,392,o),
(122,396,o),
(122,401,cs),
(121,411,o),
(119,422,o),
(121,432,cs),
(121,434,o),
(122,437,o),
(119,439,cs),
(112,445,o),
(107,453,o),
(103,461,cs),
(102,463,o),
(100,466,o),
(96,464,c),
(97,452,o),
(97,440,o),
(90,428,c),
(99,421,o),
(105,412,o),
(116,407,c),
(113,394,o),
(120,386,o),
(129,378,c),
(125,367,o),
(125,357,o),
(135,349,cs),
(139,345,o),
(140,339,o),
(141,333,c),
(138,331,ls),
(136,329,o),
(134,328,o),
(133,326,c),
(121,320,l),
(121,322,l),
(124,336,o),
(120,346,o),
(110,354,cs),
(105,358,o),
(100,363,o),
(97,369,c),
(97,370,o),
(96,373,o),
(93,372,c),
(90,366,o),
(92,360,o),
(96,355,cs),
(106,343,ls),
(111,337,o),
(114,331,o),
(114,324,c),
(103,316,o),
(98,305,o),
(100,290,c),
(79,290,ls),
(70,289,o),
(62,286,o),
(57,278,cs),
(46,262,o),
(48,243,o),
(62,229,cs),
(84,208,ls),
(89,203,o),
(89,199,o),
(87,193,cs),
(79,167,o),
(75,141,o),
(79,114,cs),
(86,60,o),
(121,20,o),
(174,7,cs),
(219,-3,o),
(265,-2,o),
(310,10,cs),
(346,20,o),
(371,43,o),
(387,77,cs),
(395,96,o),
(399,116,o),
(400,137,cs),
(400,156,o),
(398,175,o),
(393,194,cs),
(391,199,o),
(392,202,o),
(396,206,cs),
(411,225,ls),
(415,230,o),
(418,235,o),
(420,240,cs),
(427,259,o),
(419,277,o),
(400,284,cs),
(393,287,o),
(385,288,o),
(378,288,cs),
(375,288,o),
(372,287,o),
(369,289,c),
(375,297,o),
(378,306,o),
(377,316,cs),
(376,327,o),
(370,333,o),
(360,338,c),
(366,353,o),
(367,369,o),
(366,385,cs),
(363,406,ls),
(362,416,o),
(364,425,o),
(370,434,cs),
(372,437,o),
(375,440,o),
(376,445,c),
(375,445,l),
(364,435,o),
(356,423,o),
(359,407,cs),
(361,392,ls),
(364,370,o),
(358,351,o),
(348,333,c),
(339,331,o),
(342,338,o),
(340,340,c),
(335,343,o),
(330,341,o),
(325,343,c),
(327,351,o),
(327,352,o),
(336,357,cs),
(349,366,o),
(351,379,o),
(353,393,c),
(353,393,o),
(352,393,o),
(351,394,c),
(347,390,o),
(345,385,o),
(343,379,cs),
(342,374,o),
(340,370,o),
(336,367,cs),
(329,362,o),
(323,357,o),
(320,349,c),
(314,353,o),
(309,356,o),
(303,357,cs),
(297,358,o),
(291,355,o),
(285,354,c),
(288,366,ls),
(289,372,o),
(289,378,o),
(286,384,cs),
(283,390,o),
(283,395,o),
(285,402,cs),
(286,404,o),
(288,407,o),
(286,411,c),
(278,402,o),
(275,393,o),
(278,383,cs),
(279,378,o),
(279,374,o),
(279,369,cs),
(278,363,o),
(277,356,o),
(278,349,c),
(271,349,o),
(268,352,o),
(265,356,c),
(263,361,o),
(263,365,o),
(263,370,cs),
(263,387,l),
(259,379,o),
(259,373,o),
(259,367,cs),
(258,360,o),
(262,355,o),
(262,348,c),
(259,355,o),
(254,359,o),
(249,362,c),
(247,371,o),
(251,378,o),
(255,384,cs),
(262,393,o),
(262,404,o),
(256,412,c),
(253,409,o),
(254,404,o),
(254,400,cs),
(254,397,o),
(254,393,o),
(251,390,cs),
(245,383,o),
(241,374,o),
(241,363,c),
(233,364,o),
(226,362,o),
(219,360,c),
(216,370,o),
(214,380,o),
(217,389,cs),
(223,405,o),
(226,421,o),
(236,434,c),
(232,441,o),
(226,445,o),
(221,451,cs),
(216,457,o),
(215,465,o),
(211,471,c),
(206,470,o),
(206,467,o),
(206,464,cs),
(205,450,o),
(198,440,o),
(187,431,cs),
(185,429,o),
(182,428,o),
(181,424,c),
(184,416,o),
(194,417,o),
(198,411,cs),
(203,405,o),
(206,398,o),
(211,392,c),
(209,380,o),
(208,368,o),
(213,356,c)
);
}
);
width = 472;
}
);
note = parenright;
unicode = 41;
},
{
glyphname = asterisk;
lastChange = "2024-09-22 23:13:19 +0000";
layers = (
{
layerId = m01;
shapes = (
{
closed = 1;
nodes = (
(233,72,o),
(260,92,o),
(276,128,cs),
(284,148,o),
(287,169,o),
(285,191,cs),
(285,194,o),
(285,198,o),
(286,201,cs),
(291,219,o),
(299,234,o),
(312,248,cs),
(328,266,o),
(348,275,o),
(372,274,cs),
(387,272,l),
(398,272,o),
(408,272,o),
(418,274,cs),
(439,278,o),
(455,289,o),
(463,310,cs),
(467,324,o),
(464,334,o),
(452,342,cs),
(448,345,o),
(443,348,o),
(438,351,cs),
(422,360,o),
(420,370,o),
(431,384,cs),
(436,390,o),
(441,395,o),
(447,399,cs),
(454,404,o),
(462,409,o),
(471,412,cs),
(496,422,ls),
(501,424,o),
(505,425,o),
(509,429,c),
(499,431,o),
(490,428,o),
(482,427,cs),
(460,425,o),
(439,421,o),
(419,412,cs),
(411,409,o),
(404,405,o),
(398,398,cs),
(388,388,o),
(386,376,o),
(392,364,cs),
(395,356,o),
(400,350,o),
(406,345,cs),
(421,331,ls),
(427,326,o),
(431,320,o),
(433,313,cs),
(436,301,o),
(432,295,o),
(420,292,cs),
(410,290,o),
(401,293,o),
(392,295,cs),
(361,305,ls),
(343,311,o),
(325,310,o),
(308,301,cs),
(291,293,o),
(278,282,o),
(267,267,cs),
(266,265,o),
(265,263,o),
(263,262,c),
(262,262,o),
(261,263,o),
(261,264,c),
(241,292,o),
(213,302,o),
(180,303,cs),
(161,303,o),
(139,299,o),
(125,295,cs),
(90,285,o),
(59,258,o),
(53,228,cs),
(49,206,o),
(49,185,o),
(52,163,cs),
(59,122,o),
(82,93,o),
(121,78,cs),
(145,69,o),
(169,65,o),
(194,68,cs)
);
}
);
width = 559;
}
);
note = asterisk;
unicode = 42;
},
{
glyphname = zero;
lastChange = "2024-09-22 23:08:23 +0000";
layers = (
{
layerId = m01;
shapes = (
{
closed = 1;
nodes = (
(219,-3,o),
(265,-1,o),
(310,11,cs),
(346,21,o),
(371,44,o),
(387,78,cs),
(395,97,o),
(399,117,o),
(400,138,cs),
(400,157,o),
(398,176,o),
(393,195,cs),
(391,200,o),
(392,203,o),
(396,207,cs),
(401,213,o),
(406,220,o),
(411,226,cs),
(415,231,o),
(418,236,o),
(420,241,cs),
(427,260,o),
(419,278,o),
(400,285,cs),
(393,288,o),
(385,289,o),
(378,289,cs),
(375,289,o),
(372,288,o),
(369,290,c),
(375,298,o),
(378,307,o),
(377,317,cs),
(376,328,o),
(370,334,o),
(360,338,c),
(366,354,o),
(367,370,o),
(366,386,cs),
(363,407,ls),
(362,417,o),
(364,426,o),
(370,434,c),
(372,438,o),
(375,441,o),
(376,446,c),
(375,446,l),
(364,436,o),
(356,424,o),
(359,408,cs),
(361,393,ls),
(364,371,o),
(358,352,o),
(348,334,c),
(339,332,o),
(342,339,o),
(340,341,c),
(335,344,o),
(330,342,o),
(325,344,c),
(327,352,o),
(327,353,o),
(336,358,cs),
(349,367,o),
(351,380,o),
(353,393,cs),
(353,394,o),
(352,394,o),
(351,395,c),
(347,391,o),
(345,385,o),
(343,380,cs),
(342,375,o),
(340,371,o),
(336,368,cs),
(329,363,o),
(323,358,o),
(320,350,c),
(314,354,o),
(309,357,o),
(303,358,cs),
(297,359,o),
(291,355,o),
(285,355,c),
(288,367,ls),
(289,373,o),
(289,379,o),
(286,385,cs),
(283,391,o),
(283,396,o),
(285,402,cs),
(286,405,o),
(288,408,o),
(286,412,c),
(278,403,o),
(275,394,o),
(278,384,cs),
(279,379,o),
(279,375,o),
(279,370,cs),
(278,364,o),
(277,357,o),
(278,350,c),
(271,350,o),
(268,353,o),
(265,357,cs),
(263,361,o),
(263,366,o),
(263,370,cs),
(263,388,l),
(259,380,o),
(259,374,o),
(259,367,cs),
(258,361,o),
(262,356,o),
(262,349,c),
(259,356,o),
(254,360,o),
(249,363,c),
(247,372,o),
(251,379,o),
(255,385,cs),
(262,394,o),
(262,405,o),
(256,413,c),
(253,409,o),
(254,405,o),
(254,401,cs),
(254,398,o),
(254,394,o),
(251,391,cs),
(245,384,o),
(241,375,o),
(241,364,c),
(233,364,o),
(226,363,o),
(219,361,c),
(216,371,o),
(214,381,o),
(217,390,cs),
(223,405,o),
(226,422,o),
(236,435,c),
(232,442,o),
(226,446,o),
(221,452,cs),
(216,457,o),
(215,465,o),
(211,472,c),
(206,471,o),
(206,468,o),
(206,465,cs),
(205,451,o),
(198,441,o),
(187,432,cs),
(185,430,o),
(182,428,o),
(181,424,c),
(184,417,o),
(194,418,o),
(198,412,cs),
(203,406,o),
(206,399,o),
(211,393,c),
(209,381,o),
(208,369,o),
(213,357,c),
(210,352,o),
(203,348,o),
(207,341,c),
(211,341,o),
(211,343,o),
(213,345,cs),
(220,355,o),
(231,357,o),
(243,356,cs),
(248,356,o),
(253,354,o),
(254,347,c),
(238,346,o),
(226,342,o),
(219,336,c),
(214,339,o),
(208,341,o),
(201,337,cs),
(195,333,o),
(193,327,o),
(191,320,c),
(185,320,o),
(180,317,o),
(175,314,c),
(171,316,o),
(167,320,o),
(163,317,c),
(165,313,o),
(170,314,o),
(171,309,c),
(170,306,o),
(169,302,o),
(166,299,c),
(160,300,o),
(153,303,o),
(148,307,cs),
(145,309,o),
(143,311,o),
(145,315,cs),
(148,322,o),
(157,327,o),
(165,325,cs),
(168,324,o),
(172,323,o),
(176,324,c),
(174,336,o),
(181,341,o),
(192,346,c),
(186,347,ls),
(178,347,o),
(175,349,o),
(177,357,cs),
(178,361,o),
(179,364,o),
(180,367,cs),
(186,380,o),
(183,392,o),
(182,404,cs),
(182,405,o),
(181,406,o),
(180,407,c),
(175,401,o),
(176,395,o),
(176,388,c),
(177,384,o),
(177,379,o),
(174,375,c),
(170,379,o),
(169,384,o),
(166,387,cs),
(163,391,o),
(164,398,o),
(156,399,c),
(157,389,o),
(156,380,o),
(150,372,c),
(157,366,o),
(159,357,o),
(165,350,c),
(167,361,o),
(161,368,o),
(156,375,c),
(157,377,o),
(157,379,o),
(160,381,c),
(163,376,o),
(167,371,o),
(171,367,c),
(168,357,o),
(167,348,o),
(175,341,c),
(170,329,l),
(164,333,o),
(157,332,o),
(151,331,c),
(148,345,l),
(148,350,o),
(145,355,o),
(141,358,cs),
(135,362,o),
(133,368,o),
(133,374,cs),
(133,380,o),
(131,385,o),
(128,389,cs),
(125,393,o),
(122,397,o),
(122,402,cs),
(121,412,o),
(119,422,o),
(121,433,cs),
(121,435,o),
(122,438,o),
(119,440,cs),
(112,446,o),
(107,454,o),
(103,462,cs),
(102,464,o),
(100,467,o),
(96,465,c),
(97,453,o),
(97,440,o),
(90,428,c),
(99,422,o),
(105,413,o),
(116,408,c),
(113,395,o),
(120,386,o),
(129,379,c),
(125,368,o),
(125,358,o),
(135,350,cs),
(139,346,o),
(140,340,o),
(141,334,c),
(138,332,ls),
(124,321,o),
(122,312,o),
(132,298,c),
(135,295,o),
(137,293,o),
(141,291,c),
(146,287,o),
(151,285,o),
(157,282,cs),
(160,281,o),
(163,280,o),
(165,277,c),
(164,276,o),
(164,275,o),
(163,275,cs),
(137,275,o),
(117,297,o),
(121,323,cs),
(124,337,o),
(120,347,o),
(110,355,cs),
(105,359,o),
(100,364,o),
(97,370,c),
(97,371,o),
(96,374,o),
(93,373,c),
(90,367,o),
(92,361,o),
(96,356,cs),
(99,352,o),
(103,348,o),
(106,344,cs),
(111,338,o),
(114,332,o),
(114,325,c),
(103,317,o),
(98,306,o),
(100,291,c),
(79,291,ls),
(70,290,o),
(62,287,o),
(57,279,cs),
(46,263,o),
(48,244,o),
(62,230,cs),
(84,209,ls),
(89,204,o),
(89,200,o),
(87,194,cs),
(79,168,o),
(75,142,o),
(79,114,cs),
(86,61,o),
(121,20,o),
(174,8,cs)
);
},
{
closed = 1;
nodes = (
(67,241,o),
(62,246,o),
(59,253,cs),
(54,264,o),
(64,281,o),
(76,283,cs),
(86,285,o),
(95,284,o),
(104,283,cs),
(109,282,o),
(111,278,o),
(113,274,c),
(106,274,o),
(99,276,o),
(92,276,cs),
(75,275,o),
(69,267,o),
(72,251,cs),
(73,246,o),
(73,242,o),
(73,235,c)
);
},
{
closed = 1;
nodes = (
(92,240,o),
(89,245,o),
(89,254,c),
(97,258,o),
(105,254,o),
(113,254,c),
(114,249,o),
(110,246,o),
(108,242,cs),
(101,229,l)
);
},
{
closed = 1;
nodes = (
(236,17,o),
(204,19,o),
(174,32,cs),
(132,50,o),
(106,83,o),
(100,129,cs),
(97,156,o),
(99,183,o),
(106,209,c),
(107,211,o),
(107,213,o),
(109,214,c),
(110,212,o),
(110,210,o),
(109,207,cs),
(102,180,o),
(103,152,o),
(109,124,cs),
(120,75,o),
(151,44,o),
(200,33,cs),
(238,25,o),
(274,32,o),
(308,48,cs),
(323,56,o),
(335,67,o),
(346,80,cs),
(359,95,o),
(365,113,o),
(365,133,cs),
(365,142,o),
(365,150,o),
(366,159,cs),
(366,161,o),
(365,163,o),
(368,166,c),
(380,122,o),
(371,86,o),
(337,57,cs),
(317,39,o),
(294,30,o),
(268,24,cs)
);
},
{
closed = 1;
nodes = (
(133,266,o),
(110,287,o),
(113,304,c),
(121,283,o),
(138,272,o),
(159,262,c)
);
},
{
closed = 1;
nodes = (
(195,119,o),
(188,122,o),
(183,127,c),
(178,130,o),
(175,136,o),
(173,142,cs),
(166,159,o),
(169,188,o),
(189,202,c),
(185,206,o),
(181,211,o),
(180,216,c),
(178,218,o),
(177,216,o),
(175,216,c),
(172,215,o),
(169,217,o),
(168,220,cs),
(166,224,o),
(166,227,o),
(169,230,cs),
(170,231,o),
(171,232,o),
(172,232,cs),
(183,233,o),
(187,242,o),
(194,249,c),
(188,253,o),
(185,259,o),
(185,267,cs),
(185,270,o),
(183,271,o),
(181,273,cs),
(171,281,o),
(169,290,o),
(174,301,cs),
(177,307,o),
(180,312,o),
(187,312,cs),
(195,313,o),
(201,310,o),
(205,304,cs),
(207,300,o),
(209,296,o),
(214,295,c),
(217,297,o),
(219,300,o),
(222,302,cs),
(228,306,o),
(234,303,o),
(235,297,cs),
(235,293,o),
(237,291,o),
(240,289,c),
(238,288,o),
(237,288,o),
(236,288,cs),
(235,288,o),
(234,288,o),
(233,288,c),
(231,290,o),
(231,291,o),
(231,292,cs),
(231,295,o),
(232,298,o),
(229,299,cs),
(225,301,o),
(223,298,o),
(221,296,cs),
(219,294,o),
(217,293,o),
(216,291,cs),
(214,286,o),
(210,284,o),
(205,282,c),
(205,273,o),
(213,264,o),
(208,255,c),
(209,254,o),
(209,253,o),
(209,253,c),
(222,250,o),
(227,242,o),
(228,230,cs),
(229,218,o),
(225,207,o),
(213,200,cs),
(211,199,o),
(208,199,o),
(206,196,cs),
(201,191,o),
(200,183,o),
(204,177,cs),
(211,167,ls),
(215,161,o),
(218,154,o),
(219,147,cs),
(220,136,o),
(213,123,o),
(202,121,cs)
);
},
{
closed = 1;
nodes = (
(194,125,o),
(199,125,o),
(204,129,cs),
(212,134,o),
(214,147,o),
(210,155,c),
(207,154,o),
(207,152,o),
(206,149,cs),
(205,146,o),
(204,143,o),
(203,140,cs),
(199,132,o),
(191,131,o),
(185,138,cs),
(183,141,o),
(183,144,o),
(180,145,c),
(180,138,o),
(183,132,o),
(188,128,c)
);
},
{
closed = 1;
nodes = (
(200,202,o),
(211,203,o),
(218,209,cs),
(224,215,o),
(225,223,o),
(221,229,c),
(217,227,o),
(218,224,o),
(216,221,c),
(213,213,o),
(208,210,o),
(202,212,cs),
(196,213,o),
(192,220,o),
(193,227,cs),
(193,229,o),
(195,231,o),
(193,235,c),
(186,225,o),
(186,215,o),
(194,209,c)
);
},
{
closed = 1;
nodes = (
(75,337,o),
(79,338,o),
(82,341,c),
(86,347,o),
(82,365,o),
(75,369,cs),
(73,370,o),
(71,370,o),
(69,369,c),
(67,367,o),
(67,365,o),
(68,363,c),
(68,362,o),
(69,360,o),
(70,360,cs),
(73,360,o),
(70,364,o),
(74,365,c),
(81,359,o),
(80,352,o),
(78,344,c),
(74,343,o),
(71,345,o),
(69,347,cs),
(62,355,o),
(58,364,o),
(61,374,cs),
(64,387,o),
(73,395,o),
(85,398,cs),
(96,402,o),
(103,398,o),
(108,387,cs),
(109,384,o),
(109,380,o),
(112,377,c),
(114,396,o),
(101,407,o),
(84,403,cs),
(68,399,o),
(57,388,o),
(55,372,cs),
(53,360,o),
(59,346,o),
(69,340,cs)
);
},
{
closed = 1;
nodes = (
(74,403,o),
(77,405,o),
(77,409,cs),
(77,413,o),
(74,414,o),
(71,414,cs),
(67,414,o),
(66,412,o),
(66,409,cs),
(65,405,o),
(68,402,o),
(71,403,c)
);
},
{
closed = 1;
nodes = (
(280,142,o),
(274,148,o),
(273,152,cs),
(272,158,o),
(276,160,o),
(281,161,c),
(281,164,o),
(279,165,o),
(278,166,c),
(272,176,o),
(272,184,o),
(279,194,cs),
(283,199,o),
(289,204,o),
(294,208,c),
(297,209,o),
(300,211,o),
(298,215,c),
(296,216,o),
(294,215,o),
(292,215,cs),
(277,213,o),
(265,227,o),
(270,242,cs),
(271,246,o),
(273,250,o),
(276,253,cs),
(281,258,o),
(286,264,o),
(294,262,cs),
(302,259,o),
(309,253,o),
(310,243,cs),
(311,238,o),
(310,234,o),
(310,229,cs),
(310,227,o),
(312,227,o),
(313,226,cs),
(317,222,o),
(318,219,o),
(315,214,c),
(314,211,o),
(311,209,o),
(309,207,cs),
(304,202,o),
(303,199,o),
(309,194,cs),
(316,187,o),
(318,178,o),
(315,169,cs),
(312,160,o),
(306,155,o),
(296,156,c),
(293,149,o),
(292,141,o),
(283,142,cs)
);
},
{
closed = 1;
nodes = (
(302,167,o),
(306,171,o),
(306,177,c),
(305,178,o),
(303,177,o),
(302,176,c),
(300,176,o),
(299,174,o),
(297,174,c),
(291,172,o),
(288,174,o),
(287,180,cs),
(287,183,o),
(289,185,o),
(287,187,c),
(281,183,o),
(280,177,o),
(282,172,cs),
(284,167,o),
(289,165,o),
(295,166,cs)
);
},
{
closed = 1;
nodes = (
(227,257,o),
(228,259,o),
(232,259,cs),
(259,259,l),
(260,255,o),
(260,253,o),
(257,253,cs),
(248,252,o),
(238,251,o),
(228,253,c)
);
},
{
closed = 1;
nodes = (
(222,272,o),
(220,273,o),
(216,278,c),
(221,280,o),
(238,281,o),
(254,278,c),
(258,278,o),
(264,279,o),
(269,273,c),
(257,267,o),
(246,269,o),
(235,270,cs)
);
},
{
closed = 1;
nodes = (
(305,229,o),
(306,239,o),
(301,246,c),
(298,243,o),
(298,240,o),
(297,237,cs),
(295,231,o),
(291,229,o),
(286,230,cs),
(281,232,o),
(280,235,o),
(281,241,c),
(282,243,o),
(284,245,o),
(283,248,c),
(274,241,o),
(272,233,o),
(277,227,cs),
(282,221,o),
(293,219,o),
(299,224,cs)
);
},
{
closed = 1;
nodes = (
(101,433,l),
(102,436,o),
(102,439,o),
(103,442,c),
(114,435,o),
(114,437,o),
(113,419,c)
);
},
{
closed = 1;
nodes = (
(260,302,o),
(265,300,o),
(269,302,c),
(264,305,o),
(260,304,o),
(257,300,c)
);
},
{
closed = 1;
nodes = (
(292,264,o),
(287,268,o),
(286,274,cs),
(285,277,o),
(287,280,o),
(287,283,c),
(284,284,o),
(281,282,o),
(278,282,c),
(278,291,o),
(285,299,o),
(293,298,cs),
(297,298,o),
(302,295,o),
(302,291,cs),
(301,286,o),
(304,282,o),
(305,277,c),
(306,275,l),
(306,270,o),
(301,264,o),
(296,264,cs)
);
},
{
closed = 1;
nodes = (
(89,483,o),
(90,485,o),
(90,487,cs),
(90,489,o),
(89,490,o),
(87,491,c),
(85,491,o),
(84,489,o),
(83,487,c),
(83,485,o),
(84,484,o),
(86,483,c)
);
},
{
closed = 1;
nodes = (
(262,317,o),
(260,321,o),
(258,321,c),
(250,324,l),
(246,337,o),
(242,338,o),
(226,330,c),
(236,341,o),
(246,341,o),
(252,330,cs),
(253,328,o),
(254,327,o),
(256,326,cs),
(262,323,o),
(262,323,o),
(265,319,c)
);
},
{
closed = 1;
nodes = (
(164,414,o),
(166,416,o),
(166,419,cs),
(166,421,o),
(165,422,o),
(163,422,c),
(160,423,o),
(158,422,o),
(158,418,cs),
(158,416,o),
(159,415,o),
(161,414,c)
);
},
{
closed = 1;
nodes = (
(306,296,l),
(298,306,o),
(290,307,o),
(280,300,cs),
(274,296,o),
(268,294,o),
(262,294,cs),
(257,293,o),
(251,295,o),
(245,295,c),
(243,301,o),
(240,308,o),
(232,310,cs),
(225,311,o),
(220,306,o),
(214,302,c),
(209,308,o),
(206,316,o),
(198,319,c),
(199,325,o),
(203,330,o),
(209,331,cs),
(214,332,o),
(218,330,o),
(219,325,c),
(216,320,o),
(209,316,o),
(214,308,c),
(220,315,o),
(224,323,o),
(234,321,cs),
(243,319,o),
(246,312,o),
(247,302,c),
(254,304,o),
(258,309,o),
(264,310,cs),
(270,312,o),
(276,311,o),
(281,305,c),
(282,313,o),
(276,313,o),
(273,317,c),
(277,324,o),
(281,332,o),
(291,333,cs),
(298,333,o),
(304,328,o),
(308,319,c),
(317,321,l),
(320,321,o),
(322,322,o),
(325,321,c),
(329,321,o),
(334,320,o),
(335,315,cs),
(337,310,o),
(334,306,o),
(330,304,cs),
(323,299,o),
(316,295,o),
(307,293,c)
);
},
{
closed = 1;
nodes = (
(141,407,o),
(141,408,o),
(141,409,cs),
(139,423,o),
(136,435,o),
(130,448,cs),
(123,464,o),
(120,480,o),
(121,497,cs),
(121,502,o),
(122,507,o),
(125,511,cs),
(129,516,o),
(135,516,o),
(138,512,cs),
(142,508,o),
(141,500,o),
(137,495,c),
(136,499,o),
(140,503,o),
(137,507,c),
(134,503,o),
(133,499,o),
(133,495,cs),
(133,492,o),
(133,490,o),
(136,489,cs),
(138,488,o),
(141,489,o),
(142,492,c),
(145,497,o),
(146,502,o),
(145,507,cs),
(143,514,o),
(140,519,o),
(134,519,cs),
(129,520,o),
(123,517,o),
(120,511,cs),
(117,506,o),
(116,500,o),
(116,494,cs),
(115,479,o),
(118,464,o),
(124,451,cs),
(129,438,o),
(134,426,o),
(136,412,c),
(137,410,o),
(137,407,o),
(140,405,c)
);
},
{
closed = 1;
nodes = (
(268,327,o),
(266,329,o),
(263,330,c),
(261,334,o),
(262,337,o),
(263,341,c),
(270,344,o),
(277,343,o),
(283,337,c),
(279,333,o),
(274,331,o),
(272,327,c)
);
},
{
closed = 1;
nodes = (
(286,324,o),
(293,326,o),
(300,321,c),
(298,326,o),
(294,328,o),
(289,327,cs),
(284,326,o),
(280,324,o),
(280,317,c)
);
},
{
closed = 1;
nodes = (
(370,252,l),
(381,253,o),
(390,252,o),
(398,249,c),
(398,241,o),
(395,237,o),
(382,227,c)
);
},
{
closed = 1;
nodes = (
(167,459,o),
(164,468,o),
(171,475,c),
(164,481,o),
(159,487,o),
(153,495,c),
(152,488,o),
(151,482,o),
(147,477,cs),
(144,474,o),
(145,471,o),
(148,469,cs),
(153,466,o),
(155,461,o),
(158,457,cs),
(160,455,o),
(161,452,o),
(165,451,c)
);
},
{
closed = 1;
nodes = (
(309,308,o),
(312,311,o),
(317,311,cs),
(321,311,o),
(324,312,o),
(330,311,c),
(322,321,o),
(310,319,o),
(303,306,c)
);
},
{
closed = 1;
nodes = (
(328,271,o),
(328,273,o),
(330,274,cs),
(335,276,o),
(339,279,o),
(343,283,cs),
(352,291,o),
(359,300,o),
(363,312,c),
(364,295,o),
(350,276,o),
(329,269,c)
);
},
{
closed = 1;
nodes = (
(209,413,o),
(204,421,o),
(194,425,c),
(202,433,o),
(207,440,o),
(210,450,c),
(216,444,o),
(222,439,o),
(229,435,c),
(225,430,o),
(222,426,o),
(219,421,c),
(217,415,o),
(216,410,o),
(214,402,c)
);
},
{
closed = 1;
nodes = (
(304,332,o),
(297,337,o),
(288,337,c),
(284,346,l),
(294,355,o),
(304,356,o),
(312,349,c),
(316,348,o),
(319,346,o),
(319,341,c),
(326,339,o),
(326,333,o),
(327,328,c),
(321,327,o),
(315,328,o),
(310,325,c)
);
},
{
closed = 1;
nodes = (
(318,340,o),
(316,344,o),
(311,346,cs),
(307,348,o),
(303,349,o),
(298,344,c),
(307,345,o),
(313,343,o),
(316,334,c)
);
},
{
closed = 1;
nodes = (
(328,292,o),
(332,293,o),
(335,295,cs),
(339,297,o),
(342,300,o),
(344,304,cs),
(349,312,o),
(347,317,o),
(340,321,cs),
(332,324,ls),
(330,325,o),
(329,327,o),
(331,329,c),
(331,331,o),
(333,331,o),
(335,331,cs),
(352,328,o),
(357,313,o),
(347,299,cs),
(342,293,o),
(335,289,o),
(326,286,c)
);
},
{
closed = 1;
nodes = (
(399,268,o),
(382,267,o),
(364,265,c),
(361,267,o),
(359,270,o),
(357,275,c),
(371,276,o),
(385,278,o),
(398,274,cs),
(407,271,o),
(412,265,o),
(414,254,c)
);
},
{
closed = 1;
nodes = (
(256,424,o),
(258,426,o),
(259,428,cs),
(260,429,o),
(261,430,o),
(260,432,c),
(258,434,o),
(256,434,o),
(254,432,cs),
(253,431,o),
(251,428,o),
(254,426,cs)
);
},
{
closed = 1;
nodes = (
(208,489,o),
(210,492,o),
(206,495,cs),
(204,496,o),
(201,495,o),
(201,492,c),
(199,488,o),
(202,486,o),
(206,485,c)
);
},
{
closed = 1;
nodes = (
(280,415,o),
(288,427,o),
(288,436,c),
(289,439,o),
(288,443,o),
(286,446,cs),
(283,451,o),
(277,454,o),
(273,453,cs),
(268,451,o),
(266,445,o),
(268,439,cs),
(269,435,o),
(271,432,o),
(275,431,c),
(280,431,o),
(281,434,o),
(282,438,cs),
(283,441,l),
(280,440,o),
(278,438,o),
(276,436,c),
(275,436,o),
(274,437,o),
(273,438,c),
(271,443,o),
(271,448,o),
(274,449,cs),
(278,450,o),
(281,447,o),
(283,441,c),
(285,439,o),
(284,437,o),
(284,435,c),
(282,429,o),
(279,423,o),
(276,418,cs),
(274,415,o),
(272,413,o),
(272,409,c)
);
},
{
closed = 1;
nodes = (
(251,451,o),
(252,452,o),
(253,452,c),
(261,466,o),
(256,509,o),
(247,519,cs),
(244,523,o),
(241,525,o),
(236,525,c),
(228,523,o),
(223,518,o),
(220,511,cs),
(217,504,o),
(217,496,o),
(222,490,cs),
(227,484,o),
(235,486,o),
(238,492,cs),
(239,495,o),
(239,497,o),
(239,500,cs),
(239,502,o),
(239,505,o),
(236,506,c),
(233,508,o),
(230,506,o),
(229,504,cs),
(228,503,o),
(227,502,o),
(228,502,c),
(230,499,o),
(232,503,o),
(235,501,c),
(235,500,o),
(235,498,o),
(235,497,cs),
(234,494,o),
(233,491,o),
(229,491,cs),
(225,491,o),
(224,493,o),
(222,497,cs),
(221,501,o),
(222,505,o),
(224,510,cs),
(226,515,o),
(230,520,o),
(237,519,cs),
(243,519,o),
(245,513,o),
(246,508,cs),
(250,494,o),
(252,480,o),
(252,465,cs),
(252,460,o),
(249,456,o),
(250,451,c)
);
},
{
closed = 1;
nodes = (
(328,389,o),
(335,401,o),
(344,411,c),
(340,416,o),
(339,422,o),
(339,428,cs),
(339,446,ls),
(339,448,o),
(339,451,o),
(335,452,c),
(326,442,o),
(320,429,o),
(305,421,c),
(310,406,o),
(316,391,o),
(320,374,c)
);
},
{
closed = 1;
nodes = (
(319,398,o),
(318,408,o),
(311,417,c),
(318,421,o),
(324,427,o),
(330,434,c),
(333,426,o),
(332,418,o),
(336,411,c),
(331,404,o),
(326,397,o),
(322,388,c)
);
},
{
closed = 1;
nodes = (
(410,333,o),
(419,352,o),
(412,366,cs),
(408,373,o),
(402,376,o),
(395,374,cs),
(386,371,o),
(380,366,o),
(377,356,c),
(381,357,o),
(382,360,o),
(384,362,cs),
(387,364,o),
(389,366,o),
(392,368,c),
(400,371,o),
(405,368,o),
(407,360,cs),
(409,351,o),
(406,343,o),
(399,337,c),
(395,335,o),
(391,331,o),
(388,335,cs),
(384,339,o),
(388,343,o),
(392,345,c),
(393,345,ls),
(395,345,o),
(394,341,o),
(397,342,c),
(398,345,o),
(398,348,o),
(395,350,c),
(392,351,o),
(389,350,o),
(387,348,c),
(386,346,o),
(384,345,o),
(384,343,c),
(381,339,o),
(380,335,o),
(383,331,cs),
(385,328,o),
(390,327,o),
(395,328,cs)
);
},
{
closed = 1;
nodes = (
(304,465,l),
(306,472,o),
(310,478,o),
(315,484,c),
(309,494,o),
(303,503,o),
(302,515,cs),
(302,517,o),
(300,518,o),
(298,518,c),
(296,517,o),
(295,516,o),
(295,514,cs),
(294,506,o),
(291,499,o),
(287,494,cs),
(284,489,o),
(280,486,o),
(277,482,c),
(279,475,o),
(283,469,o),
(286,463,cs),
(289,457,o),
(288,448,o),
(295,444,c)
);
},
{
closed = 1;
nodes = (
(291,465,o),
(289,474,o),
(282,482,c),
(288,488,o),
(293,494,o),
(297,503,c),
(300,496,o),
(303,489,o),
(307,483,c),
(301,475,o),
(299,466,o),
(295,454,c)
);
},
{
closed = 1;
nodes = (
(299,408,o),
(300,411,o),
(300,414,cs),
(301,425,o),
(304,435,o),
(310,444,c),
(328,478,ls),
(333,488,o),
(337,499,o),
(337,510,c),
(338,514,o),
(338,518,o),
(336,522,cs),
(333,529,o),
(324,530,o),
(320,524,cs),
(316,519,o),
(315,509,o),
(318,503,cs),
(321,498,o),
(324,499,o),
(329,504,c),
(327,508,o),
(324,503,o),
(321,508,c),
(320,511,o),
(320,516,o),
(322,520,cs),
(323,522,o),
(324,524,o),
(326,524,cs),
(328,524,o),
(330,522,o),
(331,521,c),
(332,517,o),
(332,513,o),
(332,509,cs),
(331,498,o),
(327,488,o),
(323,478,c),
(305,446,l),
(302,442,o),
(299,437,o),
(298,432,cs),
(295,424,o),
(293,415,o),
(297,404,c)
);
},
{
closed = 1;
nodes = (
(381,398,o),
(384,399,o),
(386,402,c),
(392,408,o),
(395,425,o),
(391,433,cs),
(389,438,o),
(385,440,o),
(380,438,cs),
(375,436,o),
(370,429,o),
(370,421,c),
(374,426,o),
(376,432,o),
(383,433,c),
(389,425,o),
(387,416,o),
(384,408,cs),
(383,404,o),
(380,401,o),
(376,403,c),
(376,412,o),
(376,412,o),
(383,414,c),
(379,419,o),
(378,419,o),
(376,417,cs),
(373,414,o),
(370,409,o),
(370,405,cs),
(370,401,o),
(374,397,o),
(378,398,cs)
);
},
{
closed = 1;
nodes = (
(356,482,o),
(356,483,o),
(351,487,cs),
(349,488,o),
(348,491,o),
(344,490,c),
(343,485,o),
(345,481,o),
(349,478,c)
);
}
);
width = 472;
}
);
note = zero;
unicode = 48;
},
{
glyphname = one;
lastChange = "2024-09-22 23:05:32 +0000";
layers = (
{
layerId = m01;
shapes = (
{
closed = 1;
nodes = (
(211.19,-22.65,o),
(228.48,-16.14,o),
(237.89,2.36,cs),
(238.55,3.63,o),
(238.49,5.6,o),
(240.91,5.86,c),
(243.12,4.41,o),
(245.46,2.73,o),
(247.91,1.26,cs),
(265.78,-9.39,o),
(286.85,-5.05,o),
(299.07,11.82,cs),
(303.84,18.4,o),
(306.62,25.87,o),
(308.18,33.84,cs),
(308.76,36.81,o),
(308.34,40.16,o),
(310.84,42.58,c),
(325.32,32.45,o),
(333.37,29.85,o),
(345.63,31.77,cs),
(356.97,33.54,o),
(367.03,38.27,o),
(375.74,45.79,cs),
(384.56,53.42,o),
(391.48,62.56,o),
(396.95,72.89,cs),
(398.35,75.55,o),
(399.03,78.76,o),
(402.06,80.92,c),
(403.17,79.48,o),
(404.09,78.21,o),
(405.11,77.02,cs),
(412.53,68.44,o),
(422.05,66.94,o),
(431.69,72.84,cs),
(436.42,75.74,o),
(440.06,79.74,o),
(443.34,84.16,cs),
(444.76,86.05,o),
(445.31,88.84,o),
(448.05,89.55,c),
(461.08,74.95,o),
(473.08,75.4,o),
(485.29,90.87,cs),
(492.16,99.6,o),
(496.21,109.64,o),
(498.53,120.44,cs),
(499.32,124.17,o),
(499.24,128.09,o),
(501.18,132.04,cs),
(501.21,132.04,ls),
(514.66,134.36,o),
(526.4,140.6,o),
(536,150.56,cs),
(553.89,169.08,o),
(562.15,191.4,o),
(560.95,216.98,cs),
(560.39,228.8,o),
(558.61,240.58,o),
(557.43,252.37,cs),
(556.49,261.66,o),
(559.4,269.37,o),
(566.91,275.23,cs),
(570.18,277.79,o),
(573.38,280.5,o),
(576.41,283.36,cs),
(601.35,306.76,o),
(601.09,348.23,o),
(576.25,371.83,cs),
(570.7,377.1,o),
(564.98,378.51,o),
(557.86,376.83,cs),
(551.96,375.46,o),
(546.6,372.56,o),
(540.99,370.44,c),
(539.8,373.18,o),
(540.93,375.33,o),
(541.22,377.49,cs),
(543.32,393.36,o),
(538.17,402.49,o),
(523.33,408.41,cs),
(505.36,415.57,o),
(488.73,412.85,o),
(473.67,400.89,cs),
(469.2,397.34,o),
(465.2,393.21,o),
(459.88,388.34,c),
(457.43,398.61,o),
(457.17,408.81,o),
(449.38,416.2,cs),
(441.46,423.7,o),
(431.44,425.57,o),
(420.96,427.86,c),
(420.48,436.15,o),
(415.36,441.97,o),
(410.78,447.88,c),
(411.89,449.67,o),
(412.8,450.99,o),
(413.57,452.4,cs),
(419.43,463.22,o),
(423.25,474.76,o),
(424.8,486.93,cs),
(427.2,506.01,o),
(414.43,517.82,o),
(395.51,514.14,cs),
(388.09,512.7,o),
(381.82,508.98,o),
(376.17,503.99,cs),
(374.12,502.18,o),
(372.91,499.31,o),
(369.99,498.54,c),
(359.28,511.12,o),
(349.47,514.06,o),
(336.2,508.85,cs),
(327.12,505.29,o),
(320.67,498.82,o),
(315.99,490.48,cs),
(310.7,481.06,o),
(308.36,470.8,o),
(308.15,460.08,cs),
(307.97,452.43,o),
(308.1,444.79,o),
(308.1,436.01,c),
(301.08,439.43,o),
(294.66,438.99,o),
(288.29,435.69,cs),
(282.32,432.59,o),
(277.77,427.63,o),
(272.24,423.33,c),
(269.9,426.27,o),
(268,428.81,o),
(265.95,431.23,cs),
(250.64,449.31,o),
(228.01,448.92,o),
(213.21,430.33,cs),
(210.19,426.56,o),
(207.84,422.39,o),
(205.71,418.06,cs),
(204.76,416.12,o),
(204.65,413.62,o),
(201.68,412.16,c),
(185.57,421.87,o),
(174.68,411.45,o),
(164.39,400.69,c),
(150.97,409.53,o),
(141.73,408.17,o),
(132.05,396.45,cs),
(131.44,395.71,o),
(130.76,394.98,o),
(130.32,394.14,cs),
(123.56,381.33,o),
(112.29,373.74,o),
(99.85,367.25,cs),
(87.62,360.86,o),
(76.01,353.43,o),
(65.59,344.28,cs),
(60.23,339.59,o),
(55.51,334.41,o),
(52.56,327.81,cs),
(43.22,306.87,o),
(60.83,282.6,o),
(81.21,285.03,cs),
(83.39,285.3,o),
(85.66,285.92,o),
(88.21,284.63,c),
(86.66,277.29,o),
(83.94,270.07,o),
(83.55,262.4,cs),
(83.16,254.51,o),
(84.94,247.13,o),
(89.2,240.42,cs),
(93.41,233.79,o),
(98.96,228.47,o),
(105.96,224.94,cs),
(128.48,213.58,o),
(144.48,224.6,o),
(158.57,240.97,c),
(172.39,228.63,o),
(176.36,228.97,o),
(202.7,244.71,c),
(204.44,236.13,o),
(203.35,227.4,o),
(206.17,219.16,cs),
(209.17,210.42,o),
(215.15,204.13,o),
(223.17,197.76,c),
(214.09,196.26,o),
(206.49,195.39,o),
(199.23,193,cs),
(186.37,188.76,o),
(175.87,181.14,o),
(172,168,cs),
(169.76,160.31,o),
(165.44,157.45,o),
(158.82,154.95,cs),
(139.74,147.74,o),
(122.25,137.84,o),
(108.08,122.8,cs),
(99.03,113.2,o),
(92.81,102.11,o),
(91.64,88.81,cs),
(90.4,74.63,o),
(93.79,61.66,o),
(105.93,53.08,cs),
(117.8,44.66,o),
(130.25,47.45,o),
(142.33,53.56,cs),
(144.83,54.83,o),
(146.8,57.21,o),
(149.99,57.25,c),
(151.54,53.28,o),
(151.7,49.1,o),
(152.34,45.01,cs),
(154.84,29.59,o),
(159.89,15.22,o),
(169.45,2.67,cs),
(175.4,-5.12,o),
(182.68,-11.23,o),
(191.87,-14.91,cs)
);
},
{
closed = 1;
nodes = (
(204.18,23.16,o),
(194.65,23.45,o),
(189.79,32.23,cs),
(186.81,37.6,o),
(185.47,43.55,o),
(184.82,49.65,cs),
(183.55,61.52,o),
(184.34,73.33,o),
(185.87,85.09,cs),
(186.42,89.24,o),
(187.03,93.4,o),
(186.02,97.48,cs),
(184.63,102.95,o),
(180.86,104.92,o),
(175.86,102.29,cs),
(171.96,100.23,o),
(168.55,97.16,o),
(164.97,94.48,cs),
(160.34,91.01,o),
(155.7,87.61,o),
(149.78,86.66,cs),
(141.13,85.27,o),
(135.12,90.42,o),
(135.86,99.1,cs),
(136.67,108.33,o),
(141.31,115.47,o),
(149.59,119.78,cs),
(156.11,123.18,o),
(162.77,126.34,o),
(169.57,129.1,cs),
(185.26,135.44,o),
(195.96,146.94,o),
(203.44,161.6,cs),
(205.47,165.6,o),
(207.29,169.36,o),
(212.17,169.08,cs),
(216.85,168.81,o),
(220.8,166.21,o),
(222.94,161.98,cs),
(225.67,156.54,o),
(227.42,150.71,o),
(227.65,144.53,cs),
(227.76,140.83,o),
(226.5,137.6,o),
(224.34,134.7,cs),
(221.66,131.09,o),
(218.95,127.54,o),
(216.18,124.01,cs),
(208.08,113.65,o),
(205.63,102.24,o),
(210.07,89.73,cs),
(215.22,75.2,o),
(215.99,60.36,o),
(213.92,45.23,cs),
(213.26,40.44,o),
(212.44,35.68,o),
(209.73,31.58,cs)
);
},
{
closed = 1;
nodes = (
(266.2,34.09,o),
(255.23,35.43,o),
(250.41,46.72,cs),
(247.73,52.98,o),
(247.01,59.69,o),
(246.83,66.43,cs),
(246.68,71.87,o),
(246.67,77.32,o),
(246.88,82.75,cs),
(247.2,91.72,o),
(245.32,99.93,o),
(239.27,106.83,cs),
(236.17,110.36,o),
(235.3,113.93,o),
(238.3,118.07,cs),
(242.03,123.26,o),
(245.91,124.96,o),
(251.67,123.62,cs),
(252.51,123.43,o),
(253.48,123.75,o),
(255.23,123.89,cs),
(255.25,123.87,ls),
(256.57,129.85,o),
(255.9,135.31,o),
(256.02,140.69,cs),
(256.29,152.13,o),
(259.15,162.84,o),
(265.1,172.61,cs),
(271.26,182.69,o),
(279.71,184.56,o),
(289.46,177.98,cs),
(292.09,176.21,o),
(294.75,174.11,o),
(296.51,171.56,cs),
(308.33,154.51,o),
(311.35,135.83,o),
(305.64,115.88,cs),
(304.49,111.88,o),
(302.25,108.23,o),
(298.64,105.8,cs),
(294.93,103.32,o),
(292.12,104.25,o),
(290.3,108.4,cs),
(289.12,111.11,o),
(288.93,113.98,o),
(288.9,116.87,cs),
(288.87,122.64,o),
(288.87,128.4,o),
(288.87,134.16,cs),
(288.89,137.71,o),
(288.5,141.22,o),
(286.71,144.37,cs),
(283.34,150.27,o),
(277.21,150.31,o),
(273.94,144.39,cs),
(272.02,140.95,o),
(271.71,137.12,o),
(271.62,133.23,cs),
(271.31,119.68,o),
(274.18,106.52,o),
(276.44,93.29,cs),
(278.21,82.85,o),
(279.94,72.45,o),
(279.46,61.82,cs),
(279.14,55.32,o),
(277.93,49.06,o),
(273.8,43.8,cs)
);
},
{
closed = 1;
nodes = (
(129.63,250.15,o),
(121.76,250.08,o),
(116.56,258.2,cs),
(110.41,267.78,o),
(109,278.52,o),
(110.69,289.62,cs),
(111.82,296.89,o),
(113.72,304.04,o),
(115,311.28,cs),
(114.97,311.26,ls),
(115.76,315.84,o),
(117.02,320.6,o),
(113.99,325.49,c),
(108.65,325.1,o),
(106.63,321.43,o),
(103.83,318.97,cs),
(99.73,315.41,o),
(95.8,311.55,o),
(90.67,309.45,cs),
(83.48,306.5,o),
(78.44,310.4,o),
(79.52,318.1,cs),
(80.26,323.44,o),
(83.07,327.76,o),
(87.39,330.84,cs),
(91.81,334,o),
(96.49,336.84,o),
(101.16,339.58,cs),
(114.37,347.34,o),
(125.89,356.76,o),
(132.82,370.86,cs),
(135.37,376.01,o),
(140.35,377.34,o),
(145.14,379.15,c),
(151.09,375.49,o),
(150.5,369.86,o),
(149.75,364.54,cs),
(148.7,357.18,o),
(146.28,350.12,o),
(142.3,343.88,cs),
(135.77,333.67,o),
(135.44,322.98,o),
(137.8,311.56,cs),
(140.2,299.95,o),
(141.46,288.16,o),
(140.56,276.24,cs),
(140.08,269.8,o),
(138.96,263.47,o),
(135.16,258.05,cs)
);
},
{
closed = 1;
nodes = (
(337.62,68.26,o),
(331.2,76.03,o),
(326.31,85.52,cs),
(323.5,90.97,o),
(321.92,96.84,o),
(320.95,102.89,cs),
(318.22,120.12,o),
(318.18,137.31,o),
(321.92,154.39,cs),
(323.65,162.25,o),
(326.81,169.62,o),
(331.79,176.07,cs),
(335.35,180.67,o),
(339.45,184.68,o),
(344.66,187.39,cs),
(355.98,193.26,o),
(365.69,189.42,o),
(369.87,177.47,cs),
(372.16,170.94,o),
(372.18,164.28,o),
(370.87,157.57,cs),
(369.37,150.01,o),
(366.72,142.8,o),
(363.82,135.68,cs),
(361.64,130.34,o),
(359.61,124.95,o),
(357.53,119.58,cs),
(356.06,115.76,o),
(355.93,112.16,o),
(359.85,108.77,cs),
(359.88,108.79,ls),
(369.01,116.52,o),
(374.8,129.6,o),
(388.77,129.76,c),
(390.8,127.39,o),
(390.53,125.82,o),
(390.06,124.28,cs),
(385.8,110.17,o),
(380.85,96.28,o),
(373.41,83.5,cs),
(368.07,74.35,o),
(361.33,66.63,o),
(349.28,67.45,cs)
);
},
{
closed = 1;
nodes = (
(343.67,125.14,o),
(354.23,151.88,o),
(354.42,154.51,cs),
(354.55,156.4,o),
(354.6,158.35,o),
(354.34,160.22,cs),
(353.81,164.07,o),
(351.6,166.85,o),
(347.78,167.49,cs),
(343.78,168.17,o),
(342.36,164.88,o),
(341.07,161.91,cs),
(335.21,148.52,o),
(337.49,135.26,o),
(341.23,121.25,c)
);
},
{
closed = 1;
nodes = (
(177.95,270.78,o),
(174.01,271.49,o),
(170.98,275.09,cs),
(167.79,278.88,o),
(166.3,283.41,o),
(165.53,288.22,cs),
(164.38,295.2,o),
(164.21,302.24,o),
(164.64,309.3,cs),
(164.96,314.49,o),
(164.53,319.56,o),
(159.74,323.09,cs),
(158.76,323.82,o),
(158.06,325.04,o),
(157.48,326.17,cs),
(154.98,330.96,o),
(153.87,336.19,o),
(157.06,340.77,cs),
(160.12,345.16,o),
(165.21,345.33,o),
(170.17,344.17,cs),
(171.7,343.8,o),
(173.15,343.02,o),
(175.12,343.64,c),
(175.77,348.83,o),
(176.17,354.22,o),
(177.15,359.53,cs),
(178.71,368.14,o),
(181.8,376.22,o),
(187.52,382.98,cs),
(192.88,389.27,o),
(197.47,388.93,o),
(202.13,382.03,cs),
(206.34,375.8,o),
(208.29,368.63,o),
(209.47,361.35,cs),
(210.89,352.51,o),
(211.81,343.58,o),
(212.7,334.67,cs),
(213.01,331.51,o),
(212.93,328.22,o),
(212.39,325.11,cs),
(211.33,318.71,o),
(207.42,315.13,o),
(202.41,315.4,cs),
(197.54,315.67,o),
(193.51,319.77,o),
(192.67,325.69,cs),
(192.06,330.17,o),
(192.51,334.64,o),
(193.43,339.08,cs),
(194.17,342.74,o),
(195.35,346.42,o),
(193.51,350.56,cs),
(193.54,350.55,ls),
(187.09,349.71,o),
(186.14,344.6,o),
(185.46,340.13,cs),
(184.07,331.23,o),
(184.3,322.24,o),
(185.96,313.34,cs),
(187.38,305.79,o),
(189.09,298.31,o),
(189.77,290.63,cs),
(190.11,286.73,o),
(189.93,282.94,o),
(188.95,279.19,cs),
(188.01,275.63,o),
(186.26,272.64,o),
(182.3,271.75,cs)
);
},
{
closed = 1;
nodes = (
(253.51,217.17,o),
(243.64,218.9,o),
(239.43,230.16,cs),
(235.14,241.52,o),
(237.09,252.37,o),
(244.82,261.87,cs),
(244.83,261.86,ls),
(257.27,277.17,o),
(274.38,282.18,o),
(293.96,283.46,c),
(280.2,265.75,o),
(272.38,245.06,o),
(260.17,227.01,cs)
);
},
{
closed = 1;
nodes = (
(234.36,296.12,o),
(233.26,304.69,o),
(233.55,313.48,cs),
(233.71,318.4,o),
(234.23,323.35,o),
(234.92,328.22,cs),
(236.65,340.25,o),
(235.21,350.88,o),
(222.26,356.93,c),
(225.94,366.2,o),
(233.07,371.08,o),
(241.26,374.37,cs),
(246.73,376.56,o),
(250.7,374.52,o),
(253.44,369.06,cs),
(256.2,363.58,o),
(257.07,357.58,o),
(256.44,351.54,cs),
(254.31,331.1,o),
(249.75,311.22,o),
(242.6,291.94,cs),
(242.64,291.94,ls),
(242.17,290.68,o),
(241.25,289.57,o),
(239.49,286.67,c)
);
},
{
closed = 1;
nodes = (
(333.24,225.2,o),
(323.69,225.87,o),
(317.15,233.68,cs),
(312.88,238.79,o),
(310.63,244.92,o),
(310.54,251.36,cs),
(310.3,269.34,o),
(315.86,284.81,o),
(332.19,294.47,cs),
(339.8,298.99,o),
(348.01,300.78,o),
(356.09,296.74,c),
(356.41,295.48,o),
(356.64,295.13,o),
(356.56,294.89,cs),
(351.17,279.66,o),
(350.95,263.61,o),
(349.04,247.84,cs),
(348.3,241.6,o),
(345.48,236.24,o),
(340.8,232.02,cs)
);
},
{
closed = 1;
nodes = (
(332.89,248.69,o),
(335.63,251.11,o),
(337.32,254.4,cs),
(339.69,258.98,o),
(341.06,263.92,o),
(341.38,269.38,cs),
(341.3,270.38,o),
(341.27,271.67,o),
(341.11,272.94,cs),
(341.14,272.94,ls),
(340.58,277.1,o),
(338.56,280.2,o),
(334.33,281.3,cs),
(329.78,282.48,o),
(327.09,279.88,o),
(324.99,276.32,cs),
(321.41,270.29,o),
(320.22,263.8,o),
(321.47,256.9,cs),
(322.24,252.72,o),
(324.5,249.74,o),
(328.87,249.19,cs)
);
},
{
closed = 1;
nodes = (
(410.46,117.33,o),
(408.2,121.19,o),
(406.33,125.28,cs),
(402.39,133.81,o),
(400.49,142.93,o),
(399.46,152.17,cs),
(397.75,167.17,o),
(396.67,182.22,o),
(400.09,197.11,cs),
(400.11,197.1,ls),
(404.92,218.12,o),
(416.88,225.15,o),
(437.89,219.44,c),
(443.25,222.36,o),
(445.79,226.92,o),
(449.02,230.86,cs),
(454.31,237.31,o),
(459.52,239.78,o),
(463.54,237.38,cs),
(469.38,233.86,o),
(468.99,227.7,o),
(467.41,222.75,cs),
(463.65,210.89,o),
(463.38,198.88,o),
(463.38,186.68,cs),
(463.38,177.44,o),
(465.64,170.23,o),
(476.01,168.15,cs),
(480.22,167.3,o),
(481.2,163.83,o),
(481.57,160.13,cs),
(482.51,150.89,o),
(480.62,142.23,o),
(475.63,134.4,cs),
(473.08,130.38,o),
(470.32,125.79,o),
(464.48,126.98,cs),
(458.56,128.19,o),
(453.92,131.22,o),
(452.54,137.85,cs),
(450.99,145.29,o),
(449.1,152.64,o),
(447.28,160.46,c),
(442.39,159.83,o),
(441.62,155.99,o),
(440.33,153.06,cs),
(436.33,143.96,o),
(432.72,134.72,o),
(428.78,125.61,cs),
(427.13,121.8,o),
(425.38,117.98,o),
(422.46,114.9,cs),
(419.81,112.08,o),
(417.04,111.9,o),
(414.02,114.38,cs)
);
},
{
closed = 1;
nodes = (
(424.15,158.12,o),
(431.16,159.09,o),
(434.34,166.86,cs),
(436.39,171.88,o),
(437.44,177.22,o),
(437.71,182.67,cs),
(438,189.33,o),
(436.08,192.59,o),
(430.73,194.56,cs),
(426.16,196.24,o),
(420.88,194.19,o),
(417.45,189.43,cs),
(412.45,182.48,o),
(412.98,170.91,o),
(418.63,164.46,cs)
);
},
{
closed = 1;
nodes = (
(236.98,380.6,o),
(233.56,381.92,o),
(230.56,384.95,cs),
(223.75,391.85,o),
(225.79,408.14,o),
(234.06,413.26,cs),
(238.27,415.89,o),
(242.14,413.99,o),
(245.85,412.15,cs),
(250.24,409.99,o),
(251.98,406.91,o),
(252.14,400.96,cs),
(251.41,394.04,o),
(247.83,387.56,o),
(240.9,383.1,cs)
);
},
{
closed = 1;
nodes = (
(277.47,337.57,o),
(275.31,340.46,o),
(274.65,343.94,cs),
(271.26,361.83,o),
(270.8,379.47,o),
(278.8,396.51,cs),
(282.22,403.8,o),
(287.66,408.01,o),
(295.66,408.99,cs),
(302,409.76,o),
(306.9,407.41,o),
(308.19,402.81,cs),
(309.84,397,o),
(307.38,390.7,o),
(302.04,388.07,cs),
(302.03,388.08,ls),
(298.9,386.55,o),
(295.45,385.69,o),
(291.74,384.39,c),
(286,367.41,o),
(286.93,348.36,o),
(293.53,342.2,c),
(298.11,342.86,o),
(298.34,346.76,o),
(299.3,350.06,cs),
(300.93,355.58,o),
(302.36,361.14,o),
(304.03,366.64,cs),
(305.14,370.35,o),
(306.84,373.83,o),
(309.37,376.75,cs),
(311.69,379.41,o),
(314.31,382.23,o),
(318.34,380.33,cs),
(321.79,378.7,o),
(325.18,376.88,o),
(325.18,372.09,cs),
(325.18,358.75,o),
(322.92,346.14,o),
(315.39,334.67,cs),
(306.41,320.96,o),
(286,323.99,o),
(279.34,334.57,cs)
);
},
{
closed = 1;
nodes = (
(386.7,240.84,ls),
(382.01,244.89,o),
(381.43,250.02,o),
(381.04,255.13,cs),
(380.43,263.18,o),
(381.36,271.11,o),
(383.07,278.99,cs),
(385.13,288.41,o),
(383.86,296.56,o),
(375.63,303.1,cs),
(370.71,307.04,o),
(370.71,310.36,o),
(373.68,314.76,cs),
(376.83,319.44,o),
(380.26,319.86,o),
(384.57,315.89,cs),
(385.73,314.83,o),
(386.39,313.26,o),
(386.73,312.76,c),
(392.67,312.66,o),
(393.78,316.42,o),
(395.5,319.36,cs),
(398.11,323.76,o),
(400.53,328.31,o),
(404.56,331.67,cs),
(412.42,338.17,o),
(422.13,336.88,o),
(427.95,328.56,cs),
(435.77,317.43,o),
(431.6,296.3,o),
(420.14,288.87,cs),
(418.2,287.61,o),
(416.22,286.69,o),
(412.91,287.98,c),
(410.97,292.67,o),
(411.99,297.93,o),
(412.91,303.21,cs),
(413.6,307.21,o),
(415.51,311.66,o),
(410.65,314.34,cs),
(407.62,316.02,o),
(403.71,313.23,o),
(400.26,307.65,cs),
(395.34,299.7,o),
(396.03,291.08,o),
(397.32,282.46,cs),
(398.11,277.09,o),
(399.63,271.78,o),
(400.16,266.39,cs),
(401.32,254.74,o),
(396.43,245.55,o),
(386.66,240.84,cs)
);
},
{
closed = 1;
nodes = (
(506.14,176.37,o),
(498.09,178.95,o),
(492.85,188.08,cs),
(488.35,195.92,o),
(487.96,204.55,o),
(487.96,213.24,cs),
(487.93,213.25,ls),
(487.93,216.46,o),
(488.22,219.65,o),
(488.27,220.56,cs),
(488.66,234.11,o),
(488.62,245.32,o),
(485.01,256.16,cs),
(481.46,266.81,o),
(477.03,268.63,o),
(466.99,263.39,cs),
(463.02,261.31,o),
(459.39,258.5,o),
(455.31,256.74,cs),
(447.13,253.21,o),
(441.12,258.05,o),
(442.58,266.9,cs),
(443.73,273.79,o),
(447.71,279.19,o),
(452.74,283.9,cs),
(461.82,292.46,o),
(472.35,298.4,o),
(484.68,300.48,cs),
(500.57,303.16,o),
(514.46,309.93,o),
(527.33,319.32,cs),
(534.57,324.59,o),
(541.73,330.09,o),
(550.15,333.43,cs),
(558.71,336.82,o),
(562.21,334.82,o),
(563.25,325.75,cs),
(564.6,314.02,o),
(561.15,304.07,o),
(550.73,297.64,cs),
(544.75,293.95,o),
(538.49,290.66,o),
(532.12,287.64,cs),
(522.86,283.25,o),
(519.83,275.88,o),
(521.57,266.37,cs),
(523.02,258.51,o),
(525.23,250.8,o),
(526.91,243,cs),
(530.01,228.55,o),
(532.81,214.08,o),
(529.67,199.22,cs),
(527.91,190.85,o),
(523.59,184.53,o),
(515.72,180.85,cs)
);
},
{
closed = 1;
nodes = (
(356.41,340.95,o),
(350.17,342.45,o),
(347.67,350.34,cs),
(346.48,354.11,o),
(346.48,358,o),
(346.91,361.78,cs),
(349.64,384.8,o),
(345.73,407.04,o),
(339.65,429.12,cs),
(337.12,438.35,o),
(334.62,447.67,o),
(334.62,457.4,cs),
(334.64,461.24,o),
(334.68,465.09,o),
(336.75,468.58,cs),
(338.85,472.13,o),
(341.65,474.47,o),
(345.99,474.34,cs),
(350.51,474.23,o),
(352.88,471.34,o),
(354.33,467.52,cs),
(356.17,462.6,o),
(356.54,457.54,o),
(355.54,452.39,cs),
(355.01,449.66,o),
(353.44,447,o),
(355.48,442.94,cs),
(355.47,442.91,ls),
(362.13,451.01,o),
(366.26,459.25,o),
(370.37,467.51,cs),
(372.35,471.53,o),
(374.22,475.66,o),
(377.55,478.8,cs),
(383.71,484.66,o),
(390.58,482.75,o),
(392.71,474.43,cs),
(394.31,468.16,o),
(393.27,462.27,o),
(388.44,457.59,cs),
(385.44,454.72,o),
(382.26,451.98,o),
(378.89,449.56,cs),
(373.28,445.53,o),
(371.05,439.93,o),
(370.2,433.8,c),
(371.55,432.33,o),
(372.28,433.3,o),
(373.04,433.64,cs),
(381.57,437.54,o),
(386.98,436.5,o),
(390.2,428.22,cs),
(393.15,420.67,o),
(397.85,416.95,o),
(405.01,413.59,cs),
(421.43,405.94,o),
(428.61,380.91,o),
(419.09,365.62,cs),
(414.67,358.52,o),
(407.72,353.41,o),
(399.23,351.6,cs),
(392.39,350.15,o),
(387.55,353.99,o),
(383.78,359.15,cs),
(378.68,366.05,o),
(376.8,374.18,o),
(375.54,382.46,cs),
(374.65,388.15,o),
(374.09,393.88,o),
(373.41,399.61,cs),
(372.41,408.22,o),
(370.38,412.19,o),
(367.35,410.92,cs),
(361.49,408.45,o),
(363.2,402.74,o),
(363.54,398.34,cs),
(364.27,389.1,o),
(365.75,379.92,o),
(367.09,370.74,cs),
(367.9,365.24,o),
(367.44,359.9,o),
(366.07,354.56,cs),
(365.34,351.71,o),
(364.13,349.12,o),
(362.12,347,cs)
);
},
{
closed = 1;
nodes = (
(464.38,351.07,o),
(469.24,360.81,o),
(476.75,368.78,cs),
(480.96,373.25,o),
(485.59,377.15,o),
(491.7,378.83,cs),
(499.54,380.99,o),
(504.22,378.17,o),
(505.68,370.35,cs),
(507.71,359.56,o),
(500.28,345.8,o),
(489.82,342.59,cs),
(479.74,339.49,o),
(469.3,338.01,o),
(458.06,341.43,cs),
(458.09,341.42,ls)
);
}
);
width = 645;
}
);
note = one;
unicode = 49;
},
{
glyphname = two;
lastChange = "2024-09-22 23:08:54 +0000";
layers = (
{
layerId = m01;
shapes = (
{
closed = 1;
nodes = (
(236,-4,o),
(249,-2,o),
(259,8,cs),
(264,13,o),
(270,17,o),
(276,19,cs),
(301,28,ls),
(327,36,o),
(353,41,o),
(378,49,cs),
(402,57,o),
(424,67,o),
(443,83,cs),
(453,91,o),
(463,101,o),
(469,113,cs),
(476,128,o),
(468,143,o),
(454,145,cs),
(453,145,o),
(452,145,o),
(451,146,c),
(450,154,o),
(454,161,o),
(457,167,cs),
(463,182,o),
(467,196,o),
(469,212,cs),
(472,228,o),
(472,245,o),
(474,261,cs),
(476,279,o),
(478,297,o),
(478,315,cs),
(478,326,o),
(476,338,o),
(469,347,cs),
(462,355,o),
(461,363,o),
(463,373,cs),
(465,379,o),
(466,385,o),
(465,392,cs),
(465,395,o),
(464,398,o),
(462,400,cs),
(454,406,o),
(447,412,o),
(436,411,cs),
(434,411,o),
(431,410,o),
(429,412,c),
(428,415,l),
(418,448,ls),
(416,454,o),
(412,458,o),
(404,457,c),
(402,456,o),
(399,457,o),
(398,459,c),
(392,466,o),
(385,471,o),
(378,475,c),
(379,483,ls),
(379,484,o),
(378,486,o),
(377,487,cs),
(371,492,o),
(358,491,o),
(353,486,cs),
(337,469,l),
(332,472,o),
(327,471,o),
(323,471,c),
(316,480,o),
(309,488,o),
(302,495,cs),
(295,501,o),
(292,501,o),
(285,495,cs),
(270,482,l),
(250,491,o),
(232,486,o),
(214,474,c),
(207,485,ls),
(200,497,o),
(197,498,o),
(184,493,cs),
(174,489,o),
(165,485,o),
(155,480,cs),
(134,468,o),
(136,471,o),
(134,446,c),
(133,443,o),
(135,439,o),
(132,436,c),
(128,438,o),
(127,442,o),
(125,444,c),
(119,454,o),
(114,456,o),
(103,452,cs),
(88,445,ls),
(72,436,o),
(72,436,o),
(79,420,cs),
(89,398,l),
(76,396,o),
(67,388,o),
(64,375,cs),
(61,363,o),
(62,351,o),
(70,340,c),
(68,335,ls),
(61,317,o),
(58,298,o),
(59,279,cs),
(60,262,o),
(58,245,o),
(53,229,cs),
(50,220,o),
(49,212,o),
(51,202,cs),
(55,174,o),
(67,149,o),
(81,125,cs),
(85,118,o),
(86,116,o),
(81,109,cs),
(74,100,ls),
(67,89,o),
(71,80,o),
(84,78,cs),
(90,77,o),
(96,77,o),
(101,77,cs),
(116,77,o),
(129,71,o),
(141,62,cs),
(149,56,o),
(156,49,o),
(163,41,cs),
(171,32,o),
(180,22,o),
(190,14,cs),
(199,6,o),
(210,0,o),
(222,-2,cs)
);
},
{
closed = 1;
nodes = (
(211,10,o),
(204,14,o),
(197,20,cs),
(187,27,o),
(179,36,o),
(171,45,cs),
(162,55,o),
(154,64,o),
(144,71,cs),
(131,80,o),
(116,85,o),
(100,86,cs),
(89,87,ls),
(85,87,o),
(81,87,o),
(79,91,cs),
(77,96,o),
(81,99,o),
(84,102,cs),
(93,113,l),
(117,100,l),
(139,86,ls),
(143,84,o),
(146,81,o),
(151,81,c),
(151,86,o),
(148,89,o),
(145,93,cs),
(136,102,o),
(126,110,o),
(114,115,cs),
(100,122,o),
(91,131,o),
(85,145,cs),
(77,163,o),
(68,180,o),
(64,200,cs),
(62,209,o),
(62,217,o),
(65,225,cs),
(71,245,o),
(72,265,o),
(70,284,cs),
(68,305,o),
(73,325,o),
(79,344,c),
(79,345,o),
(80,346,o),
(81,347,c),
(96,333,o),
(112,322,o),
(133,316,c),
(130,320,o),
(127,321,o),
(124,323,cs),
(110,331,o),
(96,342,o),
(85,354,cs),
(78,362,o),
(79,370,o),
(82,378,cs),
(84,382,o),
(87,383,o),
(91,381,cs),
(96,379,o),
(99,375,o),
(102,372,cs),
(117,353,o),
(137,343,o),
(161,341,cs),
(174,340,o),
(187,342,o),
(200,344,cs),
(217,347,o),
(233,352,o),
(250,354,cs),
(266,355,o),
(280,352,o),
(293,342,cs),
(306,332,ls),
(321,323,o),
(337,321,o),
(354,326,cs),
(369,330,l),
(361,321,l),
(369,323,o),
(391,339,o),
(407,354,cs),
(421,368,o),
(430,384,o),
(435,402,c),
(439,404,o),
(442,402,o),
(445,401,cs),
(452,398,o),
(454,393,o),
(453,386,cs),
(452,378,o),
(449,370,o),
(445,364,cs),
(431,343,o),
(415,325,o),
(393,314,cs),
(353,293,l),
(343,287,l),
(355,287,o),
(382,299,o),
(405,312,cs),
(425,323,o),
(439,339,o),
(451,358,c),
(463,338,o),
(470,318,o),
(466,294,cs),
(462,271,o),
(461,248,o),
(459,224,cs),
(458,207,o),
(455,190,o),
(447,174,cs),
(443,163,o),
(439,152,o),
(436,141,cs),
(435,136,o),
(433,132,o),
(430,129,cs),
(425,122,o),
(420,115,o),
(417,108,cs),
(407,89,o),
(392,79,o),
(372,76,cs),
(348,73,o),
(326,67,o),
(303,58,cs),
(287,52,o),
(270,46,o),
(252,44,cs),
(247,43,o),
(241,43,o),
(236,44,cs),
(224,47,o),
(212,50,o),
(200,55,c),
(201,50,o),
(205,48,o),
(209,46,cs),
(230,33,o),
(252,31,o),
(275,38,cs),
(308,50,ls),
(329,59,o),
(350,65,o),
(373,68,cs),
(396,72,o),
(414,82,o),
(426,104,cs),
(430,112,o),
(437,120,o),
(442,128,cs),
(444,132,o),
(448,133,o),
(452,133,cs),
(460,134,o),
(463,129,o),
(459,123,cs),
(448,106,o),
(435,91,o),
(418,80,cs),
(401,70,o),
(382,63,o),
(363,57,cs),
(297,38,ls),
(288,35,o),
(280,32,o),
(271,28,cs),
(265,25,o),
(258,21,o),
(253,16,cs),
(244,6,o),
(233,5,o),
(220,8,cs)
);
},
{
closed = 1;
nodes = (
(179,110,o),
(181,108,o),
(184,111,c),
(181,117,o),
(175,119,o),
(170,122,cs),
(144,136,l),
(138,138,o),
(135,142,o),
(135,148,c),
(132,165,ls),
(131,168,o),
(131,171,o),
(127,171,c),
(125,170,o),
(124,168,o),
(124,166,cs),
(124,157,o),
(123,148,o),
(124,140,cs),
(125,135,o),
(128,131,o),
(132,128,cs),
(135,125,o),
(139,123,o),
(144,121,cs),
(176,110,l)
);
},
{
closed = 1;
nodes = (
(170,192,o),
(169,194,o),
(167,195,c),
(159,202,o),
(153,210,o),
(147,218,cs),
(143,223,o),
(137,225,o),
(131,226,cs),
(126,227,o),
(122,227,o),
(117,227,cs),
(108,227,o),
(107,228,o),
(107,237,cs),
(108,243,ls),
(109,251,o),
(109,259,o),
(108,268,cs),
(108,270,o),
(109,273,o),
(105,274,c),
(104,257,ls),
(103,248,o),
(101,240,o),
(99,231,cs),
(97,221,o),
(101,216,o),
(110,213,cs),
(114,212,o),
(118,211,o),
(121,211,cs),
(130,211,o),
(136,208,o),
(142,202,cs),
(147,196,o),
(153,192,o),
(160,190,cs),
(163,189,o),
(166,187,o),
(169,189,c)
);
},
{
closed = 1;
nodes = (
(337,86,ls),
(349,96,o),
(361,106,o),
(375,113,cs),
(379,115,o),
(383,118,o),
(387,121,cs),
(391,124,o),
(394,126,o),
(396,131,c),
(394,131,o),
(393,132,o),
(392,131,c),
(386,130,l),
(367,122,o),
(348,114,o),
(333,100,cs),
(325,94,ls),
(320,90,o),
(315,90,o),
(311,93,cs),
(295,104,l),
(293,106,o),
(291,107,o),
(289,105,cs),
(287,103,o),
(288,101,o),
(289,99,cs),
(291,94,o),
(295,90,o),
(299,86,cs),
(312,73,o),
(320,73,o),
(335,84,cs)
);
},
{
closed = 1;
nodes = (
(303,171,o),
(317,183,o),
(329,199,cs),
(330,201,o),
(332,203,o),
(331,206,c),
(327,207,o),
(324,204,o),
(322,202,cs),
(315,195,o),
(307,188,o),
(299,183,cs),
(280,171,o),
(263,171,o),
(245,185,cs),
(237,191,o),
(230,199,o),
(223,205,cs),
(220,208,o),
(218,212,o),
(213,212,c),
(213,211,o),
(213,210,o),
(213,209,c),
(222,194,o),
(230,179,o),
(245,168,cs),
(257,158,o),
(270,157,o),
(284,163,cs)
);
},
{
closed = 1;
nodes = (
(236,259,ls),
(240,261,o),
(245,262,o),
(251,267,c),
(228,266,ls),
(212,265,o),
(195,264,o),
(179,272,c),
(179,272,o),
(178,272,o),
(177,271,c),
(182,265,o),
(187,260,o),
(193,255,cs),
(199,249,o),
(206,248,o),
(214,251,cs)
);
},
{
closed = 1;
nodes = (
(113,371,o),
(110,375,o),
(105,379,c),
(109,384,o),
(107,389,o),
(104,394,cs),
(87,427,l),
(84,433,ls),
(83,435,o),
(84,436,o),
(86,437,cs),
(87,438,o),
(89,438,o),
(90,436,cs),
(93,431,l),
(119,378,l),
(122,374,o),
(122,370,o),
(117,368,c)
);
},
{
closed = 1;
nodes = (
(93,442,l),
(95,445,o),
(98,446,o),
(101,448,cs),
(110,452,o),
(114,451,o),
(119,442,cs),
(130,424,l),
(125,422,o),
(116,424,o),
(116,416,cs),
(116,411,o),
(119,406,o),
(123,405,cs),
(130,404,o),
(132,409,o),
(135,414,c),
(141,407,o),
(144,398,o),
(151,390,c),
(143,385,o),
(135,382,o),
(127,376,c)
);
},
{
closed = 1;
nodes = (
(135,390,o),
(136,391,o),
(136,392,c),
(135,394,o),
(134,395,o),
(132,395,c),
(131,394,o),
(130,393,o),
(130,391,c),
(131,390,o),
(132,389,o),
(134,390,c)
);
},
{
closed = 1;
nodes = (
(295,236,o),
(300,237,o),
(306,250,c),
(284,243,l)
);
},
{
closed = 1;
nodes = (
(209,354,o),
(207,355,o),
(204,359,cs),
(193,371,o),
(179,377,o),
(163,375,cs),
(151,373,o),
(141,366,o),
(131,359,c),
(128,359,o),
(126,361,o),
(124,363,c),
(134,375,o),
(146,381,o),
(160,386,cs),
(176,390,o),
(203,382,o),
(213,356,c)
);
},
{
closed = 1;
nodes = (
(111,429,o),
(112,431,o),
(112,434,c),
(113,437,o),
(111,439,o),
(108,439,cs),
(105,439,o),
(103,438,o),
(103,435,cs),
(103,431,o),
(104,429,o),
(108,429,cs)
);
},
{
closed = 1;
nodes = (
(299,292,o),
(304,292,o),
(311,295,c),
(308,301,o),
(304,304,o),
(299,306,cs),
(290,309,o),
(282,312,o),
(273,316,cs),
(258,324,o),
(242,325,o),
(225,321,cs),
(206,315,o),
(186,313,o),
(166,309,cs),
(163,308,o),
(158,309,o),
(156,304,c),
(164,302,o),
(171,303,o),
(178,304,cs),
(236,313,ls),
(241,314,o),
(245,313,o),
(249,311,cs),
(263,303,o),
(278,298,o),
(294,294,cs)
);
},
{
closed = 1;
nodes = (
(140,424,o),
(139,429,o),
(136,433,c),
(139,438,o),
(144,441,o),
(149,445,c),
(152,441,o),
(152,438,o),
(153,435,c),
(148,433,o),
(145,428,o),
(144,421,c)
);
},
{
closed = 1;
nodes = (
(169,406,o),
(158,408,o),
(147,407,c),
(147,415,o),
(148,421,o),
(151,428,c),
(171,430,ls),
(175,430,o),
(178,428,o),
(178,424,cs),
(179,416,o),
(180,409,o),
(179,399,c)
);
},
{
closed = 1;
nodes = (
(209,382,o),
(208,379,o),
(193,391,c),
(201,395,o),
(210,398,o),
(219,398,cs),
(226,398,o),
(231,393,o),
(235,387,cs),
(239,380,o),
(243,371,o),
(247,363,c),
(238,360,o),
(230,360,o),
(222,357,c)
);
},
{
closed = 1;
nodes = (
(186,417,l),
(198,431,o),
(212,426,o),
(220,405,c),
(210,405,o),
(200,402,o),
(189,398,c)
);
},
{
closed = 1;
nodes = (
(140,461,l),
(141,463,o),
(142,465,o),
(145,466,c),
(161,475,o),
(177,483,o),
(195,490,c),
(201,482,o),
(207,475,o),
(209,464,c),
(188,476,o),
(172,472,o),
(156,458,cs),
(139,443,l)
);
},
{
closed = 1;
nodes = (
(190,443,o),
(185,453,o),
(177,461,c),
(193,467,o),
(196,466,o),
(206,454,c),
(204,453,o),
(201,455,o),
(198,451,c),
(196,446,o),
(199,440,o),
(197,432,c)
);
},
{
closed = 1;
nodes = (
(248,401,o),
(243,404,o),
(235,405,c),
(240,399,o),
(246,397,o),
(255,396,c)
);
},
{
closed = 1;
nodes = (
(399,196,ls),
(407,196,o),
(414,200,o),
(417,208,cs),
(423,223,o),
(431,238,o),
(443,250,cs),
(448,255,o),
(451,261,o),
(449,268,c),
(444,269,o),
(443,265,o),
(442,263,cs),
(439,259,o),
(437,255,o),
(434,253,cs),
(421,242,o),
(411,229,o),
(405,213,cs),
(404,209,o),
(400,207,o),
(396,206,cs),
(391,205,o),
(386,205,o),
(382,205,cs),
(378,205,o),
(376,204,o),
(376,200,cs),
(376,197,o),
(379,196,o),
(382,196,cs)
);
},
{
closed = 1;
nodes = (
(202,430,o),
(203,435,o),
(204,447,c),
(211,445,o),
(216,442,o),
(222,439,c),
(219,435,o),
(216,432,o),
(213,429,c)
);
},
{
closed = 1;
nodes = (
(245,383,o),
(241,395,o),
(228,402,c),
(245,449,l),
(253,446,o),
(260,442,o),
(268,441,c),
(270,437,o),
(268,434,o),
(267,431,cs),
(265,421,o),
(263,411,o),
(262,402,cs),
(262,398,o),
(261,395,o),
(262,392,cs),
(265,382,o),
(258,376,o),
(251,369,c)
);
},
{
closed = 1;
nodes = (
(249,416,o),
(244,417,o),
(238,414,c),
(242,408,o),
(247,406,o),
(255,408,c)
);
},
{
closed = 1;
nodes = (
(274,361,o),
(265,362,o),
(256,363,c),
(259,369,o),
(294,409,o),
(301,415,c),
(308,412,o),
(314,408,o),
(321,403,c),
(309,387,o),
(297,372,o),
(283,358,c)
);
},
{
closed = 1;
nodes = (
(323,349,o),
(319,350,o),
(310,357,c),
(318,361,o),
(323,360,o),
(332,353,c)
);
},
{
closed = 1;
nodes = (
(221,417,o),
(219,422,o),
(216,426,c),
(221,431,o),
(227,433,o),
(230,439,c),
(228,446,o),
(220,445,o),
(217,450,c),
(221,456,o),
(227,457,o),
(233,458,c),
(244,458,ls),
(255,458,o),
(259,461,o),
(263,471,c),
(263,472,o),
(263,474,o),
(265,474,c),
(272,467,o),
(271,461,o),
(262,452,c),
(256,453,o),
(250,455,o),
(244,457,c),
(235,444,o),
(232,428,o),
(224,412,c)
);
},
{
closed = 1;
nodes = (
(255,428,o),
(250,432,o),
(241,429,c),
(246,422,o),
(253,422,o),
(260,423,c)
);
},
{
closed = 1;
nodes = (
(219,474,o),
(242,483,o),
(260,477,c),
(258,470,o),
(255,465,o),
(247,465,cs),
(235,464,o),
(223,465,o),
(212,458,c)
);
},
{
closed = 1;
nodes = (
(331,365,o),
(325,368,o),
(317,368,c),
(317,372,o),
(319,374,o),
(320,376,cs),
(322,382,o),
(326,384,o),
(332,384,cs),
(341,383,o),
(350,386,o),
(359,388,c),
(362,383,o),
(361,379,o),
(362,374,c),
(352,371,o),
(343,367,o),
(337,359,c)
);
},
{
closed = 1;
nodes = (
(335,347,o),
(340,358,o),
(354,364,cs),
(368,370,o),
(380,371,o),
(390,355,c),
(375,342,o),
(359,332,o),
(339,331,c)
);
},
{
closed = 1;
nodes = (
(273,418,l),
(273,424,o),
(275,429,o),
(277,434,c),
(279,445,o),
(279,446,o),
(269,450,c),
(273,459,ls),
(275,463,o),
(276,467,o),
(276,471,cs),
(275,478,o),
(275,478,o),
(283,484,c),
(288,479,o),
(293,473,o),
(297,467,c),
(296,465,o),
(294,465,o),
(292,464,cs),
(288,462,o),
(286,458,o),
(285,453,cs),
(284,444,o),
(284,434,o),
(284,425,cs),
(283,418,l)
);
},
{
closed = 1;
nodes = (
(330,392,o),
(330,392,o),
(330,393,cs),
(331,397,ls),
(334,404,o),
(333,405,o),
(328,408,cs),
(315,417,l),
(319,425,o),
(321,434,o),
(327,442,c),
(320,448,o),
(313,451,o),
(306,455,c),
(303,448,o),
(301,441,o),
(294,437,c),
(300,432,o),
(309,430,o),
(311,419,c),
(303,425,o),
(297,422,o),
(290,415,c),
(290,454,ls),
(290,458,o),
(293,459,o),
(296,460,cs),
(307,463,o),
(318,465,o),
(330,465,c),
(334,441,o),
(334,417,o),
(337,393,c),
(335,391,o),
(333,391,o),
(330,391,c)
);
},
{
closed = 1;
nodes = (
(330,420,o),
(331,421,o),
(331,423,cs),
(331,424,o),
(330,426,o),
(328,426,c),
(326,425,o),
(324,424,o),
(325,422,c),
(325,420,o),
(326,419,o),
(329,419,c)
);
},
{
closed = 1;
nodes = (
(374,390,o),
(377,394,o),
(388,396,c),
(395,396,o),
(397,392,o),
(394,386,cs),
(392,380,o),
(386,377,o),
(376,378,c)
);
},
{
closed = 1;
nodes = (
(324,454,o),
(324,455,o),
(325,456,c),
(325,457,o),
(324,458,o),
(323,458,cs),
(322,458,o),
(321,457,o),
(321,456,cs),
(321,455,o),
(322,454,o),
(323,454,cs)
);
},
{
closed = 1;
nodes = (
(306,466,o),
(304,467,o),
(298,474,cs),
(286,488,l),
(288,491,o),
(290,493,o),
(294,493,c),
(314,470,l)
);
},
{
closed = 1;
nodes = (
(344,418,o),
(343,424,o),
(344,431,c),
(355,434,o),
(365,429,o),
(375,426,cs),
(377,425,o),
(378,423,o),
(377,420,c),
(372,417,o),
(366,416,o),
(361,412,cs),
(357,409,o),
(351,411,o),
(346,410,c)
);
},
{
closed = 1;
nodes = (
(367,403,ls),
(367,410,o),
(369,412,o),
(375,413,cs),
(378,414,o),
(381,414,o),
(384,414,cs),
(393,414,o),
(394,412,o),
(395,402,c),
(385,402,o),
(375,401,o),
(367,389,c)
);
},
{
closed = 1;
nodes = (
(354,445,o),
(353,451,o),
(354,457,c),
(359,458,o),
(363,455,o),
(368,455,c),
(369,453,l),
(357,438,l)
);
},
{
closed = 1;
nodes = (
(339,458,l),
(338,461,o),
(340,463,o),
(341,465,c),
(354,478,ls),
(360,484,o),
(360,484,o),
(370,480,c),
(370,474,o),
(369,469,o),
(367,463,c),
(363,462,o),
(359,463,o),
(355,463,cs),
(350,464,o),
(348,462,o),
(349,457,cs),
(350,441,l),
(348,439,o),
(345,438,o),
(342,438,c)
);
},
{
closed = 1;
nodes = (
(402,409,o),
(400,420,o),
(385,420,c),
(384,423,o),
(384,425,o),
(384,427,c),
(380,440,o),
(383,439,o),
(393,445,cs),
(398,448,o),
(402,450,o),
(409,451,c),
(416,438,o),
(417,423,o),
(422,408,c),
(404,397,l)
);
},
{
closed = 1;
nodes = (
(370,435,o),
(367,436,o),
(365,439,c),
(367,445,o),
(374,448,o),
(378,454,c),
(379,459,o),
(368,460,o),
(376,466,c),
(382,463,o),
(387,459,o),
(391,453,c),
(384,447,o),
(374,445,o),
(375,434,c)
);
}
);
width = 528;
}
);
note = two;
unicode = 50;
},
{
glyphname = three;
lastChange = "2024-09-22 23:05:32 +0000";
layers = (
{
layerId = m01;
shapes = (
{
closed = 1;
nodes = (
(165.81,-6.58,o),
(177.59,6.98,o),
(173.43,22.29,cs),
(171.4,29.77,o),
(167.64,35.53,o),
(161.14,39.92,cs),
(151.46,46.47,o),
(143.67,54.97,o),
(137.69,65.02,cs),
(135.3,69.04,o),
(133.56,73.25,o),
(139.72,76.23,c),
(142.7,71.25,o),
(142.61,65.54,o),
(144.75,60.57,cs),
(146.22,57.15,o),
(148.25,54.15,o),
(152.38,54.3,cs),
(156.46,54.46,o),
(158.43,57.46,o),
(159.59,61.03,cs),
(159.9,61.95,o),
(160.11,62.88,o),
(160.38,63.8,cs),
(166.7,85.7,o),
(176.99,105.37,o),
(193.09,121.8,cs),
(198.03,126.83,o),
(202.61,132.22,o),
(207.22,137.56,cs),
(213.53,144.85,o),
(219.27,152.54,o),
(223.64,161.21,cs),
(227.35,168.57,o),
(228.79,176.05,o),
(227.27,184.42,cs),
(225.96,191.65,o),
(222.71,198.26,o),
(221.14,205.36,c),
(243.53,210.42,o),
(291.13,209.67,o),
(303.11,203.99,c),
(300.13,198.75,o),
(295.08,195.78,o),
(290.56,192.36,cs),
(277.8,182.65,o),
(264.69,173.44,o),
(252.96,162.42,cs),
(247.54,157.32,o),
(247.44,157.02,o),
(250.8,150.19,cs),
(251.35,149.09,o),
(252.38,148.17,o),
(252.01,146.74,cs),
(251.28,144.61,o),
(249.2,144.26,o),
(247.54,143.42,cs),
(238.41,138.73,o),
(229.31,133.94,o),
(221.18,127.63,cs),
(212.24,120.71,o),
(213.18,112.56,o),
(223.29,107.45,cs),
(229.63,104.26,o),
(236.53,102.63,o),
(243.4,101.11,cs),
(248.17,100.06,o),
(252.66,98.51,o),
(256.5,95.48,cs),
(268.1,86.33,o),
(280.53,78.45,o),
(292.65,70.04,cs),
(306.41,60.52,o),
(320.91,58.88,o),
(336.59,61.94,cs),
(339.62,62.54,o),
(342.67,63.65,o),
(343.95,66.88,c),
(339.55,73.72,o),
(331.21,69.83,o),
(325.48,74.33,c),
(335.93,79.33,o),
(346.79,82.06,o),
(355.79,89.09,c),
(354.08,90.7,o),
(353.34,91.32,o),
(352.69,92.01,cs),
(343.09,102.04,o),
(339,102.96,o),
(326.46,98.33,cs),
(320.85,96.27,o),
(315.56,93.18,o),
(309.57,92.23,c),
(303.17,101.92,o),
(297.01,111.25,o),
(290.62,120.92,c),
(294.31,123.47,o),
(295.89,126.94,o),
(295.85,131.52,cs),
(295.8,137.63,o),
(299.22,142.41,o),
(303.17,146.76,cs),
(307.28,151.29,o),
(312.27,154.84,o),
(317.03,158.63,cs),
(321.3,162.03,o),
(325.61,165.36,o),
(325.58,171.74,cs),
(325.58,174.9,o),
(328.48,176.6,o),
(330.5,178.58,cs),
(338.79,186.71,o),
(348.39,193.13,o),
(358.24,199.16,cs),
(362.34,201.66,o),
(366.42,204.21,o),
(369.55,208,cs),
(377.39,217.48,o),
(377.05,221.61,o),
(367.81,229.05,c),
(373.47,236.58,o),
(372.87,238.55,o),
(363.99,241.42,cs),
(362.76,241.81,o),
(361.52,242.13,o),
(360.3,242.48,cs),
(341.28,248.06,o),
(321.81,248.87,o),
(302.17,248.46,cs),
(286.14,248.12,o),
(270.15,248.77,o),
(254.22,250.49,c),
(255.27,266.83,o),
(252.14,271.6,o),
(236.74,276.62,cs),
(226.63,279.91,o),
(216.85,283.83,o),
(207.95,289.68,cs),
(205.21,291.49,o),
(201.92,292.91,o),
(199.9,296.86,c),
(205.22,298.15,o),
(210.56,298.8,o),
(209.35,305.73,c),
(233.71,311.44,o),
(257,319.1,o),
(281.22,321.78,c),
(281.99,319.67,o),
(281.01,319.13,o),
(280.51,318.38,cs),
(276.06,311.59,o),
(277.14,308.25,o),
(284.57,305.56,cs),
(288.25,304.22,o),
(292.1,304.12,o),
(295.94,303.9,cs),
(298.44,303.75,o),
(301.13,304.29,o),
(303.3,302.42,cs),
(308.56,297.86,o),
(313.8,293.27,o),
(319.04,288.69,c),
(316.85,285.66,o),
(315.48,282.69,o),
(312.33,281.48,c),
(309.91,282.63,o),
(307.67,283.95,o),
(305.27,284.74,cs),
(302.77,285.58,o),
(300.98,284.39,o),
(300.12,281.84,cs),
(298.22,276.15,o),
(302.67,267.19,o),
(309.39,263.29,cs),
(315.7,259.61,o),
(320.07,260.35,o),
(325.44,266.34,cs),
(331.6,273.21,o),
(336.7,280.86,o),
(340.91,288.49,c),
(340.44,294.62,o),
(334.57,297.55,o),
(333.28,303.25,c),
(338.65,304.43,o),
(343.6,305.49,o),
(348.55,306.6,cs),
(350.26,306.99,o),
(351.7,306.78,o),
(352.74,305.23,cs),
(353.87,303.62,o),
(353.18,302.26,o),
(352.26,300.86,cs),
(350.18,297.65,o),
(347.78,294.55,o),
(346.15,291.12,cs),
(343.86,286.25,o),
(345.86,282.41,o),
(350.97,280.83,cs),
(358.78,278.43,o),
(365.47,280.12,o),
(371.05,286.19,cs),
(372.47,287.72,o),
(372.92,289.8,o),
(375.73,290.46,cs),
(384.75,292.57,o),
(385.17,293.4,o),
(384.25,302.69,cs),
(383.57,309.69,o),
(382.12,316.61,o),
(382.25,323.71,cs),
(382.44,334.71,o),
(380.78,336.32,o),
(370.06,334.89,cs),
(359.58,333.49,o),
(349.08,331.97,o),
(338.48,332.42,cs),
(328.54,332.84,o),
(318.72,333.73,o),
(310.69,340.87,cs),
(307.32,343.85,o),
(302.9,345.21,o),
(298.58,346.55,cs),
(296.61,347.16,o),
(294.13,347.07,o),
(293.32,349.42,c),
(295.63,356.66,o),
(301.43,350.29,o),
(305.34,353.05,c),
(307.52,358.37,o),
(305.79,363.97,o),
(304.57,369.49,cs),
(303.99,372.09,o),
(303.38,374.46,o),
(305.47,376.65,cs),
(309.36,380.75,o),
(313.18,384.88,o),
(317.21,389.21,c),
(320.05,384.16,o),
(321.31,378.11,o),
(320.97,371.06,cs),
(320.74,365.95,o),
(320.08,360.79,o),
(323.31,356.19,cs),
(327.18,350.66,o),
(332,350.48,o),
(335.46,356.19,cs),
(339.17,362.34,o),
(340.75,369.26,o),
(341.25,376.35,cs),
(341.54,380.11,o),
(340.25,383.62,o),
(336.1,384.5,cs),
(332.33,385.29,o),
(331.87,388.15,o),
(331.31,390.86,cs),
(329.83,398.07,o),
(333.28,403.01,o),
(342.28,406.49,c),
(349.09,400.78,o),
(356.07,394.91,o),
(363.35,388.8,c),
(356.62,383.56,o),
(354.43,390.45,o),
(350.43,392.12,c),
(347.16,389.59,o),
(345.09,386.39,o),
(344.8,382.41,cs),
(344.3,375.26,o),
(351.27,372.67,o),
(354.41,367.83,c),
(352.1,360.35,o),
(346.17,353.73,o),
(349.64,345.46,c),
(354.64,343.75,o),
(358.32,344.96,o),
(361.56,348.19,cs),
(366.59,353.21,o),
(372.35,357.13,o),
(378.92,359.96,cs),
(381.82,361.2,o),
(384.29,363.43,o),
(387.02,365.12,cs),
(391.7,368.02,o),
(393.2,371.77,o),
(391.75,377.35,cs),
(388.78,388.8,o),
(386.54,400.46,o),
(383.7,411.96,cs),
(382.65,416.23,o),
(382.38,420.9,o),
(378.55,425.01,c),
(371.15,425.19,o),
(363.16,425.43,o),
(355.9,429.43,cs),
(354.64,430.11,o),
(352.75,429.88,o),
(351.16,429.77,cs),
(341.87,429.12,o),
(332.61,428.3,o),
(323.34,427.74,cs),
(319.02,427.48,o),
(316.6,425.53,o),
(314.61,421.59,cs),
(305.09,402.77,o),
(292.06,386.49,o),
(276.48,372.48,cs),
(259.08,356.82,o),
(239.75,344.45,o),
(215.38,342.54,cs),
(209.98,342.1,o),
(204.65,340.67,o),
(199.3,339.67,cs),
(168.15,333.81,o),
(137.44,325.67,o),
(106.15,320.4,cs),
(101.29,319.58,o),
(96.33,318.16,o),
(90.94,319.85,c),
(92.47,325.77,o),
(93.5,331.32,o),
(96.57,336.32,c),
(111.43,325,o),
(111.68,324.55,o),
(127.8,333.55,cs),
(138.03,339.28,o),
(147.78,341.55,o),
(158.72,336.36,cs),
(161.85,334.86,o),
(165.3,333.94,o),
(169.08,336.51,c),
(166.48,346.43,o),
(156.52,347.51,o),
(149.87,352.85,c),
(151.63,356.64,o),
(153.31,360.29,o),
(154.9,363.72,c),
(164.85,363.75,o),
(172.85,361.14,o),
(177.58,352.04,cs),
(178.6,350.09,o),
(180.29,348.48,o),
(181.81,346.81,cs),
(186.46,341.7,o),
(188.97,341,o),
(195.34,343.58,cs),
(202.58,346.52,o),
(208.45,351.55,o),
(214.16,356.73,cs),
(217.39,359.65,o),
(220.53,362.65,o),
(223.72,365.65,c),
(225.45,363.73,o),
(224.53,361.34,o),
(224.98,359.26,cs),
(225.8,355.58,o),
(228,353.53,o),
(231.67,353.68,cs),
(235.86,353.86,o),
(237.88,356.62,o),
(238.22,360.62,cs),
(238.62,365.51,o),
(236.3,369.27,o),
(232.87,372.43,cs),
(227.95,376.96,o),
(221.84,380.06,o),
(217.76,385.7,cs),
(216.1,388.02,o),
(212.71,388.35,o),
(209.79,387.15,cs),
(206.82,385.94,o),
(206.6,383.41,o),
(207.11,380.71,cs),
(207.63,378.03,o),
(206.45,376.74,o),
(203.5,375.61,c),
(202.5,383.09,o),
(203.5,389.48,o),
(206.73,396.32,c),
(213.36,391.47,o),
(215.44,396.43,o),
(217.15,402.55,c),
(218.2,400.47,o),
(218.67,399.7,o),
(219,398.87,cs),
(220.31,395.74,o),
(222.6,394.11,o),
(225.79,395.66,cs),
(228.69,397.08,o),
(229.16,399.45,o),
(228.19,402.89,cs),
(224.9,414.58,o),
(227.03,417.89,o),
(239.05,421.29,cs),
(244.73,422.92,o),
(248.36,428.53,o),
(247.49,434.34,cs),
(246.8,438.92,o),
(244.2,440.45,o),
(237.38,440.73,cs),
(232.7,440.91,o),
(227.88,439.55,o),
(222.73,441.84,c),
(222.26,453.68,o),
(221.15,465.37,o),
(227.94,477.53,c),
(216.84,480.27,o),
(205.94,476.95,o),
(195.63,480.09,c),
(199.07,485.09,o),
(203.55,484.91,o),
(208.11,483.35,c),
(209.06,484.96,o),
(209.87,486,o),
(210.32,487.16,cs),
(211.37,489.87,o),
(212.47,492.72,o),
(209.4,494.93,cs),
(206.85,496.78,o),
(204.51,495.32,o),
(202.25,494.12,cs),
(198.52,492.15,o),
(195.91,488.86,o),
(193.28,486.39,c),
(178.62,490.47,o),
(170.3,479.53,o),
(158.36,471.99,c),
(162.42,478.83,o),
(166.76,482.52,o),
(170.55,486.68,cs),
(174.24,490.71,o),
(179.68,493.23,o),
(182.84,500.34,c),
(169.44,494.4,o),
(158.06,488.39,o),
(150.65,477.74,cs),
(145.04,469.68,o),
(136.75,465.26,o),
(129.36,457.34,c),
(130.44,463.45,o),
(132.28,468.02,o),
(129.83,473.37,c),
(121.25,467.74,o),
(118.77,458.97,o),
(115.09,451.01,cs),
(113.2,446.96,o),
(113.43,442.91,o),
(116.09,439.15,cs),
(118.38,435.91,o),
(119.74,432.46,o),
(118.72,428.46,c),
(113.83,425.15,o),
(106.7,426.91,o),
(102.09,421.07,c),
(108.43,418.13,o),
(113.98,422.78,o),
(120.07,420.86,c),
(120.83,411.62,o),
(121.78,401.84,o),
(117.41,393.7,cs),
(110.54,380.91,o),
(105.12,367.67,o),
(100.12,354.13,cs),
(99.14,351.5,o),
(98.93,348,o),
(95.97,346.92,cs),
(91.92,345.45,o),
(91.16,342.03,o),
(90.02,338.79,cs),
(87.58,331.92,o),
(85.31,324.98,o),
(83.04,318.26,c),
(74.27,316.79,o),
(66.43,319,o),
(58.51,319.76,cs),
(52.48,320.34,o),
(52.06,320.29,o),
(51.06,314.24,cs),
(49,301.72,o),
(50.3,289.3,o),
(52.83,277,cs),
(54.62,268.18,o),
(59.52,262.97,o),
(68.7,260.08,cs),
(91.97,252.74,o),
(113.83,242.01,o),
(134.98,229.76,cs),
(140.5,226.57,o),
(143.21,222.45,o),
(144.21,216.24,cs),
(145.69,207.09,o),
(147.95,198.06,o),
(150.07,189.01,cs),
(150.78,186.03,o),
(150.78,182.56,o),
(154.26,180.38,c),
(162.6,180.82,o),
(164.91,190.49,o),
(172.03,193.24,c),
(176.29,183.88,o),
(174.06,175.88,o),
(168.79,168.38,cs),
(164.68,162.54,o),
(159.27,157.99,o),
(153.56,153.83,cs),
(144.2,147.04,o),
(134.08,141.49,o),
(124.14,135.62,cs),
(117.67,131.78,o),
(110.95,129.3,o),
(103.37,128.91,cs),
(99.34,128.72,o),
(95.14,128.35,o),
(92.6,126.17,c),
(90.68,122.57,o),
(94.79,121.96,o),
(93.94,119.14,c),
(87.94,115.98,o),
(81.71,112.74,o),
(75.5,109.41,cs),
(65.21,103.91,o),
(63.97,98.23,o),
(71.08,88.65,cs),
(73.95,84.8,o),
(77.11,81.15,o),
(80.03,77.33,cs),
(82.92,73.56,o),
(86.16,70.01,o),
(88.74,63.14,cs),
(88.75,63.05,l),
(88.75,63.02,ls),
(82.59,66.5,o),
(78.49,68.92,o),
(74.28,71.17,cs),
(70.6,73.12,o),
(66.88,75.06,o),
(62.6,75.4,cs),
(55.97,75.92,o),
(53.12,72.66,o),
(54.23,66.08,cs),
(55.34,59.61,o),
(58.57,54.81,o),
(64.81,52.29,cs),
(68.68,50.74,o),
(72.57,49.26,o),
(76.44,47.74,cs),
(87.31,43.5,o),
(95.83,36.59,o),
(101.09,26.01,cs),
(102.94,22.3,o),
(104.91,18.59,o),
(106.36,14.72,cs),
(107.97,10.41,o),
(111.02,7.56,o),
(115.07,6.35,cs),
(126.72,2.85,o),
(138.41,-0.73,o),
(150.28,-3.26,cs)
);
},
{
closed = 1;
nodes = (
(135.3,42.57,o),
(134.59,42.49,o),
(134.14,42.81,cs),
(112.87,57.46,o),
(105.57,79.75,o),
(101.8,103.55,cs),
(100.07,114.44,o),
(101.64,115.57,o),
(115.49,121.39,c),
(116.8,109.97,o),
(113.94,98.81,o),
(114.46,87.45,cs),
(114.44,87.47,ls),
(123.31,85.79,o),
(128.55,93.65,o),
(136.28,94.39,c),
(139.41,88.39,o),
(139.22,83.86,o),
(133.51,79.31,cs),
(127.35,74.41,o),
(127.12,70.45,o),
(130.2,63.21,cs),
(132.51,57.85,o),
(136.49,53.61,o),
(139.64,48.82,c),
(139.16,46.17,o),
(138.33,43.87,o),
(135.99,42.46,c)
);
},
{
closed = 1;
nodes = (
(148.94,97.5,o),
(150.28,101.07,o),
(149.35,103.47,cs),
(146.91,109.74,o),
(143.37,111.2,o),
(137.41,108.02,cs),
(132.15,105.23,o),
(127.85,100.71,o),
(121.2,98.21,c),
(122.05,107.42,o),
(122.91,115.63,o),
(123.54,123.86,cs),
(123.83,127.44,o),
(126.59,128.44,o),
(128.99,129.92,cs),
(137.99,135.48,o),
(147.09,140.87,o),
(155.94,146.65,cs),
(162.39,150.86,o),
(168.33,155.8,o),
(173.36,161.7,cs),
(182.6,172.57,o),
(185.92,184.75,o),
(180.57,198.31,cs),
(178.88,202.6,o),
(179.84,205.42,o),
(182.33,208.75,cs),
(197.7,229.2,o),
(191.02,226.73,o),
(217.56,230.2,cs),
(219.48,230.44,o),
(221.4,230.64,o),
(223.27,230.99,cs),
(228.72,232.04,o),
(229.42,233.18,o),
(228.67,238.88,cs),
(228.25,241.94,o),
(225.96,244.75,o),
(227.17,247.91,c),
(227.69,248.2,o),
(227.99,248.52,o),
(228.17,248.46,cs),
(254.7,239.01,o),
(282.51,240.8,o),
(309.91,239.43,cs),
(323.02,238.77,o),
(336.1,238.33,o),
(350.09,234.64,cs),
(350.07,234.67,ls),
(338.17,226.78,o),
(335.3,218.1,o),
(341.49,208.64,c),
(339.99,204.95,o),
(336.22,205.61,o),
(333.39,204.74,cs),
(329.42,203.51,o),
(325.26,202.95,o),
(321.2,202.05,cs),
(316.14,200.92,o),
(312.67,197.86,o),
(310.62,193.13,cs),
(309.99,191.68,o),
(309.28,190.21,o),
(308.8,188.69,cs),
(304.8,175.98,o),
(302.04,176.9,o),
(316.45,168.93,c),
(303.01,159.2,o),
(288.11,151.19,o),
(284.84,134.17,c),
(281.03,133.17,o),
(278.66,134.73,o),
(276.15,134.78,cs),
(269.99,134.93,o),
(266.12,137.38,o),
(264.73,143.99,cs),
(263.91,147.93,o),
(261.36,151.52,o),
(259.44,155.6,c),
(261.55,159.99,o),
(265.44,162.92,o),
(269.1,165.89,cs),
(278.55,173.55,o),
(288.21,180.97,o),
(297.81,188.47,cs),
(302.62,192.21,o),
(307.55,195.87,o),
(311.26,200.76,cs),
(316.42,207.5,o),
(315.37,211.79,o),
(307.65,214.87,cs),
(300.76,217.63,o),
(293.46,218.85,o),
(286.08,219.43,cs),
(262.01,221.32,o),
(238,219.72,o),
(214,218.24,cs),
(210.82,218.03,o),
(207.32,218.01,o),
(206.1,214.16,cs),
(205.02,210.77,o),
(207.58,209,o),
(209.54,206.84,cs),
(214.99,200.78,o),
(218.15,193.44,o),
(220.99,185.89,cs),
(224.33,176.95,o),
(222.89,168.99,o),
(216.3,161.6,c),
(207.33,162.58,o),
(198.65,160.07,o),
(189.91,158.26,cs),
(183.05,156.84,o),
(181.17,155.47,o),
(181.36,148.84,cs),
(181.63,139.37,o),
(178.52,133.15,o),
(170.54,127.53,cs),
(161.2,120.97,o),
(157.73,112.79,o),
(152.67,96.34,c)
);
},
{
closed = 1;
nodes = (
(270.49,113.63,o),
(258.55,123.19,o),
(245.92,133.35,cs),
(245.96,133.37,ls),
(248.85,135.31,o),
(250.9,137.72,o),
(252.9,136.1,cs),
(261.48,129.12,o),
(272.26,128.12,o),
(282.14,124.74,cs),
(283.03,124.42,o),
(283.82,123.82,o),
(285.17,123.08,c),
(282.59,115.77,o),
(289.82,111.74,o),
(291.65,105.56,c),
(288.75,103.08,o),
(286.1,100.96,o),
(282.39,103.98,cs)
);
},
{
closed = 1;
nodes = (
(178.63,233.6,o),
(177.62,241.37,o),
(175.33,248.95,cs),
(172.23,259.19,o),
(167.33,265.52,o),
(154.26,266.26,cs),
(140.49,267.05,o),
(126.71,267.03,o),
(112.94,267.76,cs),
(103.99,268.23,o),
(95.04,268.94,o),
(86.33,271.26,cs),
(82.94,272.15,o),
(79.62,273.37,o),
(76.38,274.7,cs),
(66.35,278.76,o),
(59.81,285.14,o),
(61.49,297.1,cs),
(62.04,301.13,o),
(60.39,305.36,o),
(62.17,309.5,c),
(63.12,309.68,o),
(64.04,310.15,o),
(64.9,310,cs),
(89.58,305.9,o),
(113.34,311.9,o),
(137.14,316.81,cs),
(169.12,323.41,o),
(200.8,331.5,o),
(233.21,336.04,cs),
(250.29,338.43,o),
(267.42,341.33,o),
(284.84,339.36,cs),
(292.58,338.49,o),
(300.42,337.18,o),
(306.74,332.81,cs),
(322.72,321.78,o),
(339.9,322.79,o),
(357.58,326.12,cs),
(362.89,327.12,o),
(368.16,328.27,o),
(375.16,329.67,c),
(372.11,317.31,o),
(381.4,306.38,o),
(375.56,294.56,c),
(370.96,302.9,o),
(371.91,312.87,o),
(367.61,321.09,cs),
(367.62,321.12,l),
(367.62,321.15,ls),
(363.2,320.47,o),
(363.27,317.78,o),
(363.2,315.25,cs),
(363.07,309.72,o),
(364.85,304.49,o),
(366.01,299.18,cs),
(367.64,291.6,o),
(366.06,288.55,o),
(358.57,286.86,cs),
(355.99,286.28,o),
(353.09,284.65,o),
(349.97,287.17,c),
(350.62,291.35,o),
(353.58,294.49,o),
(356.24,297.4,cs),
(359,300.4,o),
(360.14,302.84,o),
(358.19,306.69,cs),
(356.14,310.71,o),
(353.61,313.84,o),
(348.77,313.58,cs),
(343.98,313.32,o),
(339.22,312.45,o),
(334.43,312.11,cs),
(330.03,311.79,o),
(325.48,310.87,o),
(321.99,315.11,cs),
(320.76,316.61,o),
(318.64,317.14,o),
(316.83,315.58,cs),
(315.09,314.08,o),
(315.43,312.13,o),
(316.15,310.31,cs),
(317.73,306.37,o),
(320.59,303.26,o),
(323.31,300.13,cs),
(327.1,295.79,o),
(331.05,291.57,o),
(335.37,286.84,c),
(331.48,280.6,o),
(325.05,275.29,o),
(319.34,269.37,cs),
(316.95,266.89,o),
(314.28,267.19,o),
(311.55,269.02,cs),
(308.78,270.86,o),
(307.84,272.44,o),
(306.24,278.55,c),
(309.72,278.86,o),
(311.37,274.82,o),
(315.51,275.16,c),
(319.82,278,o),
(323.12,282.58,o),
(326.22,287.18,c),
(325.38,291.2,o),
(322.51,293.39,o),
(320.14,295.92,cs),
(317.51,298.71,o),
(314.01,301.05,o),
(312.33,304.32,cs),
(308.6,311.61,o),
(303.2,315.45,o),
(295.23,315.06,c),
(294.97,316.19,o),
(294.57,316.88,o),
(294.76,317.27,cs),
(299.23,326.25,o),
(296.58,330.82,o),
(286.07,330.77,cs),
(275.8,330.72,o),
(265.68,328.58,o),
(255.71,326.22,cs),
(241.4,322.85,o),
(227.21,318.88,o),
(212.95,315.2,cs),
(211.22,314.76,o),
(209.53,313.14,o),
(207.18,315.17,c),
(212.58,320.38,o),
(221.68,317.35,o),
(226.89,324.06,c),
(223.58,327.21,o),
(219.83,327.04,o),
(216.15,326.87,cs),
(211.65,326.64,o),
(207.13,326.31,o),
(203.18,323.85,cs),
(200.5,322.19,o),
(199.41,319.62,o),
(199.52,316.49,cs),
(199.63,313.3,o),
(200.2,310.1,o),
(199.04,306.44,c),
(195.35,304.15,o),
(190.77,304.36,o),
(186.41,304.15,cs),
(180.94,303.88,o),
(177.47,301.59,o),
(175.7,296.29,cs),
(174.18,291.79,o),
(172.12,287.47,o),
(170.25,282.97,c),
(157.85,282.28,o),
(146.17,284.37,o),
(134.47,285.84,cs),
(118.26,287.87,o),
(102.13,290.52,o),
(85.98,292.9,cs),
(84.38,293.14,o),
(82.83,293.63,o),
(81.25,293.67,cs),
(78.59,293.75,o),
(75.8,293.38,o),
(75.41,290.09,cs),
(75.09,287.36,o),
(77.44,286.12,o),
(79.59,285.56,cs),
(84.2,284.33,o),
(88.93,283.38,o),
(93.64,282.46,cs),
(117.88,277.73,o),
(142.37,274.96,o),
(167.01,273.72,cs),
(175.32,273.32,o),
(175.98,273.93,o),
(178.56,281.83,cs),
(180.03,286.36,o),
(180.37,291.27,o),
(182.88,295.52,c),
(186.43,296.89,o),
(189.49,297.08,o),
(192.44,293.91,cs),
(203.63,281.8,o),
(217.91,274.44,o),
(233.41,269.89,cs),
(242.43,267.24,o),
(247.33,262.66,o),
(247.52,253.1,c),
(245.86,250.83,o),
(243.57,252.07,o),
(241.65,252.79,cs),
(237.76,254.24,o),
(233.99,256.06,o),
(230.18,257.71,cs),
(227.28,258.97,o),
(224.2,261.34,o),
(221.18,259.03,cs),
(217.73,256.38,o),
(219.6,252.61,o),
(220.36,249.24,cs),
(221.04,246.13,o),
(221.67,243.01,o),
(222.44,239.34,c),
(214.2,238.87,o),
(206.31,238.45,o),
(198.44,237.95,cs),
(189.97,237.4,o),
(185.34,230.9,o),
(179.23,224.13,c)
);
},
{
closed = 1;
nodes = (
(315.81,183.89,o),
(317.41,188.3,o),
(318.81,192.68,cs),
(319.7,195.47,o),
(322.47,195.95,o),
(324.94,196.65,cs),
(330.75,198.3,o),
(336.67,199.67,o),
(342.38,201.68,cs),
(349.15,204.05,o),
(349.74,206.21,o),
(346.07,212.26,cs),
(344.42,214.95,o),
(341.83,217.1,o),
(341.33,220.63,cs),
(341.33,220.65,ls),
(346.14,225.26,o),
(351.43,226.59,o),
(357.8,223.55,cs),
(361.45,221.81,o),
(365.95,222.13,o),
(369.62,219.03,c),
(369.07,211.64,o),
(364.54,207.03,o),
(358.72,203.4,cs),
(347.62,196.48,o),
(336.48,189.63,o),
(325.28,182.9,cs),
(322.73,181.37,o),
(320.92,177.95,o),
(316.47,179.24,c)
);
},
{
closed = 1;
nodes = (
(108.07,336.07,o),
(106.49,335.78,o),
(104.54,337.78,c),
(104.64,342.07,o),
(106.8,346.39,o),
(108.22,350.81,cs),
(113.01,365.76,o),
(118.85,380.39,o),
(126.09,394.3,cs),
(131.8,405.24,o),
(133.03,416.38,o),
(129.41,427.75,cs),
(126.12,438.09,o),
(130.8,445.64,o),
(136.33,453.11,cs),
(138.77,456.42,o),
(142.17,457.5,o),
(146.72,458.3,cs),
(154.28,459.61,o),
(163.03,459.57,o),
(168.24,468.16,cs),
(171.95,474.26,o),
(177.84,479.08,o),
(184.89,482.05,c),
(187.37,478.76,o),
(184.5,475.02,o),
(188.49,471.6,c),
(198.12,472.71,o),
(209.06,475.05,o),
(220.46,473.44,c),
(220.07,465.58,o),
(217.65,458.63,o),
(216.36,451.47,cs),
(215.83,448.63,o),
(215.09,445.82,o),
(215.39,442.92,cs),
(216.07,436.36,o),
(219.55,433.31,o),
(226.15,433.27,cs),
(230.63,433.24,o),
(234.93,435.25,o),
(239.79,434.16,c),
(239.77,430.61,o),
(238.13,429.16,o),
(235.82,428.56,cs),
(225.92,425.96,o),
(220.4,419.88,o),
(220.71,409.56,c),
(205.21,405.37,o),
(194.29,388.74,o),
(196.77,373.56,cs),
(197.22,370.75,o),
(197.83,367.61,o),
(201.22,366.79,cs),
(204.22,366.05,o),
(205.77,368.34,o),
(207.41,370.39,cs),
(208.99,372.39,o),
(210.68,374.31,o),
(212.49,376.1,cs),
(213.76,377.36,o),
(215.46,377.55,o),
(216.81,376.34,cs),
(218.08,375.21,o),
(218.36,373.6,o),
(217.63,371.95,cs),
(217.24,371.08,o),
(216.87,370.13,o),
(216.26,369.43,cs),
(208.87,360.99,o),
(200.42,353.82,o),
(191.07,347.9,c),
(186.96,349.96,o),
(185.63,353.03,o),
(184.1,356.34,c),
(187.5,357.74,o),
(191.04,355.07,o),
(193.78,358.16,c),
(193.75,361.51,o),
(190.81,362.53,o),
(188.46,363.87,cs),
(180.27,368.48,o),
(171.43,371.21,o),
(162.25,372.92,cs),
(158.52,373.63,o),
(154.6,373.87,o),
(151.57,376.77,c),
(150.91,381.5,o),
(153.25,385.5,o),
(154.76,389.64,cs),
(159.34,402.3,o),
(157.94,404.14,o),
(145.07,401.93,cs),
(143.52,401.67,o),
(141.97,400.9,o),
(139.54,402.58,c),
(139.04,411.89,o),
(141.33,421.23,o),
(144.65,430.55,c),
(151.86,429.34,o),
(151.12,420.15,o),
(158.31,418.19,c),
(158.13,426.63,o),
(154.05,431.77,o),
(147.91,435.64,cs),
(144.75,437.64,o),
(142.02,436.24,o),
(140.73,433.35,cs),
(136.36,423.67,o),
(133.5,413.46,o),
(133.07,402.83,cs),
(132.81,397.01,o),
(135.36,394.89,o),
(141.12,394.25,cs),
(142.99,394.04,o),
(144.89,394.22,o),
(147.04,394.22,c),
(145.78,385.22,o),
(139.27,376.82,o),
(146.48,368.25,c),
(143.72,363.64,o),
(140.95,359.35,o),
(138.59,354.83,cs),
(137.64,352.98,o),
(136.53,351.59,o),
(134.72,350.83,cs),
(125.82,347.1,o),
(117.62,342.09,o),
(109.49,336.96,cs)
);
},
{
closed = 1;
nodes = (
(230.35,357.75,o),
(229.2,358.73,o),
(228.93,360.51,cs),
(228.5,363.27,o),
(227.76,366.07,o),
(229.21,368.99,c),
(233.23,368.02,o),
(234.77,365.3,o),
(234.74,361.44,cs),
(234.72,359.78,o),
(234.11,358.33,o),
(232.22,358.04,cs)
);
},
{
closed = 1;
nodes = (
(186.95,397.42,o),
(189.4,400.21,o),
(191.76,402.89,cs),
(193.24,404.58,o),
(194.7,406.34,o),
(193.7,410.07,cs),
(193.64,410.31,o),
(192.51,410.88,o),
(191.22,411.09,cs),
(189.91,411.32,o),
(188.77,411.65,o),
(188.14,413.14,c),
(187.11,421.53,o),
(185.98,430.06,o),
(186.09,439.51,c),
(193.61,437.4,o),
(196.67,441.57,o),
(198.35,448.09,cs),
(198.31,448.08,ls),
(202.34,438.56,o),
(196.23,429.34,o),
(198.34,419.95,c),
(199.57,420.19,o),
(200.5,420.13,o),
(200.68,420.47,cs),
(205.39,429.58,o),
(206.31,439.24,o),
(204.39,449.2,cs),
(203.95,451.47,o),
(202.41,453.18,o),
(200.02,453.85,cs),
(191.02,456.35,o),
(179.12,448.03,o),
(178.78,438.62,cs),
(178.41,428.09,o),
(178.52,417.52,o),
(178.52,406.97,cs),
(178.52,403.47,o),
(178.39,399.6,o),
(182.87,398.45,cs)
);
},
{
closed = 1;
nodes = (
(354.2,355.35,o),
(356.81,359.46,o),
(358.54,363.38,c),
(359.93,363.8,o),
(360.56,364.22,o),
(361.12,364.14,cs),
(369.73,362.95,o),
(369.7,362.95,o),
(374.14,370.83,cs),
(375.88,373.91,o),
(377.8,376.86,o),
(379.62,379.88,cs),
(379.59,379.87,ls),
(380.65,381.58,o),
(381.54,383.27,o),
(378.3,385.35,c),
(373.07,380.56,o),
(370.82,373.99,o),
(366.46,368.46,c),
(359.33,371.38,o),
(352.77,374.49,o),
(349.1,383.7,c),
(354.71,382.81,o),
(358.15,379.67,o),
(362.46,381.01,cs),
(365.3,381.9,o),
(367.78,383.25,o),
(370.02,385.07,cs),
(374.21,388.44,o),
(374.55,390.89,o),
(370.55,394.49,cs),
(363.63,400.7,o),
(356.1,406.23,o),
(347.97,410.75,cs),
(342.49,413.81,o),
(332.44,408.88,o),
(329.03,401.81,cs),
(325.88,395.25,o),
(326.42,388.6,o),
(330.01,382.45,cs),
(335.46,373.09,o),
(335.61,370.71,o),
(329.53,359.97,c),
(325.08,363,o),
(325.64,367.66,o),
(325.4,371.99,cs),
(325.13,376.78,o),
(325.42,381.6,o),
(323.75,386.25,cs),
(321.23,393.33,o),
(316.44,395.64,o),
(310.99,389.77,cs),
(308.2,386.75,o),
(304.83,384.25,o),
(301.67,381.48,c),
(298.22,383.79,o),
(297.35,386.06,o),
(299.98,389.35,cs),
(307.21,398.37,o),
(314.13,407.61,o),
(319.48,417.88,cs),
(321.35,421.43,o),
(324.53,421.19,o),
(327.74,421.43,cs),
(343.81,422.61,o),
(359.71,422.14,o),
(375.97,416.49,c),
(379.32,403.68,o),
(382.86,390.1,o),
(386.41,376.54,cs),
(387.07,374.02,o),
(385.86,372.22,o),
(384.04,370.7,cs),
(380.1,367.43,o),
(376.36,363.96,o),
(371.98,361.2,cs),
(366.35,357.67,o),
(361.04,353.62,o),
(354.75,349.2,c)
);
}
);
width = 442;
}
);
note = three;
unicode = 51;
},
{
glyphname = four;
lastChange = "2024-09-22 23:13:57 +0000";
layers = (
{
layerId = m01;
shapes = (
{
closed = 1;
nodes = (
(107,35,o),
(122,35,o),
(136,44,cs),
(149,53,o),
(161,63,o),
(174,73,cs),
(247,132,ls),
(251,136,o),
(255,138,o),
(260,138,cs),
(277,140,o),
(293,145,o),
(306,156,cs),
(350,188,ls),
(356,193,o),
(363,198,o),
(369,204,cs),
(379,215,o),
(384,227,o),
(380,242,cs),
(379,247,o),
(381,250,o),
(385,253,cs),
(397,260,o),
(408,268,o),
(418,277,c),
(419,277,o),
(420,278,o),
(419,279,cs),
(417,281,o),
(416,284,o),
(413,285,c),
(401,276,o),
(390,267,o),
(377,260,c),
(373,273,l),
(379,278,l),
(444,332,l),
(464,350,ls),
(465,351,o),
(467,352,o),
(466,355,c),
(465,355,o),
(464,355,o),
(464,355,c),
(455,350,ls),
(423,329,o),
(392,305,o),
(362,279,cs),
(334,253,l),
(331,249,o),
(327,245,o),
(325,238,c),
(341,244,o),
(350,256,o),
(363,264,c),
(364,260,o),
(367,257,o),
(366,253,c),
(335,229,ls),
(333,227,o),
(331,227,o),
(329,228,c),
(314,230,o),
(301,234,o),
(289,243,cs),
(285,246,o),
(284,250,o),
(289,253,cs),
(297,259,o),
(304,267,o),
(311,274,cs),
(316,279,o),
(319,284,o),
(325,287,c),
(330,285,o),
(333,280,o),
(339,281,c),
(339,288,o),
(333,290,o),
(331,295,c),
(334,298,o),
(337,302,o),
(341,304,c),
(349,300,o),
(353,291,o),
(363,288,c),
(362,293,o),
(364,296,o),
(368,298,cs),
(383,307,o),
(395,318,o),
(407,329,cs),
(409,331,o),
(412,333,o),
(410,336,c),
(405,336,o),
(405,336,o),
(403,334,c),
(390,325,o),
(377,314,o),
(366,302,c),
(364,301,o),
(363,298,o),
(360,299,c),
(357,303,o),
(352,307,o),
(348,311,c),
(350,315,o),
(352,317,o),
(355,319,c),
(380,344,ls),
(382,346,o),
(385,349,o),
(382,352,cs),
(379,356,o),
(376,354,o),
(373,352,cs),
(368,349,o),
(363,344,o),
(358,340,cs),
(334,317,o),
(312,291,o),
(290,266,cs),
(286,261,o),
(284,255,o),
(278,252,cs),
(276,251,o),
(277,248,o),
(278,246,cs),
(279,242,o),
(282,240,o),
(285,238,cs),
(301,226,o),
(319,221,o),
(339,222,cs),
(341,222,o),
(344,222,o),
(345,224,cs),
(350,233,o),
(359,235,o),
(368,241,c),
(369,229,o),
(367,220,o),
(358,214,cs),
(329,195,l),
(328,195,o),
(327,193,o),
(326,193,cs),
(318,194,o),
(313,189,o),
(308,185,cs),
(284,168,ls),
(281,166,o),
(278,163,o),
(275,163,cs),
(256,161,o),
(237,162,o),
(223,176,cs),
(216,183,o),
(214,183,o),
(206,177,cs),
(202,174,ls),
(173,150,o),
(146,125,o),
(119,99,cs),
(114,94,o),
(109,90,o),
(105,84,cs),
(100,76,o),
(93,70,o),
(87,62,c),
(80,66,o),
(74,71,o),
(70,78,c),
(60,91,o),
(62,118,o),
(71,128,cs),
(103,163,o),
(135,198,o),
(169,231,c),
(170,233,o),
(172,235,o),
(175,234,c),
(176,232,o),
(179,230,o),
(179,226,c),
(162,211,ls),
(137,189,o),
(114,166,o),
(93,141,c),
(90,139,o),
(87,137,o),
(88,132,c),
(105,147,l),
(178,216,ls),
(181,219,o),
(184,222,o),
(189,220,c),
(191,226,o),
(189,230,o),
(187,234,cs),
(185,240,o),
(182,246,o),
(181,252,cs),
(180,257,o),
(180,261,o),
(183,265,cs),
(192,276,o),
(200,288,o),
(210,299,c),
(210,299,o),
(211,299,o),
(212,299,c),
(210,262,o),
(226,234,o),
(254,211,c),
(251,206,o),
(244,204,o),
(241,196,c),
(248,199,o),
(252,203,o),
(256,206,cs),
(259,208,o),
(261,209,o),
(264,205,c),
(253,195,ls),
(249,191,o),
(245,188,o),
(245,182,c),
(255,182,o),
(271,193,o),
(274,200,cs),
(275,203,o),
(273,205,o),
(271,206,cs),
(266,208,o),
(263,211,o),
(260,214,cs),
(246,230,o),
(234,248,o),
(226,267,cs),
(220,285,o),
(221,302,o),
(228,319,cs),
(234,333,o),
(252,340,o),
(268,335,c),
(252,315,l),
(250,319,o),
(256,321,o),
(253,324,c),
(250,325,o),
(250,323,o),
(249,322,cs),
(243,314,o),
(240,305,o),
(240,295,cs),
(239,265,o),
(253,242,o),
(275,222,cs),
(287,211,o),
(302,206,o),
(318,203,cs),
(329,201,o),
(339,205,o),
(348,211,cs),
(350,212,o),
(352,214,o),
(352,217,c),
(348,221,o),
(345,219,o),
(341,218,cs),
(334,217,o),
(328,215,o),
(321,216,cs),
(285,222,o),
(252,258,o),
(249,294,cs),
(249,297,o),
(248,299,o),
(251,301,cs),
(258,306,o),
(263,314,o),
(269,320,c),
(282,314,l),
(278,306,o),
(269,302,o),
(268,293,c),
(280,297,o),
(326,343,o),
(329,354,c),
(319,349,o),
(313,341,o),
(305,335,c),
(286,340,l),
(309,370,l),
(308,374,o),
(307,377,o),
(304,379,c),
(274,343,l),
(250,351,o),
(235,347,o),
(219,328,cs),
(213,320,l),
(175,265,ls),
(172,261,o),
(169,256,o),
(171,252,cs),
(173,245,o),
(169,241,o),
(165,237,cs),
(157,230,l),
(156,231,o),
(155,231,o),
(154,232,cs),
(142,242,o),
(130,239,o),
(119,231,cs),
(115,228,o),
(112,225,o),
(109,222,cs),
(100,211,o),
(92,200,o),
(85,188,cs),
(75,173,o),
(75,170,o),
(90,159,c),
(64,128,ls),
(63,127,o),
(62,126,o),
(62,126,c),
(54,122,o),
(51,115,o),
(50,107,cs),
(48,85,o),
(55,67,o),
(73,54,cs),
(79,50,o),
(85,45,o),
(91,42,cs)
);
},
{
closed = 1;
nodes = (
(98,93,l),
(181,171,l),
(201,190,ls),
(203,192,o),
(206,194,o),
(204,198,c),
(187,191,o),
(84,90,o),
(77,75,c)
);
},
{
closed = 1;
nodes = (
(120,134,o),
(157,172,o),
(193,211,cs),
(194,212,o),
(196,213,o),
(193,216,c),
(182,209,o),
(173,199,o),
(163,189,cs),
(134,160,l),
(105,131,ls),
(96,121,o),
(86,112,o),
(79,100,c)
);
},
{
closed = 1;
nodes = (
(129,216,ls),
(126,222,o),
(129,227,o),
(136,228,cs),
(141,229,o),
(145,227,o),
(150,223,c),
(134,207,l)
);
},
{
closed = 1;
nodes = (
(270,170,o),
(289,186,o),
(291,195,c),
(280,192,o),
(258,173,o),
(256,165,c)
);
},
{
closed = 1;
nodes = (
(278,331,o),
(280,334,o),
(284,337,c),
(287,333,o),
(292,331,o),
(297,328,c),
(290,317,o),
(283,328,o),
(276,326,c)
);
},
{
closed = 1;
nodes = (
(346,418,l),
(344,421,o),
(343,423,o),
(340,424,c),
(323,404,ls),
(318,399,o),
(317,394,o),
(322,387,c)
);
},
{
closed = 1;
nodes = (
(461,311,l),
(453,315,o),
(453,315,o),
(448,311,cs),
(429,297,l),
(431,294,o),
(432,291,o),
(436,291,c)
);
},
{
closed = 1;
nodes = (
(363,439,o),
(367,447,o),
(371,456,c),
(364,452,o),
(358,446,o),
(353,440,cs),
(351,437,o),
(354,434,o),
(356,432,c)
);
},
{
closed = 1;
nodes = (
(364,384,o),
(367,387,o),
(370,390,cs),
(422,442,ls),
(427,448,o),
(431,453,o),
(434,460,c),
(427,459,o),
(423,455,o),
(419,451,cs),
(398,432,o),
(378,413,o),
(358,394,c),
(355,390,ls),
(354,388,o),
(353,386,o),
(355,385,c),
(356,383,o),
(358,382,o),
(361,383,cs)
);
},
{
closed = 1;
nodes = (
(507,348,ls),
(509,350,o),
(511,351,o),
(513,355,c),
(499,349,o),
(488,340,o),
(477,332,c),
(480,328,o),
(483,327,o),
(486,330,cs)
);
},
{
closed = 1;
nodes = (
(441,402,o),
(452,414,o),
(464,426,c),
(458,426,o),
(458,426,o),
(456,424,cs),
(445,415,o),
(434,405,o),
(427,393,c)
);
},
{
closed = 1;
nodes = (
(478,384,o),
(493,396,o),
(508,410,c),
(497,409,o),
(470,387,o),
(462,374,c)
);
}
);
width = 563;
}
);
note = four;
unicode = 52;
},
{
glyphname = five;
lastChange = "2024-09-22 23:10:10 +0000";
layers = (
{
layerId = m01;
shapes = (
{
closed = 1;
nodes = (
(483,10,o),
(499,30,o),
(503,41,c),
(524,46,o),
(533,44,o),
(548,37,c),
(548,43,o),
(546,48,o),
(542,51,cs),
(532,59,o),
(521,57,o),
(508,55,c),
(510,69,o),
(512,82,o),
(513,94,cs),
(515,139,o),
(495,173,o),
(453,190,cs),
(405,211,o),
(359,204,o),
(317,173,cs),
(314,171,o),
(311,168,o),
(308,167,c),
(308,167,o),
(266,208,o),
(270,250,cs),
(277,316,o),
(336,347,o),
(336,348,c),
(331,352,o),
(283,347,o),
(264,339,cs),
(230,326,o),
(207,303,o),
(196,269,cs),
(192,256,o),
(189,244,o),
(188,231,cs),
(185,201,o),
(195,168,o),
(211,141,c),
(190,135,l),
(178,179,o),
(140,193,o),
(124,193,cs),
(108,192,o),
(88,185,o),
(74,167,c),
(87,175,o),
(118,187,o),
(137,170,cs),
(156,154,o),
(152,129,o),
(150,120,c),
(133,108,o),
(118,89,o),
(119,74,c),
(147,97,o),
(178,110,o),
(215,107,cs),
(253,103,o),
(280,83,o),
(300,51,c),
(305,61,o),
(305,70,o),
(305,79,cs),
(305,89,o),
(301,97,o),
(298,106,c),
(302,110,o),
(306,115,o),
(310,118,cs),
(340,144,o),
(374,159,o),
(415,151,cs),
(426,149,o),
(436,145,o),
(444,138,cs),
(456,128,o),
(464,116,o),
(470,102,cs),
(479,79,o),
(482,55,o),
(479,31,cs),
(474,0,l)
);
},
{
closed = 1;
nodes = (
(57,296,o),
(60,299,o),
(60,302,cs),
(60,305,o),
(58,307,o),
(55,307,cs),
(52,307,o),
(50,304,o),
(50,301,cs),
(50,299,o),
(51,297,o),
(54,296,c)
);
},
{
closed = 1;
nodes = (
(144,239,o),
(146,241,o),
(146,244,c),
(145,247,o),
(144,250,o),
(141,249,c),
(138,249,o),
(136,247,o),
(136,244,cs),
(136,241,o),
(138,239,o),
(141,239,cs)
);
},
{
closed = 1;
nodes = (
(138,277,o),
(139,279,o),
(139,281,cs),
(138,292,l),
(135,315,ls),
(134,325,o),
(138,332,o),
(147,337,cs),
(152,339,o),
(158,341,o),
(163,343,cs),
(166,344,o),
(170,345,o),
(169,349,cs),
(168,354,o),
(164,352,o),
(161,351,c),
(157,351,l),
(134,346,ls),
(127,345,o),
(123,347,o),
(121,353,cs),
(118,359,o),
(108,384,o),
(103,386,c),
(102,379,o),
(104,374,o),
(106,368,c),
(106,365,o),
(109,361,o),
(108,357,cs),
(105,343,o),
(104,327,o),
(89,319,c),
(87,317,o),
(86,315,o),
(87,312,c),
(89,309,o),
(92,310,o),
(94,311,cs),
(98,312,o),
(100,315,o),
(103,317,cs),
(113,324,o),
(120,321,o),
(124,310,c),
(125,304,o),
(126,299,o),
(127,294,cs),
(130,280,l),
(131,278,o),
(132,277,o),
(135,277,cs)
);
},
{
closed = 1;
nodes = (
(121,326,o),
(116,329,o),
(110,329,c),
(110,334,o),
(112,338,o),
(114,343,c),
(119,337,o),
(124,336,o),
(131,335,c),
(126,324,l)
);
},
{
closed = 1;
nodes = (
(203,158,o),
(167,324,o),
(314,342,c),
(313,338,o),
(310,337,o),
(308,336,cs),
(279,316,o),
(263,287,o),
(258,252,cs),
(255,230,o),
(260,210,o),
(271,191,cs),
(277,179,o),
(286,168,o),
(297,158,c),
(288,147,o),
(277,139,o),
(269,128,c)
);
},
{
closed = 1;
nodes = (
(102,399,o),
(104,402,o),
(104,405,cs),
(104,408,o),
(102,410,o),
(99,410,cs),
(95,410,o),
(93,408,o),
(93,405,cs),
(93,402,o),
(95,399,o),
(99,399,cs)
);
},
{
closed = 1;
nodes = (
(195,347,o),
(198,349,o),
(198,352,cs),
(199,358,o),
(195,358,o),
(190,359,c),
(189,355,o),
(187,351,o),
(192,348,c)
);
},
{
closed = 1;
nodes = (
(422,272,o),
(425,275,o),
(425,278,c),
(424,281,o),
(422,283,o),
(420,282,c),
(415,282,o),
(410,278,o),
(411,275,cs),
(412,272,o),
(414,271,o),
(417,272,c)
);
},
{
closed = 1;
nodes = (
(450,198,o),
(451,203,o),
(453,206,cs),
(455,210,ls),
(465,227,o),
(477,242,o),
(499,242,cs),
(501,242,o),
(504,243,o),
(504,245,c),
(505,248,o),
(504,250,o),
(502,251,c),
(492,259,o),
(491,271,o),
(492,283,cs),
(493,292,o),
(495,301,o),
(499,311,cs),
(500,314,o),
(502,317,o),
(497,322,c),
(489,313,o),
(484,302,o),
(476,293,cs),
(468,284,o),
(459,277,o),
(448,272,c),
(446,272,o),
(445,275,o),
(442,274,c),
(444,268,o),
(448,263,o),
(449,257,cs),
(452,241,o),
(451,225,o),
(444,211,cs),
(442,207,o),
(441,203,o),
(445,200,c)
);
},
{
closed = 1;
nodes = (
(457,244,o),
(456,255,o),
(451,266,c),
(464,268,o),
(473,277,o),
(482,286,c),
(482,273,o),
(483,263,o),
(489,251,c),
(476,249,o),
(467,242,o),
(457,232,c)
);
},
{
closed = 1;
nodes = (
(535,232,o),
(538,236,o),
(537,239,c),
(537,242,o),
(536,244,o),
(533,244,cs),
(529,244,o),
(529,241,o),
(528,238,c),
(528,235,o),
(530,233,o),
(533,233,c)
);
},
{
closed = 1;
nodes = (
(512,333,o),
(517,334,o),
(518,341,cs),
(518,343,o),
(517,346,o),
(515,347,cs),
(512,348,o),
(510,347,o),
(509,345,c),
(507,343,o),
(504,341,o),
(505,337,c)
);
}
);
width = 598;
}
);
note = five;
unicode = 53;
},
{
glyphname = six;
lastChange = "2024-09-22 23:11:08 +0000";
layers = (
{
layerId = m01;
shapes = (
{
closed = 1;
nodes = (
(243,33,o),
(272,34,o),
(301,38,cs),
(326,42,o),
(350,46,o),
(374,55,cs),
(398,64,o),
(417,80,o),
(429,103,cs),
(435,113,o),
(440,123,o),
(443,134,cs),
(456,175,o),
(460,217,o),
(456,259,cs),
(454,283,o),
(449,305,o),
(437,326,cs),
(422,354,o),
(399,372,o),
(367,378,cs),
(351,381,o),
(335,380,o),
(319,378,cs),
(279,370,l),
(274,375,o),
(271,381,o),
(268,387,cs),
(261,406,o),
(259,426,o),
(263,446,cs),
(264,449,o),
(265,453,o),
(262,457,c),
(252,456,o),
(242,461,o),
(232,462,cs),
(222,463,o),
(211,463,o),
(201,459,c),
(202,427,o),
(203,396,o),
(198,364,c),
(188,364,ls),
(161,364,o),
(136,361,o),
(112,350,cs),
(88,340,o),
(71,323,o),
(63,299,cs),
(59,284,ls),
(49,244,o),
(48,203,o),
(54,163,cs),
(58,135,o),
(66,109,o),
(81,84,cs),
(94,63,o),
(112,49,o),
(137,44,cs),
(162,38,o),
(188,36,o),
(214,35,cs)
);
},
{
closed = 1;
nodes = (
(232,49,o),
(205,49,o),
(178,52,c),
(171,79,o),
(169,106,o),
(167,133,c),
(169,134,l),
(190,105,l),
(200,92,ls),
(206,86,o),
(210,86,o),
(215,93,cs),
(239,130,ls),
(240,132,o),
(242,135,o),
(246,138,c),
(250,108,o),
(253,79,o),
(259,50,c)
);
},
{
closed = 1;
nodes = (
(140,57,o),
(112,61,o),
(95,89,cs),
(83,108,o),
(76,129,o),
(71,151,cs),
(62,196,o),
(62,240,o),
(74,285,cs),
(81,314,o),
(98,332,o),
(126,341,cs),
(148,348,o),
(169,352,o),
(192,350,c),
(163,342,ls),
(153,339,o),
(144,335,o),
(135,331,cs),
(123,325,o),
(115,316,o),
(111,304,cs),
(104,286,o),
(99,267,o),
(96,248,cs),
(89,211,o),
(85,174,o),
(80,137,cs),
(80,134,o),
(79,131,o),
(81,127,c),
(85,137,o),
(85,147,o),
(87,156,cs),
(94,191,o),
(98,225,o),
(107,259,cs),
(110,274,o),
(114,288,o),
(120,301,cs),
(124,311,o),
(130,318,o),
(139,323,cs),
(163,335,o),
(188,343,o),
(216,346,c),
(211,329,o),
(203,313,o),
(200,296,c),
(192,298,o),
(187,304,o),
(180,308,cs),
(172,312,o),
(171,313,o),
(165,306,cs),
(152,292,o),
(141,275,o),
(134,258,cs),
(128,247,o),
(125,235,o),
(121,223,cs),
(120,219,o),
(119,214,o),
(120,209,c),
(125,206,o),
(129,208,o),
(133,208,c),
(180,218,l),
(182,219,o),
(184,219,o),
(185,218,cs),
(187,215,o),
(184,211,o),
(186,207,c),
(191,210,o),
(189,216,o),
(193,221,c),
(210,226,o),
(229,229,o),
(246,239,c),
(249,229,o),
(247,219,o),
(248,210,c),
(231,198,o),
(216,182,o),
(201,167,c),
(198,169,o),
(200,172,o),
(199,174,c),
(199,181,o),
(197,188,o),
(194,195,cs),
(191,202,o),
(185,204,o),
(178,200,cs),
(172,197,o),
(167,193,o),
(163,188,cs),
(147,172,o),
(134,154,o),
(125,133,c),
(122,128,o),
(120,122,o),
(117,117,cs),
(115,113,o),
(113,110,o),
(117,105,c),
(133,110,o),
(144,125,o),
(160,134,c),
(161,106,o),
(164,80,o),
(170,53,c)
);
},
{
closed = 1;
nodes = (
(251,147,l),
(254,149,o),
(255,146,o),
(256,145,cs),
(271,129,o),
(286,114,o),
(304,101,cs),
(306,99,o),
(308,97,o),
(310,95,cs),
(315,90,o),
(318,91,o),
(321,97,cs),
(336,124,ls),
(337,126,o),
(338,129,o),
(340,131,c),
(344,121,o),
(345,80,o),
(342,60,c),
(317,54,o),
(291,51,o),
(263,50,c)
);
},
{
closed = 1;
nodes = (
(203,107,o),
(201,110,o),
(198,113,cs),
(183,133,ls),
(178,140,o),
(172,145,o),
(165,148,c),
(186,171,l),
(201,135,l),
(212,141,o),
(219,149,o),
(227,156,cs),
(251,178,l),
(268,163,o),
(284,148,o),
(305,138,c),
(313,149,o),
(315,161,o),
(320,174,c),
(363,142,l),
(356,142,o),
(352,145,o),
(347,146,cs),
(339,148,o),
(339,148,o),
(335,142,cs),
(315,109,l),
(312,108,o),
(311,110,o),
(309,111,c),
(292,124,o),
(277,138,o),
(262,154,c),
(257,158,ls),
(252,162,o),
(249,162,o),
(245,157,cs),
(233,141,l),
(207,104,l)
);
},
{
closed = 1;
nodes = (
(176,277,l),
(222,241,l),
(222,239,l),
(149,226,l)
);
},
{
closed = 1;
nodes = (
(232,265,o),
(219,280,o),
(203,292,c),
(208,310,o),
(216,327,o),
(223,344,cs),
(225,349,o),
(230,351,o),
(237,349,c),
(242,317,o),
(244,284,o),
(246,251,c)
);
},
{
closed = 1;
nodes = (
(350,86,o),
(350,110,o),
(347,135,c),
(366,127,o),
(385,124,o),
(403,117,c),
(406,121,o),
(405,125,o),
(403,128,c),
(400,138,o),
(393,147,o),
(387,155,cs),
(376,171,o),
(363,184,o),
(348,195,cs),
(343,199,o),
(338,203,o),
(332,205,cs),
(324,207,o),
(319,205,o),
(316,198,cs),
(304,167,l),
(301,166,o),
(299,169,o),
(298,171,c),
(269,202,ls),
(265,207,o),
(261,212,o),
(253,213,c),
(253,258,o),
(248,303,o),
(244,348,c),
(264,329,o),
(285,310,o),
(303,290,c),
(285,269,ls),
(280,264,o),
(277,259,o),
(273,254,c),
(268,244,o),
(270,239,o),
(281,239,cs),
(296,238,o),
(379,223,o),
(390,222,c),
(383,258,o),
(368,294,o),
(343,321,c),
(341,322,o),
(339,320,o),
(336,318,cs),
(306,292,l),
(290,313,o),
(272,331,o),
(252,351,c),
(271,352,ls),
(296,353,o),
(322,353,o),
(347,346,cs),
(360,342,ls),
(371,338,o),
(378,331,o),
(382,320,cs),
(404,265,o),
(412,209,o),
(409,150,cs),
(409,128,l),
(413,137,o),
(413,146,o),
(414,154,cs),
(419,214,o),
(409,271,o),
(386,326,cs),
(382,337,o),
(375,344,o),
(365,348,cs),
(349,355,o),
(332,358,o),
(314,359,cs),
(306,360,ls),
(305,360,o),
(305,361,o),
(304,362,c),
(311,365,o),
(319,365,o),
(326,366,cs),
(340,368,o),
(353,368,o),
(367,366,cs),
(396,362,o),
(417,345,o),
(430,319,cs),
(439,301,o),
(443,282,o),
(445,262,cs),
(448,221,o),
(445,181,o),
(432,142,cs),
(427,127,o),
(420,113,o),
(412,101,cs),
(398,81,o),
(371,65,o),
(347,63,c)
);
},
{
closed = 1;
nodes = (
(352,239,o),
(321,243,o),
(298,248,c),
(308,261,o),
(319,274,o),
(331,286,c),
(347,268,o),
(364,252,o),
(376,232,c)
);
},
{
closed = 1;
nodes = (
(230,372,o),
(234,390,o),
(228,409,c),
(219,394,o),
(222,377,o),
(219,362,c),
(215,360,o),
(212,361,o),
(209,363,c),
(212,387,o),
(212,412,o),
(210,437,c),
(217,435,o),
(220,431,o),
(225,428,cs),
(234,421,o),
(234,421,o),
(242,429,cs),
(250,437,l),
(248,411,o),
(252,387,o),
(266,366,c),
(258,364,l),
(253,363,l),
(252,373,o),
(253,384,o),
(244,394,c),
(240,381,o),
(244,371,o),
(248,361,c),
(229,353,l)
);
},
{
closed = 1;
nodes = (
(227,441,o),
(221,445,o),
(216,452,c),
(227,455,o),
(237,452,o),
(248,451,c),
(245,445,o),
(239,441,o),
(233,437,c)
);
}
);
width = 507;
}
);
note = six;
unicode = 54;
},
{
glyphname = seven;
lastChange = "2024-09-22 23:11:51 +0000";
layers = (
{
layerId = m01;
shapes = (
{
closed = 1;
nodes = (
(402,34,o),
(404,39,o),
(405,45,cs),
(407,54,o),
(407,63,o),
(404,72,cs),
(400,89,o),
(396,107,o),
(393,125,cs),
(387,158,o),
(378,192,o),
(384,225,cs),
(397,290,o),
(483,357,o),
(487,358,c),
(480,339,o),
(480,321,o),
(488,304,cs),
(497,284,o),
(494,266,o),
(485,248,cs),
(480,240,o),
(475,232,o),
(470,224,cs),
(466,217,o),
(470,210,o),
(478,210,cs),
(483,210,o),
(487,211,o),
(491,213,cs),
(558,239,o),
(589,295,o),
(586,361,cs),
(585,375,o),
(566,394,o),
(551,397,cs),
(537,399,o),
(521,399,o),
(506,386,c),
(505,389,o),
(505,398,o),
(505,401,cs),
(505,405,o),
(501,416,o),
(489,419,cs),
(477,421,o),
(466,418,o),
(455,412,cs),
(442,406,o),
(431,397,o),
(420,387,cs),
(413,380,l),
(412,381,l),
(422,397,ls),
(434,416,o),
(447,435,o),
(455,456,cs),
(462,471,o),
(464,486,o),
(450,501,cs),
(442,508,o),
(434,510,o),
(425,508,cs),
(418,506,o),
(412,502,o),
(406,499,c),
(389,487,o),
(374,473,o),
(359,459,cs),
(357,457,o),
(355,454,o),
(351,453,c),
(338,465,o),
(322,466,o),
(305,464,cs),
(294,462,o),
(283,459,o),
(274,454,cs),
(249,442,o),
(228,424,o),
(211,402,c),
(210,400,o),
(209,397,o),
(206,396,c),
(205,398,o),
(206,400,o),
(207,401,c),
(211,412,o),
(215,424,o),
(218,436,cs),
(221,447,o),
(222,458,o),
(221,469,cs),
(219,485,o),
(201,506,o),
(182,505,cs),
(171,505,o),
(160,505,o),
(149,502,cs),
(113,491,o),
(86,467,o),
(69,434,cs),
(58,414,o),
(52,391,o),
(51,368,cs),
(47,325,o),
(58,285,o),
(85,251,cs),
(94,239,o),
(105,229,o),
(119,224,c),
(122,222,o),
(124,220,o),
(126,219,cs),
(137,211,o),
(148,205,o),
(161,202,cs),
(170,201,o),
(177,203,o),
(183,210,c),
(185,211,o),
(186,214,o),
(189,214,c),
(190,212,o),
(190,210,o),
(190,208,cs),
(193,188,o),
(199,169,o),
(210,153,cs),
(214,147,o),
(219,143,o),
(225,141,cs),
(232,138,o),
(236,139,o),
(241,144,c),
(245,150,o),
(247,156,o),
(249,162,cs),
(250,165,o),
(251,168,o),
(253,170,c),
(253,157,ls),
(254,144,o),
(256,132,o),
(259,121,cs),
(263,106,o),
(272,95,o),
(283,86,cs),
(295,77,o),
(307,81,o),
(312,94,cs),
(314,99,o),
(315,104,o),
(315,109,cs),
(317,129,l),
(320,125,o),
(320,122,o),
(321,119,cs),
(332,87,o),
(347,58,o),
(371,34,cs),
(379,26,o),
(388,24,o),
(396,30,cs)
);
},
{
closed = 1;
nodes = (
(453,-13,o),
(459,-11,o),
(463,-5,cs),
(465,-1,o),
(467,3,o),
(467,8,c),
(469,19,l),
(480,15,o),
(490,10,o),
(501,8,c),
(501,7,o),
(501,6,o),
(501,6,c),
(498,2,o),
(496,-2,o),
(500,-5,cs),
(504,-9,o),
(508,-9,o),
(513,-7,cs),
(520,-4,o),
(524,2,o),
(525,9,cs),
(525,18,o),
(529,24,o),
(534,31,cs),
(546,47,ls),
(551,53,o),
(554,60,o),
(557,67,c),
(558,73,o),
(559,78,o),
(558,83,cs),
(556,91,o),
(550,98,o),
(543,98,c),
(544,94,o),
(546,92,o),
(548,89,cs),
(551,84,o),
(552,80,o),
(550,74,cs),
(546,61,o),
(539,51,o),
(530,41,c),
(518,63,o),
(501,77,o),
(477,82,c),
(478,88,o),
(481,92,o),
(484,96,cs),
(495,113,ls),
(499,118,o),
(498,124,o),
(495,126,cs),
(491,130,o),
(487,128,o),
(484,125,cs),
(477,119,o),
(469,120,o),
(462,120,c),
(459,122,o),
(460,125,o),
(459,127,cs),
(456,134,o),
(452,137,o),
(447,136,cs),
(442,135,o),
(439,131,o),
(439,124,cs),
(439,121,o),
(440,119,o),
(439,117,c),
(436,115,o),
(432,113,o),
(428,112,c),
(425,117,o),
(425,123,o),
(420,128,c),
(419,122,o),
(423,117,o),
(422,111,c),
(417,115,o),
(415,122,o),
(409,127,c),
(411,117,o),
(419,112,o),
(421,103,c),
(416,104,o),
(414,108,o),
(410,109,c),
(412,104,o),
(418,102,o),
(421,98,c),
(419,90,o),
(429,87,o),
(433,75,cs),
(437,62,o),
(433,43,o),
(431,31,c),
(426,30,l),
(423,28,o),
(421,26,o),
(421,22,cs),
(421,18,o),
(424,16,o),
(427,15,cs),
(435,13,o),
(440,16,o),
(444,23,c),
(445,27,o),
(445,32,o),
(449,37,c),
(451,22,ls),
(451,16,o),
(451,9,o),
(444,5,cs),
(440,3,o),
(439,0,o),
(440,-4,cs),
(441,-9,o),
(444,-11,o),
(448,-12,cs)
);
},
{
closed = 1;
nodes = (
(143,228,o),
(139,228,o),
(136,230,c),
(119,235,o),
(106,245,o),
(96,258,cs),
(77,281,o),
(67,308,o),
(64,337,cs),
(60,367,o),
(64,397,o),
(77,424,cs),
(92,459,o),
(118,483,o),
(155,494,cs),
(163,497,o),
(172,498,o),
(181,498,cs),
(199,497,o),
(206,488,o),
(203,470,cs),
(201,459,o),
(197,449,o),
(193,438,cs),
(170,379,ls),
(161,355,o),
(153,331,o),
(149,306,cs),
(147,291,ls),
(147,288,o),
(147,285,o),
(151,281,c),
(162,315,o),
(186,338,o),
(213,357,cs),
(218,361,o),
(218,361,o),
(226,361,c),
(228,357,o),
(227,352,o),
(225,347,cs),
(223,340,o),
(218,333,o),
(214,326,cs),
(202,307,o),
(190,288,o),
(179,268,cs),
(166,241,ls),
(162,232,o),
(156,228,o),
(146,228,cs)
);
},
{
closed = 1;
nodes = (
(114,306,o),
(114,309,o),
(115,313,cs),
(119,343,o),
(125,372,o),
(141,398,cs),
(145,405,o),
(143,414,o),
(138,420,cs),
(133,425,o),
(126,427,o),
(118,424,cs),
(113,422,o),
(109,418,o),
(105,414,cs),
(100,408,o),
(96,400,o),
(94,393,cs),
(86,364,o),
(91,336,o),
(103,310,cs),
(105,306,o),
(107,303,o),
(112,302,c)
);
},
{
closed = 1;
nodes = (
(441,99,o),
(448,102,o),
(451,113,c),
(456,101,o),
(440,92,o),
(433,103,c)
);
},
{
closed = 1;
nodes = (
(454,88,o),
(450,88,o),
(445,94,c),
(454,92,o),
(460,95,o),
(462,103,c),
(465,96,o),
(464,92,o),
(459,90,cs)
);
},
{
closed = 1;
nodes = (
(444,128,l),
(448,128,o),
(449,125,o),
(449,119,c)
);
},
{
closed = 1;
nodes = (
(213,168,o),
(209,178,o),
(205,189,cs),
(200,205,o),
(199,222,o),
(198,239,cs),
(197,247,o),
(197,255,o),
(195,262,cs),
(194,268,o),
(195,271,o),
(198,276,cs),
(225,320,l),
(235,337,l),
(238,344,o),
(240,350,o),
(240,358,cs),
(240,371,o),
(231,378,o),
(218,375,c),
(211,372,l),
(208,374,o),
(210,376,o),
(211,378,cs),
(231,413,o),
(260,438,o),
(299,450,cs),
(309,453,o),
(319,454,o),
(329,451,cs),
(344,448,o),
(350,435,o),
(347,424,cs),
(344,415,o),
(340,407,o),
(335,399,cs),
(325,383,o),
(313,368,o),
(301,354,cs),
(287,336,o),
(271,319,o),
(258,300,cs),
(250,289,o),
(243,279,o),
(240,266,cs),
(239,262,o),
(238,259,o),
(242,256,c),
(268,277,o),
(291,302,o),
(325,314,c),
(323,307,o),
(320,303,o),
(316,299,cs),
(287,267,ls),
(259,236,o),
(235,203,o),
(223,162,cs),
(222,158,l)
);
},
{
closed = 1;
nodes = (
(483,116,o),
(485,121,o),
(491,122,c),
(492,121,l),
(487,116,ls),
(485,114,o),
(484,112,o),
(480,110,c)
);
},
{
closed = 1;
nodes = (
(465,172,o),
(473,188,o),
(471,197,cs),
(470,207,o),
(465,212,o),
(462,215,cs),
(455,221,o),
(439,220,o),
(432,213,cs),
(421,204,o),
(418,193,o),
(420,179,cs),
(424,164,o),
(440,156,o),
(454,165,cs)
);
},
{
closed = 1;
nodes = (
(432,190,o),
(428,194,o),
(429,199,cs),
(431,206,o),
(438,216,o),
(449,214,cs),
(460,212,o),
(459,200,o),
(454,193,cs),
(450,187,o),
(442,185,o),
(436,188,cs)
);
},
{
closed = 1;
nodes = (
(256,327,o),
(257,329,o),
(258,330,c),
(268,347,o),
(279,362,o),
(293,377,cs),
(297,382,o),
(302,388,o),
(305,395,cs),
(307,398,o),
(308,402,o),
(305,406,cs),
(302,410,o),
(298,409,o),
(293,407,cs),
(288,405,o),
(283,401,o),
(279,397,cs),
(269,385,o),
(262,372,o),
(256,358,cs),
(254,353,o),
(252,347,o),
(252,341,cs),
(251,336,o),
(251,331,o),
(254,327,c)
);
},
{
closed = 1;
nodes = (
(369,53,o),
(368,55,o),
(367,57,cs),
(332,106,o),
(317,161,o),
(328,221,cs),
(329,227,o),
(331,232,o),
(325,237,c),
(320,236,o),
(319,232,o),
(317,228,cs),
(311,213,o),
(307,199,o),
(304,183,cs),
(292,119,ls),
(291,113,o),
(290,106,o),
(285,101,c),
(279,104,o),
(277,109,o),
(274,114,c),
(267,131,o),
(265,148,o),
(266,166,cs),
(267,191,o),
(272,215,o),
(281,238,cs),
(284,245,o),
(288,252,o),
(293,257,cs),
(323,289,ls),
(327,294,o),
(332,300,o),
(335,306,cs),
(337,311,o),
(338,316,o),
(335,321,cs),
(331,326,o),
(326,326,o),
(320,325,cs),
(310,323,o),
(300,318,o),
(291,312,cs),
(274,301,l),
(276,306,o),
(279,309,o),
(281,311,cs),
(326,367,ls),
(334,376,o),
(341,386,o),
(347,397,cs),
(350,402,o),
(353,408,o),
(355,414,cs),
(359,425,o),
(361,436,o),
(355,447,c),
(374,464,ls),
(387,475,o),
(401,486,o),
(416,494,c),
(421,498,o),
(427,500,o),
(434,500,cs),
(440,499,o),
(442,496,o),
(441,490,cs),
(440,485,o),
(438,481,o),
(435,478,c),
(422,457,ls),
(395,416,o),
(373,372,o),
(357,325,cs),
(351,305,ls),
(350,302,o),
(350,300,o),
(350,297,c),
(349,294,o),
(351,292,o),
(354,290,c),
(358,289,o),
(360,291,o),
(362,294,cs),
(372,309,ls),
(387,331,o),
(403,352,o),
(421,371,cs),
(430,380,o),
(439,389,o),
(450,396,cs),
(456,401,o),
(463,405,o),
(471,408,cs),
(476,409,o),
(481,410,o),
(486,409,cs),
(489,409,o),
(494,409,o),
(495,406,cs),
(497,402,o),
(494,399,o),
(492,396,cs),
(486,389,o),
(479,383,o),
(472,377,cs),
(450,360,o),
(428,342,o),
(408,321,cs),
(395,308,o),
(383,293,o),
(372,277,cs),
(354,248,o),
(348,218,o),
(355,185,cs),
(360,157,o),
(368,129,o),
(374,101,cs),
(380,68,ls),
(381,64,o),
(381,59,o),
(380,55,cs),
(379,50,o),
(375,48,o),
(371,52,c)
);
},
{
closed = 1;
nodes = (
(483,236,o),
(486,238,o),
(487,241,c),
(491,247,o),
(495,254,o),
(498,262,cs),
(504,276,o),
(505,290,o),
(501,304,cs),
(496,321,ls),
(491,343,o),
(499,362,o),
(514,379,cs),
(517,382,ls),
(541,404,o),
(569,384,o),
(565,350,cs),
(561,315,o),
(527,263,o),
(486,234,c),
(486,234,o),
(485,232,o),
(483,233,c)
);
}
);
width = 636;
}
);
note = seven;
unicode = 55;
},
{
glyphname = eight;
lastChange = "2024-09-22 23:13:02 +0000";
layers = (
{
layerId = m01;
shapes = (
{
closed = 1;
nodes = (
(233,72,o),
(260,92,o),
(276,128,cs),
(284,148,o),
(287,169,o),
(285,191,cs),
(285,194,o),
(285,198,o),
(286,201,cs),
(291,219,o),
(299,234,o),
(312,248,cs),
(328,266,o),
(348,275,o),
(372,274,cs),
(387,273,ls),
(398,272,o),
(408,272,o),
(418,274,cs),
(439,278,o),
(455,289,o),
(463,310,cs),
(467,324,o),
(464,334,o),
(452,342,cs),
(448,345,o),
(443,348,o),
(438,351,cs),
(422,360,o),
(420,370,o),
(431,384,cs),
(436,390,o),
(441,395,o),
(447,399,cs),
(454,404,o),
(462,409,o),
(471,412,cs),
(496,422,ls),
(501,424,o),
(505,425,o),
(509,429,c),
(499,431,o),
(490,428,o),
(482,427,cs),
(460,425,o),
(439,421,o),
(419,412,cs),
(411,409,o),
(404,405,o),
(398,398,cs),
(388,388,o),
(386,376,o),
(392,364,cs),
(395,356,o),
(400,350,o),
(406,345,cs),
(421,331,ls),
(427,326,o),
(431,320,o),
(433,313,cs),
(436,302,o),
(432,295,o),
(420,293,cs),
(410,290,o),
(401,293,o),
(392,295,cs),
(361,305,ls),
(343,311,o),
(325,310,o),
(308,301,cs),
(291,293,o),
(278,282,o),
(267,267,cs),
(266,265,o),
(265,263,o),
(263,262,c),
(262,263,o),
(261,263,o),
(261,264,c),
(241,292,o),
(213,302,o),
(180,303,cs),
(161,303,o),
(139,299,o),
(125,295,cs),
(90,285,o),
(59,258,o),
(53,228,cs),
(49,206,o),
(49,185,o),
(52,163,cs),
(59,122,o),
(82,93,o),
(121,78,cs),
(145,69,o),
(169,65,o),
(194,68,cs)
);
},
{
closed = 1;
nodes = (
(170,79,o),
(148,83,o),
(127,90,cs),
(95,102,o),
(75,124,o),
(67,156,cs),
(60,182,o),
(60,208,o),
(65,234,cs),
(69,252,o),
(80,266,o),
(96,275,cs),
(110,282,o),
(125,287,o),
(142,287,c),
(127,281,ls),
(114,275,o),
(111,271,o),
(113,256,cs),
(113,253,l),
(110,249,o),
(105,250,o),
(100,249,cs),
(89,246,o),
(81,239,o),
(76,229,cs),
(75,227,o),
(74,225,o),
(76,222,c),
(83,227,o),
(85,236,o),
(94,239,c),
(95,233,o),
(90,228,o),
(91,222,c),
(95,223,o),
(96,227,o),
(97,229,cs),
(100,237,o),
(105,244,o),
(114,247,cs),
(119,249,o),
(120,252,o),
(119,258,cs),
(118,270,o),
(119,272,o),
(129,277,cs),
(142,283,o),
(155,289,o),
(169,292,cs),
(187,295,o),
(205,292,o),
(222,285,c),
(229,281,o),
(236,277,o),
(242,271,c),
(239,269,o),
(237,272,o),
(235,273,cs),
(227,276,o),
(218,279,o),
(209,279,cs),
(199,279,o),
(189,277,o),
(182,269,c),
(178,266,o),
(174,265,o),
(170,265,cs),
(163,266,o),
(158,267,o),
(152,268,cs),
(149,269,o),
(146,270,o),
(143,268,c),
(152,262,o),
(162,261,o),
(172,260,c),
(169,252,o),
(164,249,o),
(157,249,cs),
(144,249,o),
(136,245,o),
(127,235,c),
(136,234,o),
(141,242,o),
(149,240,c),
(150,234,o),
(145,229,o),
(147,222,c),
(154,226,o),
(152,235,o),
(157,240,c),
(159,241,o),
(161,240,o),
(163,240,cs),
(169,239,o),
(173,242,o),
(176,246,cs),
(183,258,ls),
(191,271,o),
(204,275,o),
(219,273,cs),
(232,271,o),
(243,265,o),
(253,256,cs),
(257,252,o),
(260,248,o),
(261,242,c),
(258,241,o),
(255,243,o),
(252,243,cs),
(247,244,o),
(242,244,o),
(239,242,cs),
(233,238,o),
(227,238,o),
(221,237,cs),
(217,237,o),
(213,236,o),
(208,234,c),
(214,231,o),
(219,235,o),
(225,233,c),
(219,224,o),
(212,218,o),
(202,216,cs),
(195,214,o),
(187,214,o),
(181,211,cs),
(177,209,o),
(174,208,o),
(171,205,c),
(180,203,o),
(188,210,o),
(197,207,c),
(194,201,o),
(188,195,o),
(187,187,c),
(192,188,o),
(193,191,o),
(195,194,cs),
(200,202,o),
(207,209,o),
(216,213,c),
(223,218,o),
(228,225,o),
(234,232,cs),
(242,240,o),
(250,242,o),
(261,237,c),
(262,236,o),
(264,235,o),
(265,234,c),
(268,226,o),
(273,218,o),
(271,209,cs),
(269,200,o),
(263,193,o),
(254,190,cs),
(247,188,o),
(239,186,o),
(232,185,cs),
(224,183,o),
(217,182,o),
(213,173,cs),
(212,171,o),
(209,170,o),
(207,169,c),
(195,168,ls),
(191,167,o),
(188,168,o),
(185,165,c),
(193,161,o),
(201,163,o),
(209,164,c),
(207,157,o),
(203,154,o),
(197,152,cs),
(192,150,o),
(186,152,o),
(180,147,c),
(198,144,o),
(210,150,o),
(215,165,cs),
(219,177,o),
(227,179,o),
(239,179,c),
(239,173,o),
(235,167,o),
(238,161,c),
(241,161,o),
(242,163,o),
(242,165,c),
(247,177,ls),
(248,180,o),
(249,183,o),
(253,184,cs),
(261,186,o),
(268,191,o),
(273,199,c),
(276,197,o),
(275,195,o),
(275,193,cs),
(275,171,ls),
(275,161,o),
(272,151,o),
(266,143,cs),
(260,134,o),
(252,128,o),
(241,127,cs),
(230,126,o),
(221,121,o),
(214,114,cs),
(209,109,o),
(204,104,o),
(197,102,c),
(190,107,o),
(181,109,o),
(174,117,c),
(171,110,o),
(177,107,o),
(180,103,c),
(171,102,o),
(163,105,o),
(154,102,c),
(155,99,o),
(157,99,o),
(159,98,c),
(170,96,o),
(180,95,o),
(190,95,cs),
(198,96,o),
(206,99,o),
(212,105,cs),
(221,114,ls),
(226,119,o),
(231,121,o),
(237,122,cs),
(246,123,o),
(254,124,o),
(262,128,c),
(263,126,o),
(261,124,o),
(260,123,c),
(245,96,o),
(222,83,o),
(192,81,cs)
);
},
{
closed = 1;
nodes = (
(126,102,o),
(156,107,o),
(162,130,cs),
(164,136,o),
(166,143,o),
(166,150,cs),
(165,168,o),
(160,186,o),
(150,201,cs),
(147,207,o),
(143,211,o),
(138,215,cs),
(122,227,o),
(103,225,o),
(90,209,cs),
(78,194,o),
(75,177,o),
(81,159,cs),
(86,142,o),
(96,128,o),
(109,116,cs)
);
},
{
closed = 1;
nodes = (
(113,129,o),
(110,132,o),
(107,135,c),
(108,137,o),
(109,138,o),
(110,139,c),
(112,137,o),
(115,135,o),
(117,134,c),
(118,132,o),
(118,129,o),
(117,126,c)
);
},
{
closed = 1;
nodes = (
(99,143,o),
(97,147,o),
(95,151,c),
(96,153,o),
(98,153,o),
(99,154,c),
(101,150,o),
(103,146,o),
(106,143,c),
(105,142,o),
(104,141,o),
(103,141,c)
);
},
{
closed = 1;
nodes = (
(129,121,o),
(126,122,o),
(124,123,cs),
(123,124,o),
(123,127,o),
(124,133,c),
(131,133,o),
(130,127,o),
(132,123,c)
);
},
{
closed = 1;
nodes = (
(89,165,o),
(88,170,o),
(89,177,c),
(92,176,o),
(94,174,o),
(96,173,c),
(96,169,o),
(96,164,o),
(97,160,c),
(95,159,o),
(94,159,o),
(91,160,c)
);
},
{
closed = 1;
nodes = (
(138,127,o),
(132,131,o),
(138,137,c),
(142,134,o),
(146,130,o),
(149,126,c),
(147,122,o),
(144,121,o),
(139,121,c)
);
},
{
closed = 1;
nodes = (
(95,182,o),
(93,184,o),
(91,186,c),
(92,193,o),
(95,198,o),
(99,203,c),
(102,199,o),
(103,195,o),
(103,192,c),
(101,189,o),
(99,185,o),
(97,181,c)
);
},
{
closed = 1;
nodes = (
(150,137,o),
(146,140,o),
(143,144,c),
(145,151,l),
(156,148,l),
(157,143,o),
(156,138,o),
(153,133,c)
);
},
{
closed = 1;
nodes = (
(153,156,o),
(150,156,o),
(147,157,c),
(147,160,o),
(147,164,o),
(146,167,c),
(148,168,o),
(151,169,o),
(153,171,c),
(156,165,o),
(157,160,o),
(156,154,c)
);
},
{
closed = 1;
nodes = (
(107,200,o),
(106,204,o),
(106,209,c),
(112,213,o),
(117,213,o),
(124,211,c),
(124,206,o),
(121,202,o),
(119,198,c),
(117,198,o),
(115,198,o),
(113,198,c),
(111,197,o),
(109,197,o),
(108,196,c)
);
},
{
closed = 1;
nodes = (
(143,178,o),
(141,182,o),
(139,186,c),
(141,188,o),
(142,190,o),
(143,192,c),
(148,187,o),
(149,182,o),
(152,177,c),
(145,174,l)
);
},
{
closed = 1;
nodes = (
(132,193,o),
(129,195,o),
(125,197,c),
(127,200,o),
(130,203,o),
(129,206,c),
(135,206,o),
(137,201,o),
(141,198,c),
(135,191,l)
);
}
);
width = 559;
}
);
note = eight;
unicode = 56;
},
{
glyphname = nine;
lastChange = "2024-09-22 23:22:22 +0000";
layers = (
{
layerId = m01;
shapes = (
{
closed = 1;
nodes = (
(154,-30,o),
(161,-23,o),
(162,-13,cs),
(164,3,o),
(169,18,o),
(173,33,cs),
(177,45,o),
(183,55,o),
(192,65,c),
(196,64,o),
(200,63,o),
(204,66,cs),
(210,70,o),
(214,75,o),
(215,82,cs),
(216,92,o),
(217,102,o),
(216,112,cs),
(216,128,o),
(223,142,o),
(234,152,cs),
(243,160,o),
(254,158,o),
(261,148,cs),
(267,139,o),
(272,130,o),
(275,119,cs),
(275,118,o),
(275,117,o),
(275,116,c),
(272,114,ls),
(270,113,o),
(269,112,o),
(269,110,c),
(278,92,o),
(289,87,o),
(308,92,cs),
(311,93,o),
(315,95,o),
(318,94,c),
(294,79,o),
(284,85,o),
(267,103,c),
(268,92,o),
(271,80,o),
(275,69,cs),
(277,65,o),
(279,63,o),
(282,62,cs),
(288,60,o),
(288,56,o),
(289,51,cs),
(289,46,o),
(287,41,o),
(284,37,cs),
(276,25,ls),
(271,18,o),
(272,11,o),
(277,4,cs),
(283,-3,o),
(290,-10,o),
(298,-14,c),
(302,-17,o),
(307,-18,o),
(311,-15,c),
(331,-6,ls),
(334,-5,o),
(336,-2,o),
(335,2,cs),
(330,22,o),
(325,42,o),
(318,62,c),
(331,72,o),
(331,86,o),
(330,100,cs),
(329,109,o),
(327,116,o),
(318,119,c),
(316,134,o),
(313,149,o),
(309,164,cs),
(308,167,o),
(309,170,o),
(312,172,cs),
(324,183,l),
(329,190,o),
(329,192,o),
(324,199,cs),
(304,227,ls),
(299,234,o),
(295,242,o),
(295,251,cs),
(293,270,o),
(293,289,o),
(291,308,c),
(291,308,o),
(292,309,o),
(292,310,c),
(307,317,o),
(323,323,o),
(341,325,c),
(341,317,o),
(347,317,o),
(352,317,c),
(350,297,l),
(339,294,o),
(339,294,o),
(337,283,cs),
(336,276,o),
(336,269,o),
(336,263,c),
(328,258,ls),
(319,253,o),
(318,249,o),
(325,241,cs),
(331,233,o),
(335,224,o),
(339,214,cs),
(341,208,l),
(345,202,o),
(347,201,o),
(354,202,cs),
(359,203,o),
(364,205,o),
(369,206,cs),
(373,207,o),
(377,209,o),
(379,214,c),
(383,205,o),
(387,197,o),
(388,188,cs),
(391,159,o),
(389,130,o),
(382,101,cs),
(379,87,o),
(374,73,o),
(369,59,c),
(390,40,o),
(405,18,o),
(411,-10,c),
(414,-9,o),
(415,-7,o),
(416,-4,c),
(425,13,o),
(431,32,o),
(434,51,cs),
(436,74,o),
(434,96,o),
(432,118,cs),
(428,150,o),
(422,181,o),
(410,210,cs),
(409,213,o),
(407,217,o),
(408,221,c),
(411,222,o),
(413,223,o),
(415,219,cs),
(416,216,l),
(420,209,o),
(425,209,o),
(430,216,cs),
(433,220,o),
(434,225,o),
(435,229,c),
(435,236,o),
(432,240,o),
(425,242,cs),
(420,244,o),
(415,244,o),
(409,243,cs),
(406,243,o),
(403,241,o),
(400,243,c),
(397,248,o),
(399,251,o),
(402,255,cs),
(404,258,o),
(407,261,o),
(407,265,cs),
(407,273,o),
(404,281,o),
(400,288,c),
(398,294,o),
(393,295,o),
(388,296,c),
(388,309,ls),
(388,323,o),
(384,337,o),
(378,350,cs),
(376,355,o),
(373,357,o),
(368,358,cs),
(348,364,o),
(328,362,o),
(307,360,c),
(305,359,o),
(303,358,o),
(301,356,cs),
(294,348,o),
(286,344,o),
(276,349,c),
(268,340,l),
(269,334,o),
(272,329,o),
(275,324,cs),
(277,319,o),
(277,315,o),
(273,312,cs),
(269,309,o),
(269,306,o),
(270,302,cs),
(273,292,ls),
(276,282,o),
(278,272,o),
(276,262,cs),
(273,252,o),
(270,242,o),
(267,232,c),
(267,230,o),
(266,228,o),
(263,228,c),
(261,235,o),
(262,243,o),
(265,249,cs),
(272,263,o),
(271,277,o),
(267,291,cs),
(266,297,ls),
(264,305,o),
(264,312,o),
(273,317,c),
(263,336,l),
(254,331,o),
(246,325,o),
(237,321,cs),
(227,316,o),
(217,314,o),
(207,315,c),
(201,295,l),
(206,293,o),
(211,297,o),
(216,293,c),
(218,290,o),
(216,287,o),
(214,284,cs),
(209,277,o),
(210,269,o),
(214,261,cs),
(219,252,o),
(222,242,o),
(225,232,cs),
(229,216,o),
(227,200,o),
(222,184,cs),
(221,182,o),
(221,179,o),
(217,179,c),
(215,183,o),
(217,187,o),
(217,191,c),
(220,205,o),
(221,220,o),
(216,234,cs),
(213,240,o),
(211,247,o),
(208,253,cs),
(201,265,o),
(201,277,o),
(211,288,c),
(211,289,o),
(211,290,o),
(211,290,c),
(208,291,o),
(205,290,o),
(202,290,cs),
(194,289,o),
(192,291,o),
(195,299,cs),
(197,304,o),
(201,309,o),
(202,316,c),
(189,323,o),
(180,334,o),
(177,348,c),
(191,332,ls),
(200,321,o),
(211,319,o),
(223,323,cs),
(234,327,o),
(245,331,o),
(254,338,cs),
(262,343,o),
(270,348,o),
(277,355,c),
(285,351,o),
(293,354,o),
(298,360,cs),
(304,367,o),
(301,373,o),
(297,379,c),
(303,386,o),
(311,392,o),
(310,402,c),
(314,403,o),
(318,403,o),
(322,403,cs),
(334,402,o),
(341,407,o),
(346,416,cs),
(353,428,o),
(356,441,o),
(358,454,cs),
(358,458,o),
(358,461,o),
(355,465,c),
(347,458,o),
(340,450,o),
(329,447,c),
(317,458,o),
(303,463,o),
(287,465,cs),
(272,466,o),
(257,466,o),
(243,465,cs),
(225,464,o),
(207,462,o),
(189,462,cs),
(184,462,o),
(180,462,o),
(176,464,cs),
(171,466,o),
(168,469,o),
(167,475,cs),
(167,481,o),
(168,487,o),
(168,493,cs),
(168,495,o),
(169,498,o),
(166,500,c),
(165,500,o),
(164,500,o),
(164,499,c),
(152,483,o),
(141,466,o),
(132,448,c),
(124,453,o),
(116,455,o),
(107,452,c),
(101,460,ls),
(97,465,o),
(93,469,o),
(87,471,cs),
(79,474,o),
(70,470,o),
(67,462,cs),
(66,458,o),
(67,455,o),
(70,452,cs),
(72,450,o),
(74,449,o),
(77,450,cs),
(79,451,o),
(79,453,o),
(80,456,c),
(80,459,o),
(78,462,o),
(80,465,c),
(88,464,o),
(93,461,o),
(98,453,cs),
(102,448,o),
(100,444,o),
(98,439,cs),
(96,435,o),
(95,431,o),
(95,426,cs),
(94,419,o),
(95,412,o),
(95,405,c),
(88,404,o),
(83,398,o),
(80,392,cs),
(78,385,o),
(83,378,o),
(91,374,c),
(89,381,o),
(94,387,o),
(99,390,cs),
(105,394,o),
(110,393,o),
(117,390,c),
(111,381,o),
(106,374,o),
(102,365,cs),
(99,359,o),
(97,353,o),
(97,346,cs),
(97,339,o),
(100,335,o),
(107,333,cs),
(111,331,o),
(115,332,o),
(119,332,cs),
(124,331,o),
(129,333,o),
(134,332,c),
(132,328,o),
(129,325,o),
(129,320,cs),
(130,315,o),
(135,313,o),
(137,310,c),
(134,305,o),
(129,304,o),
(127,299,c),
(130,292,o),
(137,288,o),
(141,282,c),
(134,276,o),
(126,271,o),
(118,266,cs),
(112,262,o),
(106,258,o),
(101,253,cs),
(93,246,o),
(94,243,o),
(101,236,cs),
(109,230,o),
(117,226,o),
(126,221,cs),
(147,212,l),
(143,204,o),
(144,198,o),
(151,194,c),
(150,191,o),
(150,187,o),
(148,185,c),
(139,184,o),
(137,183,o),
(136,178,cs),
(134,173,o),
(136,169,o),
(141,166,cs),
(145,163,l),
(151,161,o),
(157,158,o),
(163,155,cs),
(168,152,o),
(171,153,o),
(175,158,cs),
(177,161,o),
(179,164,o),
(183,167,c),
(185,158,o),
(181,152,o),
(179,145,c),
(171,146,o),
(164,146,o),
(157,145,cs),
(151,144,o),
(147,142,o),
(145,136,cs),
(140,121,ls),
(139,117,o),
(136,113,o),
(137,109,c),
(141,108,o),
(144,110,o),
(146,110,cs),
(173,114,o),
(183,107,o),
(191,86,cs),
(193,82,o),
(196,78,o),
(194,71,c),
(183,93,l),
(180,97,o),
(178,101,o),
(173,102,cs),
(161,106,o),
(150,106,o),
(138,101,c),
(139,96,o),
(141,93,o),
(143,90,cs),
(145,88,o),
(146,86,o),
(145,84,cs),
(141,72,o),
(135,62,o),
(127,52,c),
(123,62,ls),
(121,68,o),
(119,74,o),
(115,80,cs),
(107,90,o),
(93,92,o),
(81,84,c),
(90,82,o),
(98,77,o),
(103,70,cs),
(108,64,o),
(111,57,o),
(113,50,cs),
(116,41,o),
(119,33,o),
(123,24,cs),
(124,22,o),
(126,19,o),
(124,16,c),
(121,17,o),
(120,19,o),
(118,21,c),
(114,28,o),
(110,36,o),
(108,44,cs),
(106,52,o),
(103,60,o),
(98,67,cs),
(92,74,o),
(85,78,o),
(75,79,cs),
(70,80,o),
(67,78,o),
(63,75,c),
(49,61,o),
(46,38,o),
(56,21,cs),
(62,10,o),
(70,2,o),
(81,-3,cs),
(92,-8,o),
(102,-15,o),
(113,-22,cs),
(122,-28,o),
(132,-31,o),
(143,-31,cs)
);
},
{
closed = 1;
nodes = (
(161,164,o),
(154,168,o),
(147,170,cs),
(144,171,o),
(140,173,o),
(142,179,c),
(149,179,o),
(154,174,o),
(162,172,c),
(157,180,o),
(154,187,o),
(160,194,c),
(154,202,o),
(154,210,o),
(159,217,cs),
(164,224,o),
(169,230,o),
(176,236,c),
(182,229,o),
(189,223,o),
(196,217,c),
(196,193,o),
(181,177,o),
(167,160,c)
);
},
{
closed = 1;
nodes = (
(165,201,o),
(166,203,o),
(166,205,cs),
(166,208,o),
(164,209,o),
(162,209,cs),
(159,209,o),
(158,208,o),
(158,205,cs),
(158,203,o),
(159,200,o),
(163,201,cs)
);
},
{
closed = 1;
nodes = (
(141,-10,o),
(137,-2,o),
(131,4,c),
(124,0,o),
(122,-9,o),
(113,-12,c),
(118,-3,o),
(122,4,o),
(129,10,c),
(138,3,o),
(145,-5,o),
(147,-16,c)
);
},
{
closed = 1;
nodes = (
(151,10,o),
(144,19,o),
(136,28,cs),
(132,33,o),
(130,40,o),
(128,47,c),
(144,60,o),
(151,79,o),
(157,97,c),
(173,94,o),
(177,91,o),
(185,68,c),
(167,49,o),
(159,25,o),
(156,-2,c)
);
},
{
closed = 1;
nodes = (
(299,-2,o),
(292,4,o),
(286,11,cs),
(282,15,o),
(281,20,o),
(285,24,c),
(287,28,l),
(294,37,o),
(298,46,o),
(296,58,c),
(313,60,l),
(315,57,o),
(315,55,o),
(315,52,c),
(313,49,o),
(310,48,o),
(307,47,c),
(304,47,o),
(303,51,o),
(300,50,c),
(297,48,o),
(302,46,o),
(301,44,cs),
(300,41,o),
(296,41,o),
(296,38,c),
(300,35,o),
(303,39,o),
(306,40,c),
(313,36,l),
(316,39,o),
(310,40,o),
(311,43,cs),
(312,45,o),
(313,46,o),
(316,46,c),
(318,35,l),
(315,32,o),
(312,29,o),
(308,27,c),
(303,27,o),
(301,33,o),
(296,33,c),
(296,27,o),
(302,27,o),
(302,23,cs),
(301,19,o),
(297,19,o),
(296,15,c),
(301,14,o),
(303,19,o),
(307,20,cs),
(311,20,o),
(314,15,o),
(319,16,c),
(318,20,o),
(314,20,o),
(312,24,c),
(314,26,o),
(316,29,o),
(320,29,c),
(322,20,o),
(325,11,o),
(326,1,c),
(307,-7,l)
);
},
{
closed = 1;
nodes = (
(290,103,o),
(286,106,o),
(285,115,cs),
(283,131,o),
(274,145,o),
(263,157,cs),
(254,168,o),
(240,168,o),
(229,159,cs),
(223,153,o),
(219,147,o),
(216,140,cs),
(214,137,o),
(213,133,o),
(210,130,c),
(207,133,o),
(203,136,o),
(199,139,cs),
(195,141,o),
(190,142,o),
(186,144,c),
(187,155,o),
(194,159,o),
(203,160,cs),
(212,161,o),
(219,166,o),
(225,173,cs),
(234,184,o),
(241,195,o),
(243,209,c),
(246,219,l),
(262,202,o),
(284,200,o),
(301,190,c),
(303,186,o),
(303,184,o),
(302,182,cs),
(298,176,o),
(299,170,o),
(301,164,cs),
(305,147,o),
(308,131,o),
(311,113,cs),
(312,105,o),
(305,99,o),
(297,101,cs)
);
},
{
closed = 1;
nodes = (
(184,238,ls),
(180,242,o),
(176,244,o),
(171,241,c),
(168,242,o),
(152,247,o),
(153,254,cs),
(154,260,o),
(173,269,o),
(179,275,c),
(197,228,l),
(195,227,l)
);
},
{
closed = 1;
nodes = (
(143,315,o),
(138,317,o),
(137,321,cs),
(135,326,o),
(138,329,o),
(141,332,c),
(143,333,o),
(145,333,o),
(145,332,c),
(146,334,o),
(147,335,o),
(149,337,c),
(151,338,o),
(152,338,o),
(153,337,c),
(154,339,o),
(155,341,o),
(157,342,cs),
(161,344,o),
(162,341,o),
(161,338,cs),
(160,334,o),
(159,328,o),
(163,324,c),
(160,325,o),
(155,327,o),
(153,331,c),
(152,327,o),
(152,323,o),
(156,319,c),
(152,320,o),
(146,322,o),
(145,326,c),
(144,323,o),
(143,318,o),
(147,314,c)
);
},
{
closed = 1;
nodes = (
(246,255,o),
(243,267,o),
(238,279,c),
(243,276,o),
(242,272,o),
(246,270,c),
(252,270,o),
(249,278,o),
(254,280,c),
(252,267,o),
(251,255,o),
(248,243,c)
);
},
{
closed = 1;
nodes = (
(146,351,o),
(130,376,o),
(125,384,c),
(131,394,o),
(160,411,o),
(160,411,c),
(158,399,o),
(159,386,o),
(166,375,c),
(161,378,o),
(163,376,o),
(147,393,c),
(148,386,o),
(156,373,o),
(164,362,c),
(159,364,o),
(148,372,o),
(137,384,c),
(139,375,o),
(154,360,o),
(163,351,c)
);
},
{
closed = 1;
nodes = (
(405,62,o),
(409,81,o),
(410,101,cs),
(411,122,o),
(408,142,o),
(406,162,cs),
(404,182,o),
(398,201,o),
(392,221,c),
(412,200,o),
(420,82,o),
(403,42,c)
);
},
{
closed = 1;
nodes = (
(222,285,o),
(223,297,o),
(220,310,c),
(233,314,o),
(245,320,o),
(257,327,c),
(260,292,l),
(257,292,o),
(257,297,o),
(253,296,c),
(249,293,o),
(250,286,o),
(246,282,c),
(242,284,o),
(243,290,o),
(238,293,c),
(231,288,o),
(229,279,o),
(222,273,c)
);
},
{
closed = 1;
nodes = (
(117,405,o),
(110,407,o),
(102,407,c),
(100,419,o),
(100,432,o),
(106,443,cs),
(109,449,o),
(115,450,o),
(122,448,cs),
(127,446,o),
(131,444,o),
(134,440,cs),
(140,433,o),
(146,426,o),
(155,420,c),
(140,415,o),
(131,404,o),
(118,395,c)
);
},
{
closed = 1;
nodes = (
(121,416,o),
(120,418,o),
(120,421,cs),
(120,425,o),
(123,428,o),
(127,428,cs),
(129,428,ls),
(126,428,o),
(124,425,o),
(124,422,cs),
(124,419,o),
(126,417,o),
(129,417,cs),
(133,417,o),
(135,419,o),
(135,422,cs),
(135,424,ls),
(135,429,o),
(131,433,o),
(126,433,cs),
(120,433,o),
(116,429,o),
(116,424,cs),
(116,419,o),
(119,416,o),
(123,414,c)
);
},
{
closed = 1;
nodes = (
(228,355,o),
(230,354,o),
(231,358,c),
(216,363,o),
(203,372,o),
(198,389,c),
(184,387,o),
(180,383,o),
(184,376,c),
(187,376,o),
(189,381,o),
(193,380,c),
(199,372,ls),
(205,362,o),
(214,357,o),
(226,355,cs)
);
},
{
closed = 1;
nodes = (
(348,210,o),
(347,210,o),
(345,215,cs),
(341,227,o),
(335,239,o),
(327,248,c),
(328,250,o),
(328,250,o),
(328,251,c),
(342,258,o),
(356,266,o),
(372,267,cs),
(377,267,o),
(381,266,o),
(382,260,cs),
(384,254,o),
(388,248,o),
(392,242,c),
(386,239,o),
(381,239,o),
(376,239,cs),
(367,238,o),
(366,237,o),
(368,228,cs),
(369,225,o),
(370,222,o),
(370,218,c),
(367,215,o),
(364,215,o),
(360,215,c),
(356,223,o),
(355,234,o),
(347,242,c),
(345,230,o),
(352,223,o),
(354,214,c)
);
},
{
closed = 1;
nodes = (
(214,392,o),
(218,397,o),
(218,402,cs),
(218,408,o),
(214,413,o),
(210,413,cs),
(206,413,o),
(202,408,o),
(202,402,cs),
(202,397,o),
(206,392,o),
(210,392,cs)
);
},
{
closed = 1;
nodes = (
(219,341,o),
(220,347,o),
(215,348,cs),
(211,349,o),
(208,350,o),
(205,346,c),
(188,357,o),
(179,372,o),
(169,388,c),
(170,389,o),
(170,390,o),
(171,390,c),
(180,394,o),
(181,400,o),
(178,409,cs),
(174,423,o),
(178,427,o),
(191,432,cs),
(195,434,o),
(198,434,o),
(200,431,cs),
(205,425,o),
(211,421,o),
(217,418,cs),
(223,415,o),
(225,411,o),
(225,405,cs),
(226,397,o),
(229,389,o),
(233,382,cs),
(237,375,o),
(260,375,o),
(265,381,cs),
(269,387,o),
(273,402,o),
(273,406,cs),
(274,413,o),
(276,416,o),
(282,417,c),
(285,413,o),
(285,407,o),
(286,402,c),
(290,404,o),
(297,404,o),
(301,402,cs),
(313,396,o),
(293,383,o),
(286,379,cs),
(281,376,o),
(280,372,o),
(283,367,cs),
(284,365,o),
(285,364,o),
(287,364,cs),
(289,364,o),
(290,366,o),
(290,368,c),
(291,370,o),
(289,373,o),
(292,375,c),
(295,372,o),
(295,368,o),
(294,364,cs),
(293,361,o),
(290,358,o),
(286,358,cs),
(282,358,o),
(279,360,o),
(277,364,cs),
(273,371,o),
(275,377,o),
(282,381,c),
(283,382,o),
(284,382,o),
(283,384,c),
(278,385,o),
(275,382,o),
(273,377,cs),
(271,374,o),
(270,370,o),
(271,366,cs),
(272,360,o),
(269,357,o),
(265,356,c),
(251,350,o),
(237,344,o),
(223,340,c)
);
},
{
closed = 1;
nodes = (
(422,217,o),
(422,218,o),
(421,219,c),
(417,229,o),
(417,228,o),
(406,228,cs),
(396,228,o),
(387,225,o),
(376,223,c),
(375,232,l),
(376,233,o),
(377,233,o),
(378,233,cs),
(388,232,o),
(398,235,o),
(408,236,cs),
(412,237,o),
(417,237,o),
(421,236,cs),
(427,234,o),
(429,233,o),
(428,226,cs),
(428,222,o),
(428,221,o),
(423,217,c)
);
},
{
closed = 1;
nodes = (
(394,260,o),
(393,262,o),
(393,263,c),
(388,273,o),
(385,275,o),
(374,273,cs),
(366,272,o),
(359,270,o),
(352,268,cs),
(349,267,o),
(346,265,o),
(341,266,c),
(341,274,o),
(343,281,o),
(345,289,c),
(360,291,o),
(375,291,o),
(389,291,c),
(397,278,o),
(399,265,o),
(396,259,c)
);
},
{
closed = 1;
nodes = (
(387,278,o),
(389,281,o),
(389,284,cs),
(389,287,o),
(387,289,o),
(383,289,cs),
(379,288,o),
(378,286,o),
(378,282,cs),
(378,279,o),
(380,277,o),
(384,277,c)
);
},
{
closed = 1;
nodes = (
(251,419,o),
(241,418,o),
(234,415,c),
(227,416,o),
(222,420,o),
(217,425,cs),
(213,428,o),
(209,431,o),
(205,436,c),
(231,439,o),
(254,435,o),
(277,422,c),
(272,419,o),
(268,416,o),
(263,415,c)
);
},
{
closed = 1;
nodes = (
(292,388,o),
(302,395,o),
(299,398,cs),
(296,401,o),
(287,399,o),
(285,398,c),
(289,399,o),
(295,398,o),
(296,396,cs),
(297,395,o),
(293,391,o),
(290,387,c)
);
},
{
closed = 1;
nodes = (
(321,476,o),
(323,484,o),
(315,493,cs),
(303,507,o),
(287,517,o),
(271,527,cs),
(270,528,o),
(268,528,o),
(266,527,c),
(264,525,o),
(264,523,o),
(265,521,cs),
(266,517,o),
(267,513,o),
(268,509,cs),
(269,500,o),
(264,495,o),
(256,495,cs),
(243,494,o),
(235,502,o),
(237,515,cs),
(238,519,o),
(240,522,o),
(238,526,c),
(218,518,o),
(201,507,o),
(185,492,cs),
(178,484,ls),
(176,481,o),
(174,478,o),
(176,474,cs),
(178,471,o),
(181,470,o),
(185,470,cs),
(193,469,o),
(202,470,o),
(210,471,cs),
(244,473,o),
(277,479,o),
(310,467,c)
);
}
);
width = 485;
}
);
note = nine;
unicode = 57;
},
{
glyphname = at;
lastChange = "2024-09-22 23:09:15 +0000";
layers = (
{
layerId = m01;
shapes = (
{
closed = 1;
nodes = (
(236,-4,o),
(249,-2,o),
(259,9,cs),
(264,14,o),
(270,18,o),
(276,20,cs),
(301,29,ls),
(327,37,o),
(353,42,o),
(378,50,cs),
(402,58,o),
(424,68,o),
(443,84,cs),
(453,92,o),
(463,102,o),
(469,114,cs),
(476,129,o),
(468,144,o),
(454,146,cs),
(453,146,o),
(452,146,o),
(451,147,c),
(450,155,o),
(454,162,o),
(457,168,cs),
(463,183,o),
(467,197,o),
(469,213,cs),
(472,229,o),
(472,246,o),
(474,262,cs),
(476,280,o),
(478,298,o),
(478,316,cs),
(478,327,o),
(476,338,o),
(469,348,cs),
(462,356,o),
(461,364,o),
(463,374,cs),
(465,380,o),
(466,386,o),
(465,393,cs),
(465,396,o),
(464,399,o),
(462,401,cs),
(454,407,o),
(447,413,o),
(436,412,cs),
(434,412,o),
(431,411,o),
(429,413,c),
(428,416,l),
(418,448,ls),
(416,455,o),
(412,459,o),
(404,458,c),
(402,457,o),
(399,458,o),
(398,460,c),
(392,467,o),
(385,472,o),
(378,476,c),
(379,484,ls),
(379,485,o),
(378,487,o),
(377,488,cs),
(371,492,o),
(358,492,o),
(353,487,cs),
(337,470,l),
(332,473,o),
(327,472,o),
(323,472,c),
(316,481,o),
(309,489,o),
(302,496,cs),
(295,502,o),
(292,502,o),
(285,496,cs),
(270,483,l),
(250,492,o),
(232,487,o),
(214,475,c),
(207,486,ls),
(200,498,o),
(197,499,o),
(184,494,cs),
(174,490,o),
(165,486,o),
(155,481,cs),
(134,469,o),
(136,472,o),
(134,447,c),
(133,444,o),
(135,440,o),
(132,437,c),
(128,439,o),
(127,442,o),
(125,445,cs),
(119,455,o),
(114,457,o),
(103,452,cs),
(88,446,l),
(72,437,o),
(72,437,o),
(79,421,cs),
(89,399,l),
(76,397,o),
(67,389,o),
(64,376,cs),
(61,364,o),
(62,352,o),
(70,341,c),
(68,336,ls),
(61,318,o),
(58,299,o),
(59,280,cs),
(60,263,o),
(58,246,o),
(53,230,cs),
(50,221,o),
(49,212,o),
(51,203,cs),
(55,175,o),
(67,150,o),
(81,126,cs),
(85,119,o),
(86,117,o),
(81,110,cs),
(74,101,ls),
(67,90,o),
(71,81,o),
(84,79,cs),
(90,78,o),
(96,78,o),
(101,78,cs),
(116,77,o),
(129,72,o),
(141,63,cs),
(149,57,o),
(156,50,o),
(163,42,cs),
(171,33,o),
(180,23,o),
(190,15,cs),
(199,7,o),
(210,1,o),
(222,-1,cs)
);
}
);
width = 528;
}
);
note = at;
unicode = 64;
},
{
glyphname = A;
lastChange = "2024-09-22 23:05:32 +0000";
layers = (
{
layerId = m01;
shapes = (
{
closed = 1;
nodes = (
(85.79,56,o),
(88.68,56.62,o),
(90.95,59.57,cs),
(96.42,66.65,o),
(102.5,73.25,o),
(107.69,80.59,cs),
(130.08,112.24,o),
(153.84,142.87,o),
(177.82,173.32,cs),
(179.34,175.24,o),
(180.27,177.93,o),
(183.51,178.45,c),
(193.16,170.92,o),
(204.83,167.48,o),
(216.35,163.66,cs),
(227.62,159.9,o),
(238.42,160.87,o),
(248.95,166.05,cs),
(252.69,167.89,o),
(256.47,169.68,o),
(260.03,171.81,cs),
(283.4,185.76,o),
(306.98,199.39,o),
(330.89,212.42,cs),
(357.04,226.66,o),
(372.6,248.71,o),
(378.88,277.54,cs),
(380.23,283.78,o),
(381.17,290.15,o),
(381.83,296.51,cs),
(384.22,319.74,o),
(376.35,338.59,o),
(357.51,352.72,cs),
(357.52,352.74,ls),
(349.54,358.72,o),
(340.71,363.27,o),
(332.02,368.1,cs),
(324.21,372.44,o),
(316.2,376.46,o),
(308.63,382.29,c),
(326.55,399.65,o),
(333.15,416.94,o),
(330.42,433.16,c),
(326.08,436.42,o),
(320.63,435.39,o),
(315.71,436.51,cs),
(309.66,437.91,o),
(308.08,436.56,o),
(307.58,430.49,cs),
(307.21,426.01,o),
(307.45,421.43,o),
(305.03,417.44,cs),
(300.01,409.17,o),
(293.43,402.31,o),
(286.55,396.08,c),
(281.47,398.06,o),
(278.15,401.16,o),
(274.53,403.77,cs),
(265.45,410.33,o),
(256.45,416.98,o),
(246.51,422.3,cs),
(232.95,429.56,o),
(218.44,432.06,o),
(203.65,429.04,cs),
(165.42,421.25,o),
(137.03,400.46,o),
(121.45,363.84,cs),
(114.45,347.4,o),
(111.51,330.1,o),
(110.66,312.39,cs),
(109.39,285.95,o),
(111.13,259.92,o),
(121.18,234.95,cs),
(125.84,223.37,o),
(133.05,215.32,o),
(146.15,214.03,cs),
(146.97,213.95,o),
(147.26,213.42,o),
(146.71,211.58,cs),
(146.48,211.19,o),
(145.71,209.81,o),
(144.86,208.5,cs),
(127.44,181.95,o),
(109.02,156.16,o),
(88.33,132.05,cs),
(76.86,118.68,o),
(65.35,105.36,o),
(53.96,91.92,cs),
(48.85,85.87,o),
(48.59,75.61,o),
(53.81,69.92,cs),
(61.46,61.61,o),
(71.04,56.79,o),
(82.5,56.18,cs)
);
}
);
width = 432;
}
);
note = A;
unicode = (65,192,193,194,195,196,197);
},
{
glyphname = B;
lastChange = "2024-09-22 23:05:32 +0000";
layers = (
{
layerId = m01;
shapes = (
{
closed = 1;
nodes = (
(295.76,10.51,o),
(306.95,27.59,o),
(301.2,50.12,cs),
(300.39,53.31,o),
(298.52,56.38,o),
(298.75,59.54,c),
(301.19,60.59,o),
(302.65,59.75,o),
(304.19,59.46,cs),
(316.56,57.11,o),
(328.87,56.01,o),
(341.42,58.57,cs),
(368.66,64.15,o),
(392.5,90.15,o),
(382.24,124.19,cs),
(381.61,126.27,o),
(380.3,128.27,o),
(381.72,131.55,c),
(393.9,128.31,o),
(405.82,125.87,o),
(418.01,125.23,cs),
(433.67,124.41,o),
(448.69,126.65,o),
(462.27,135.26,cs),
(472.85,141.97,o),
(477.43,151.41,o),
(475.64,163.84,cs),
(475.2,166.94,o),
(474.61,170,o),
(474.09,173.05,c),
(477.53,175.05,o),
(480.62,173.45,o),
(483.7,173.13,cs),
(495.94,171.9,o),
(508.01,172.24,o),
(519.83,176.16,cs),
(537.52,182,o),
(551.77,208.9,o),
(531.35,228.55,cs),
(531.39,228.55,ls),
(525.79,233.94,o),
(519.36,238.05,o),
(512.6,241.81,cs),
(508.71,243.96,o),
(504.21,244.97,o),
(500.5,248.36,c),
(505.31,253.62,o),
(509.68,259.12,o),
(512.92,265.43,cs),
(516.31,272.01,o),
(519,278.87,o),
(520.98,285.96,cs),
(530.09,318.51,o),
(530.21,351.14,o),
(521.27,383.74,cs),
(511.85,418.14,o),
(491.3,442.73,o),
(457.35,455.31,cs),
(454.04,456.54,o),
(450.79,457.86,o),
(447.48,459.07,cs),
(430.3,465.36,o),
(412.61,469.86,o),
(394.78,473.83,cs),
(390.96,474.67,o),
(387.47,475.89,o),
(384.1,477.88,cs),
(371,485.61,o),
(356.68,488.67,o),
(341.63,487.36,cs),
(325.48,485.97,o),
(311.87,479.86,o),
(303.95,464.59,cs),
(299.76,456.49,o),
(298.16,447.67,o),
(296.58,438.83,cs),
(294.81,428.83,o),
(294.14,418.76,o),
(296,408.22,c),
(293.24,408.22,o),
(291.64,408.32,o),
(290.08,408.22,cs),
(266,406.32,o),
(247.64,392.86,o),
(241.71,372.07,cs),
(238.47,360.7,o),
(235.45,349.13,o),
(237.94,337.05,cs),
(238.18,335.86,o),
(237.97,334.6,o),
(237.97,333.28,c),
(234.94,332.83,o),
(233.45,334.81,o),
(231.66,335.97,cs),
(212.87,348.31,o),
(194.92,347.08,o),
(177.96,332.32,cs),
(169.01,324.53,o),
(163.2,314.64,o),
(159.1,303.71,cs),
(156.31,296.26,o),
(153.92,288.64,o),
(151.37,281.19,c),
(147.72,281.22,o),
(144.92,282.93,o),
(142.03,284.22,cs),
(122.43,292.99,o),
(106.38,290.28,o),
(91.04,275.4,cs),
(75.6,260.4,o),
(64.2,242.79,o),
(57.01,222.49,cs),
(51.8,207.84,o),
(48.88,192.76,o),
(50.38,177.18,cs),
(52.33,156.94,o),
(61.51,141.5,o),
(87.48,142.1,cs),
(88.75,142.13,o),
(90.04,142.04,o),
(91.32,142.05,cs),
(97.53,142.15,o),
(102.38,139.44,o),
(106.43,134.87,cs),
(109.64,131.24,o),
(112.25,127.22,o),
(114.58,123.01,cs),
(119.53,113.99,o),
(123.4,104.51,o),
(127.42,95.07,cs),
(133.84,80.02,o),
(140.44,65.07,o),
(149.07,51.12,cs),
(155.86,40.17,o),
(163.49,29.91,o),
(173.8,21.93,cs),
(182.14,15.48,o),
(191.27,11.46,o),
(202.08,11.46,cs),
(206.52,11.46,o),
(210.95,10.28,o),
(215.39,9.64,cs),
(234.42,6.85,o),
(253.44,3.72,o),
(272.76,6.83,cs)
);
}
);
width = 591;
}
);
note = B;
unicode = 66;
},
{
glyphname = C;
lastChange = "2024-09-22 23:05:32 +0000";
layers = (
{
layerId = m01;
shapes = (
{
closed = 1;
nodes = (
(163.54,-2.09,o),
(167.33,-1.22,o),
(171.13,-0.62,cs),
(188.68,2.07,o),
(201.71,10.22,o),
(206.23,28.57,cs),
(206.76,30.75,o),
(207.47,32.88,o),
(207.94,35.07,cs),
(211.55,51.83,o),
(212.05,68.75,o),
(210.68,85.78,cs),
(208.5,112.93,o),
(206.26,140.07,o),
(204.07,167.23,cs),
(203.81,170.42,o),
(203.36,173.65,o),
(204.31,176.79,cs),
(208.18,189.68,o),
(212.05,202.57,o),
(218.54,214.48,cs),
(223.88,224.32,o),
(231.41,232.03,o),
(241.07,237.58,cs),
(252.18,243.97,o),
(256.47,241.93,o),
(258.28,229.16,cs),
(264.05,188.29,o),
(262.94,147.32,o),
(259.49,106.35,cs),
(258.84,98.7,o),
(256.15,91.62,o),
(251.83,84.91,cs),
(246.64,76.83,o),
(240.01,69.75,o),
(235.72,61.02,cs),
(229.2,47.76,o),
(231.8,42.02,o),
(246.4,38.18,cs),
(246.95,38.03,o),
(247.38,37.5,o),
(248.08,36.97,c),
(248.53,28.61,o),
(252.77,22.32,o),
(260.77,19.65,cs),
(274.53,15.02,o),
(290.93,14.86,o),
(303.9,29.44,cs),
(313.69,40.46,o),
(319.98,53.12,o),
(323.32,67.54,cs),
(336.5,124.3,o),
(339.42,181.82,o),
(334.32,239.58,cs),
(331.93,266.66,o),
(329.27,294.49,o),
(313.29,319,c),
(319.32,314.84,o),
(325.34,310.64,o),
(331.39,306.5,cs),
(337.73,302.13,o),
(344.15,297.9,o),
(351.58,295.53,cs),
(364.76,291.32,o),
(376.08,293.71,o),
(385.52,304.35,cs),
(400.88,321.64,o),
(403.39,345.37,o),
(391.76,368.05,cs),
(386.78,377.78,o),
(380.36,386.62,o),
(374.21,395.62,cs),
(368.23,404.38,o),
(362.79,413.43,o),
(358.68,423.22,cs),
(355.42,430.95,o),
(353.18,438.98,o),
(352.81,447.38,cs),
(352.41,456.49,o),
(355.46,459.56,o),
(364.58,459.77,cs),
(374.71,459.98,o),
(384.23,457.48,o),
(393.37,453.21,cs),
(405.71,447.47,o),
(418.61,443.98,o),
(432.31,443.74,cs),
(436.55,443.66,o),
(440.62,444.26,o),
(444.47,446.08,cs),
(456.34,451.73,o),
(463.26,465.15,o),
(448.2,476.1,cs),
(448.25,476.13,ls),
(427.27,491.39,o),
(403.86,496.76,o),
(378.38,495.29,cs),
(360.9,494.29,o),
(345.14,489.03,o),
(331.73,477.39,cs),
(323.84,470.53,o),
(319.12,462.03,o),
(317.89,451.79,cs),
(316.89,443.5,o),
(317.18,435.22,o),
(318.89,426.92,cs),
(321.47,414.52,o),
(327.1,403.37,o),
(332.41,392.06,cs),
(337.44,381.32,o),
(342.49,370.59,o),
(345.25,358.96,cs),
(346.14,355.25,o),
(347.59,351.44,o),
(343.49,348.23,c),
(338.12,349.49,o),
(335.43,354.13,o),
(331.97,357.76,cs),
(325.58,364.5,o),
(319.71,371.78,o),
(312.24,377.42,cs),
(302.4,384.86,o),
(295.51,384.23,o),
(287.03,375.21,cs),
(285.77,373.87,o),
(284.77,372.4,o),
(283.74,370.94,c),
(280.76,371,o),
(277.43,370.94,o),
(273.84,370.75,c),
(276.55,372.19,o),
(279.29,374.04,o),
(279.63,377.86,c),
(270.81,377.89,o),
(261.81,374.09,o),
(254.47,368.59,c),
(246.45,367.25,o),
(237.74,365.25,o),
(228.61,362.46,c),
(230.05,364.23,o),
(231.48,365.99,o),
(233.01,367.69,cs),
(236.01,371.01,o),
(239.06,374.29,o),
(241.83,377.77,cs),
(243.02,379.29,o),
(245.51,380.77,o),
(243.48,383.38,c),
(233.3,376.09,o),
(225.06,367.67,o),
(219.83,359.52,c),
(212.28,356.86,o),
(204.56,353.65,o),
(196.7,349.76,c),
(197.2,350.82,o),
(197.59,351.91,o),
(198.17,352.94,cs),
(203.56,362.34,o),
(212.7,369.07,o),
(217.41,380.83,c),
(203.14,374.75,o),
(190.38,358.83,o),
(185.46,343.78,c),
(179.8,340.54,o),
(174.15,336.84,o),
(168.52,332.84,c),
(171.52,343.1,o),
(175.57,352.95,o),
(182.31,361.82,cs),
(184.18,364.27,o),
(185.62,367.06,o),
(185.34,370.79,c),
(180.97,370.97,o),
(178.63,368.19,o),
(176.24,365.79,cs),
(169.84,359.34,o),
(164.95,351.9,o),
(161.69,343.37,cs),
(158.13,334.05,o),
(155.79,324.42,o),
(153.96,314.64,cs),
(153.36,311.43,o),
(152.51,308.27,o),
(151.41,303.58,c),
(149.15,307.68,o),
(147.88,310.21,o),
(146.41,312.63,cs),
(141.88,320.18,o),
(136.04,326.57,o),
(128.39,330.95,cs),
(122.95,334.06,o),
(120.08,332.35,o),
(119.36,326.11,cs),
(119.1,323.88,o),
(119.34,321.61,o),
(119.04,319.38,cs),
(118.06,311.85,o),
(118.51,304.11,o),
(116.27,296.35,c),
(103.59,293.41,o),
(91.83,288.62,o),
(80.43,281.85,c),
(75.91,289.75,o),
(72.62,297.5,o),
(66.51,303.37,cs),
(64.72,305.08,o),
(63.74,308.1,o),
(60.57,307.29,cs),
(57.07,306.37,o),
(56.99,302.98,o),
(56.63,300.24,cs),
(55.86,294.19,o),
(55.36,288.13,o),
(54.82,282.06,cs),
(53.14,263.24,o),
(49.79,244.56,o),
(49.98,225.57,cs),
(50.13,211.59,o),
(54.66,199.25,o),
(63.08,188.17,cs),
(74.87,172.65,o),
(90.24,167.75,o),
(109.03,171.99,cs),
(112.69,172.81,o),
(116.05,175.3,o),
(120.97,174.14,c),
(131.78,146.01,o),
(138.42,117.06,o),
(133.03,86.3,cs),
(132.38,82.67,o),
(130.59,80.78,o),
(127.45,79.25,cs),
(120.79,76.01,o),
(114.5,72.14,o),
(109.82,66.2,cs),
(102.64,57.1,o),
(105.69,48.73,o),
(117.06,46.46,cs),
(124.53,44.96,o),
(131.67,46.99,o),
(138.87,48.72,cs),
(142.08,49.48,o),
(145.03,51.96,o),
(148.69,50.9,c),
(148.48,48.75,o),
(147.11,47.75,o),
(146.04,46.61,cs),
(141.85,42.11,o),
(138.25,37.22,o),
(135.89,31.51,cs),
(128.16,12.67,o),
(139.36,-3.3,o),
(159.73,-2.28,cs)
);
}
);
width = 507;
}
);
note = C;
unicode = (67,199);
},
{
glyphname = D;
lastChange = "2024-09-23 00:06:03 +0000";
layers = (
{
layerId = m01;
shapes = (
{
closed = 1;
nodes = (
(220.9,-11.98,o),
(227.02,-12.3,o),
(232.87,-9.75,cs),
(241.53,-5.99,o),
(244.24,1.3,o),
(240.03,9.73,cs),
(237.29,15.25,o),
(233.67,20.07,o),
(228.72,23.86,cs),
(225.17,26.59,o),
(221.83,29.6,o),
(218.28,32.36,cs),
(214.49,35.33,o),
(214.7,38.78,o),
(216.72,42.55,cs),
(218.41,45.73,o),
(220.96,48.16,o),
(223.61,50.5,cs),
(228.66,54.97,o),
(233.29,59.84,o),
(237.66,64.97,cs),
(246.18,74.97,o),
(250.43,86.18,o),
(249.34,99.47,cs),
(248.82,105.68,o),
(249.26,111.99,o),
(249.26,118.92,c),
(252.52,116.03,o),
(253.02,112.44,o),
(254.26,109.36,cs),
(262.7,88.49,o),
(272.44,68.33,o),
(285.65,50,cs),
(291.47,41.92,o),
(297.76,34.19,o),
(306.01,28.39,cs),
(339.56,4.68,o),
(375.9,24.95,o),
(386.87,57.36,cs),
(389.68,65.68,o),
(386.03,70.31,o),
(377.34,70.99,cs),
(369.87,71.57,o),
(362.71,69.84,o),
(355.53,68.01,cs),
(345.69,65.49,o),
(336.42,61.22,o),
(326.22,57.91,c),
(302.56,113.33,o),
(287.7,169.93,o),
(289.67,232.58,c),
(307.12,216.39,o),
(325.03,210.69,o),
(345.78,220.53,c),
(346.1,218.85,o),
(346.54,217.92,o),
(346.43,217.05,cs),
(343.7,196.4,o),
(340.83,175.79,o),
(338.2,155.13,cs),
(337.36,148.47,o),
(336.7,141.71,o),
(336.81,135.02,cs),
(336.91,129.04,o),
(342.86,124.57,o),
(349.52,124.37,cs),
(354.76,124.22,o),
(356.73,126.42,o),
(357.96,133.85,cs),
(358.17,135.11,o),
(358.25,136.4,o),
(358.33,137.67,cs),
(360.27,166.14,o),
(362.35,194.59,o),
(362.39,223.14,cs),
(362.39,225.64,o),
(361.79,228.27,o),
(363.66,231.2,c),
(368.45,232.22,o),
(373.82,233.36,o),
(377.55,237.81,cs),
(384.7,246.33,o),
(388.15,256.12,o),
(387.07,267.17,cs),
(386.22,275.9,o),
(381.75,282.09,o),
(372.75,284.28,cs),
(370.64,284.8,o),
(368.17,284.46,o),
(366.01,287.43,c),
(367.45,306.3,o),
(368.96,326,o),
(370.45,345.59,c),
(383.53,348.85,o),
(395.02,353.62,o),
(406.06,359.61,cs),
(411.12,362.35,o),
(413.69,366.16,o),
(413.09,372.03,cs),
(412.43,378.4,o),
(412.09,384.8,o),
(411.33,391.16,cs),
(410.59,397.45,o),
(409.48,403.69,o),
(408.6,409.42,c),
(410.39,411.44,o),
(412.12,411.03,o),
(413.62,411.39,cs),
(420.22,412.91,o),
(421.51,415.39,o),
(417.62,420.44,cs),
(417.57,420.45,ls),
(411.97,427.69,o),
(405.88,434.56,o),
(398.97,442.79,c),
(398.13,432.87,o),
(400.29,424.9,o),
(401.7,416.9,cs),
(404.1,403.32,o),
(405.76,389.67,o),
(406.35,375.88,cs),
(406.5,372.33,o),
(406.43,368.77,o),
(402.56,366.75,cs),
(392.95,361.77,o),
(383.24,357.09,o),
(371.87,354.22,c),
(371.6,364.04,o),
(372.9,372.79,o),
(374.32,381.33,c),
(383.66,383.81,o),
(384.45,384.91,o),
(382.93,394.04,cs),
(380.78,406.99,o),
(378.51,419.93,o),
(376.17,432.85,cs),
(375.83,434.75,o),
(376.78,437.4,o),
(373.78,438.53,c),
(369.68,433.34,o),
(367.22,427.51,o),
(365.07,421.46,cs),
(362.92,415.43,o),
(360.33,409.54,o),
(358.46,403.43,cs),
(356.67,397.57,o),
(351.86,392.46,o),
(353.15,386.11,c),
(356.09,383.37,o),
(360.23,385.69,o),
(362.44,382.11,c),
(362.65,374.67,o),
(361.44,367.17,o),
(359.81,359.58,c),
(353.75,358.47,o),
(348.75,360.68,o),
(343.92,363.08,cs),
(328.68,370.69,o),
(324.35,381.9,o),
(329.87,397.82,cs),
(334.79,412.05,o),
(339.34,426.39,o),
(344.03,440.69,cs),
(344.71,442.75,o),
(345.88,444.84,o),
(344.13,447.55,c),
(333.94,442.53,o),
(325.92,434.68,o),
(317.89,426.95,cs),
(314.39,423.6,o),
(315.2,421.32,o),
(319.5,418.68,cs),
(322.18,417.03,o),
(325.73,416.97,o),
(327.87,413.83,c),
(326.92,411.6,o),
(325.93,409.25,o),
(324.9,406.93,cs),
(320.98,398.09,o),
(318.61,388.8,o),
(316.56,379.4,cs),
(314.93,371.9,o),
(317.11,366.16,o),
(323.64,362.13,cs),
(328.01,359.44,o),
(332.27,356.52,o),
(336.85,354.29,cs),
(343.71,350.94,o),
(350.82,348.08,o),
(358.48,344.73,c),
(357.24,330.55,o),
(355.98,316.26,o),
(354.71,301.68,cs),
(354.71,301.7,ls),
(339.95,294.04,o),
(338.29,291.81,o),
(334.89,276.94,cs),
(334.02,273.13,o),
(334.54,268.25,o),
(328.86,267.2,cs),
(323.71,266.25,o),
(320.33,268.99,o),
(317.25,272.47,cs),
(313.62,276.58,o),
(310.91,281.31,o),
(308.1,285.99,cs),
(303.81,293.14,o),
(299.62,300.33,o),
(295.1,307.33,cs),
(290.39,314.64,o),
(284.84,321.25,o),
(277.87,326.59,cs),
(276.21,327.86,o),
(273.63,328.53,o),
(273.76,331.38,c),
(290.33,343.07,o),
(294.97,362.7,o),
(285.92,379.75,cs),
(284.73,382.01,o),
(284.1,384.54,o),
(283.02,386.86,cs),
(280.52,392.23,o),
(279.73,397.57,o),
(280.92,403.59,cs),
(282.39,411.09,o),
(282.73,418.83,o),
(283.6,426.8,c),
(284.66,427.62,o),
(285.91,428.62,o),
(287.16,429.57,cs),
(301.06,440.1,o),
(306.61,454.52,o),
(306.6,471.49,cs),
(306.6,473.72,o),
(306.42,476.05,o),
(305.73,478.14,cs),
(304.63,481.48,o),
(301.34,481.93,o),
(299.08,479.09,cs),
(297.5,477.09,o),
(296.48,474.67,o),
(295.03,472.57,cs),
(290.09,465.49,o),
(284.95,458.62,o),
(276.63,455.17,c),
(250.1,479.77,o),
(221.1,475.06,o),
(191.56,462.78,c),
(189.43,474.75,o),
(191.22,483.88,o),
(197.37,494.67,cs),
(199,497.54,o),
(202.4,499.98,o),
(199.68,505.09,c),
(184.23,499.77,o),
(174.52,488.38,o),
(167.23,474.65,cs),
(159.89,460.83,o),
(160.02,446.97,o),
(169.21,433.75,c),
(165.34,427.23,o),
(161.71,420.85,o),
(159.48,413.75,cs),
(157.25,406.67,o),
(156.09,399.41,o),
(155.27,392.09,cs),
(154.03,381.06,o),
(155.53,370.36,o),
(159.88,360.11,cs),
(162.53,353.88,o),
(167.44,349.38,o),
(172.75,344.8,c),
(171.04,343.83,o),
(170.28,343.17,o),
(169.41,342.95,cs),
(142.01,335.43,o),
(127.26,316.22,o),
(121.09,289.69,cs),
(115.64,266.24,o),
(123.77,248.27,o),
(144.46,235.88,cs),
(148.82,233.28,o),
(153.2,230.78,o),
(157.46,228.32,c),
(149.73,206.14,o),
(150.72,202.84,o),
(169.01,187.08,c),
(172.27,174.87,o),
(166.96,165.6,o),
(159.75,156.9,cs),
(154.12,150.14,o),
(147.33,144.87,o),
(139.41,141.09,cs),
(128.02,135.65,o),
(122.01,137.32,o),
(115.1,148.04,cs),
(106.99,160.65,o),
(105.34,174.77,o),
(105.55,189.22,c),
(114.82,191.82,o),
(117.13,193.77,o),
(119.86,200.88,cs),
(121.49,205.14,o),
(122.01,209.56,o),
(122.02,214.07,cs),
(122.1,226.7,o),
(118.02,238.15,o),
(111.16,248.41,cs),
(104.13,258.91,o),
(97.76,270.07,o),
(84.51,274.81,cs),
(76.27,277.76,o),
(75.27,278.02,o),
(75.19,269.33,cs),
(75.09,257.18,o),
(71.69,246.01,o),
(66.46,235.18,cs),
(62.14,226.24,o),
(57.99,217.21,o),
(53.94,208.15,cs),
(51.29,202.25,o),
(49.88,196,o),
(49.99,189.47,cs),
(50.28,172.2,o),
(62.94,164,o),
(78.83,170.68,cs),
(81.41,171.76,o),
(83.52,174.03,o),
(86.65,173.92,c),
(88.41,171.07,o),
(88.21,167.74,o),
(88.99,164.68,cs),
(92.43,150.94,o),
(96.51,137.45,o),
(105.41,126.05,cs),
(117.33,110.81,o),
(131.93,107.87,o),
(148.64,117.71,cs),
(158.98,123.81,o),
(167.58,131.9,o),
(174.14,142.1,cs),
(175.41,144.07,o),
(175.85,146.94,o),
(179.32,147.55,c),
(184.97,136.84,o),
(192.76,127.48,o),
(199.42,117.79,c),
(192.27,101.14,o),
(181.27,88.21,o),
(170.53,75.06,cs),
(165.66,69.11,o),
(160.67,63.24,o),
(156.67,56.62,cs),
(152.33,49.43,o),
(151.64,42.12,o),
(156.43,34.91,cs),
(161.58,27.18,o),
(166.48,19.25,o),
(172.8,12.38,cs),
(184.24,-0.06,o),
(198.14,-8.12,o),
(214.87,-10.96,cs)
);
},
{
closed = 1;
nodes = (
(171.93,264.83,o),
(170.49,266.78,o),
(170.54,269.56,cs),
(170.6,273.21,o),
(176.83,281.95,o),
(183.72,286.35,cs),
(183.74,286.35,ls),
(180.84,278.82,o),
(177.93,271.28,o),
(175.01,263.67,c)
);
}
);
width = 470;
}
);
note = D;
unicode = 68;
},
{
glyphname = E;
lastChange = "2024-09-22 23:05:32 +0000";
layers = (
{
layerId = m01;
shapes = (
{
closed = 1;
nodes = (
(219.54,-8.47,o),
(221.91,-6.29,o),
(223.99,-3.85,cs),
(229.22,2.23,o),
(234.41,8.33,o),
(239.39,14.6,cs),
(242.44,18.44,o),
(245.76,21.62,o),
(250.52,23.29,cs),
(259.33,26.37,o),
(264.15,32.19,o),
(263.52,42.1,cs),
(263.12,48.62,o),
(264.94,54.73,o),
(269.28,60.12,c),
(276.99,59.2,o),
(284.64,59.15,o),
(292.59,59.52,c),
(295.57,52.97,o),
(298.9,46.83,o),
(304.45,41.04,c),
(311.98,41.04,o),
(319.35,40.93,o),
(326.71,41.06,cs),
(340.07,41.33,o),
(348.71,48.3,o),
(352.36,61.3,cs),
(354.13,67.57,o),
(354.62,73.96,o),
(353.99,80.35,cs),
(351.84,101.66,o),
(341.94,109.5,o),
(321.44,105.96,cs),
(308.47,103.73,o),
(297.76,100.69,o),
(294.97,85.99,c),
(289.66,85.52,o),
(285.11,85.12,o),
(279.65,84.65,c),
(282.39,92.12,o),
(284.75,98.38,o),
(286.96,104.68,cs),
(288.27,108.37,o),
(290.41,111.37,o),
(293.11,114.24,cs),
(316.14,138.85,o),
(336.87,165.34,o),
(357.05,192.29,cs),
(361.65,198.44,o),
(363.84,206.65,o),
(368.97,211.76,cs),
(374.1,216.87,o),
(382.39,218.86,o),
(389.39,222.03,cs),
(394.44,224.32,o),
(397.34,227.76,o),
(398.41,233.43,cs),
(399.78,240.64,o),
(401.67,247.83,o),
(404.15,254.74,cs),
(409.86,270.63,o),
(410.97,287.29,o),
(412.97,303.81,cs),
(413.86,311.2,o),
(412.31,313.55,o),
(405.42,316.31,cs),
(405.43,316.33,ls),
(401.27,317.99,o),
(396.9,319.09,o),
(392.7,320.67,cs),
(387.68,322.57,o),
(382.14,322.98,o),
(377.36,325.96,c),
(380.13,352.32,o),
(381.7,378.53,o),
(385.42,404.53,cs),
(389.15,430.47,o),
(396.23,455.61,o),
(403.87,480.05,c),
(399.42,483.99,o),
(395.13,485.5,o),
(390.93,486.91,cs),
(377.56,491.41,o),
(363.96,495.07,o),
(350.01,497.33,cs),
(306.4,504.43,o),
(262.49,503.91,o),
(218.57,502.25,cs),
(191.65,501.23,o),
(164.94,497.77,o),
(138.34,493.36,cs),
(115.9,489.65,o),
(93.87,483.83,o),
(71.14,481.63,cs),
(66.32,481.16,o),
(60.99,480.18,o),
(55.57,475.9,c),
(75.59,430.75,o),
(83.02,381.93,o),
(94.75,333.48,c),
(90.25,330.82,o),
(85.86,328.24,o),
(81.51,325.66,cs),
(72.4,320.24,o),
(63.98,314.03,o),
(56.53,306.3,cs),
(52.11,301.7,o),
(50.42,296.86,o),
(50.19,290.91,cs),
(49.51,272.6,o),
(50.66,254.38,o),
(52.27,236.17,cs),
(53.09,226.94,o),
(55.53,224.61,o),
(64.87,223.7,cs),
(74.4,222.76,o),
(83.98,222.35,o),
(94.05,221.67,c),
(94.61,218.44,o),
(95.29,215.36,o),
(95.66,212.25,cs),
(97.16,199.52,o),
(98.84,186.81,o),
(99.89,174.06,cs),
(100.31,168.88,o),
(102.02,164.9,o),
(105.76,161.45,cs),
(109.52,158,o),
(112.94,154.11,o),
(116.78,150.74,cs),
(125.68,142.9,o),
(134.75,135.26,o),
(143.75,127.53,cs),
(146.17,125.45,o),
(148.88,123.55,o),
(149.48,120.09,cs),
(151.46,108.51,o),
(154.46,97.15,o),
(157.95,85.14,c),
(152.9,84.11,o),
(148.66,83.08,o),
(143.92,83.83,c),
(143.02,85.14,o),
(142.15,86.43,o),
(141.21,87.7,cs),
(133.24,98.67,o),
(123,102.38,o),
(110.06,99.18,cs),
(107,98.42,o),
(104.62,96.83,o),
(103.48,94.08,cs),
(97.12,78.84,o),
(95.51,63.19,o),
(100.09,47.14,cs),
(101.25,43.04,o),
(103.82,40.72,o),
(108.36,40.49,cs),
(113.15,40.26,o),
(118.15,40.25,o),
(122.65,38.83,cs),
(131.1,36.17,o),
(136.1,40.22,o),
(140.41,46.39,cs),
(142.22,48.99,o),
(143.73,51.76,o),
(145.28,54.31,c),
(166.33,54.31,l),
(169.41,50.62,o),
(169.31,46.89,o),
(168.68,42.97,cs),
(167.66,36.53,o),
(168.39,34.37,o),
(173.79,34.49,cs),
(181.1,34.64,o),
(183.97,30.54,o),
(186.56,25.1,cs),
(187.38,23.37,o),
(188.62,21.86,o),
(189.58,20.2,cs),
(195.18,10.49,o),
(204.03,3.09,o),
(208.81,-7.27,cs),
(210.1,-10.08,o),
(213.25,-10.67,o),
(216.39,-9.58,cs)
);
}
);
width = 463;
}
);
note = E;
unicode = (69,200,201,202,203);
},
